<?xml version="1.0" encoding="UTF-8"?>
<!DOCTYPE svg PUBLIC "-//W3C//DTD SVG 1.1//EN" "http://www.w3.org/Graphics/SVG/1.1/DTD/svg11.dtd">
<svg xmlns="http://www.w3.org/2000/svg" xmlns:xlink="http://www.w3.org/1999/xlink" version="1.1" width="423px" height="253px" viewBox="-0.5 -0.5 423 253"><defs/><g><g><rect x="0" y="0" width="200" height="120" rx="18" ry="18" fill="rgb(255, 255, 255)" stroke="rgb(0, 0, 0)" pointer-events="all"/></g><g><g fill="rgb(0, 0, 0)" font-family="Space Grotesk" text-anchor="middle" font-size="14.000140000000002px"><text x="99.5" y="23">Inputs </text><text x="99.5" y="40">Static definition of </text><text x="99.5" y="57">a form input:</text><text x="99.5" y="74">data type, component id, </text><text x="99.5" y="91">params, behaviour, </text><text x="99.5" y="108">validation</text></g></g><g><path d="M 295 115 L 297.5 107.5 Q 300 100 310 100 L 400 100 Q 410 100 413.17 109.49 L 416.84 120.51 Q 420 130 416.84 139.49 L 413.17 150.51 Q 410 160 400 160 L 310 160 Q 300 160 296.84 150.51 L 293.17 139.49 Q 290 130 292.5 122.5 Z" fill="rgb(255, 255, 255)" stroke="#e76f51" stroke-width="2" stroke-miterlimit="10" pointer-events="all"/></g><g><g fill="#E76F51" font-family="Space Grotesk" text-anchor="middle" font-size="14.000140000000002px"><text x="354.5" y="127">Felwine</text><text x="354.5" y="144">Engine</text></g></g><g><path d="M 200 60 Q 250 60 250 95 Q 250 130 283.63 130" fill="none" stroke="rgb(0, 0, 0)" stroke-miterlimit="10" pointer-events="stroke"/><path d="M 200 64 L 208 60 L 200 56" fill="none" stroke="rgb(0, 0, 0)" stroke-miterlimit="10" pointer-events="all"/><path d="M 288.88 130 L 281.88 133.5 L 283.63 130 L 281.88 126.5 Z" fill="rgb(0, 0, 0)" stroke="rgb(0, 0, 0)" stroke-miterlimit="10" pointer-events="all"/></g><g><path d="M 200 200 Q 245 200 245 165 Q 245 130 283.63 130" fill="none" stroke="rgb(0, 0, 0)" stroke-miterlimit="10" pointer-events="stroke"/><path d="M 200 204 L 208 200 L 200 196" fill="none" stroke="rgb(0, 0, 0)" stroke-miterlimit="10" pointer-events="all"/><path d="M 288.88 130 L 281.88 133.5 L 283.63 130 L 281.88 126.5 Z" fill="rgb(0, 0, 0)" stroke="rgb(0, 0, 0)" stroke-miterlimit="10" pointer-events="all"/></g><g><rect x="0" y="150" width="200" height="100" rx="15" ry="15" fill="rgb(255, 255, 255)" stroke="rgb(0, 0, 0)" pointer-events="all"/></g><g><g fill="rgb(0, 0, 0)" font-family="Space Grotesk" text-anchor="middle" font-size="14.000140000000002px"><text x="99.5" y="180">Components libraries</text><text x="99.5" y="197">(provide a Felwine </text><text x="99.5" y="214">compatible component </text><text x="99.5" y="231">by component type)</text></g></g></g></svg>