<?xml version="1.0" encoding="UTF-8"?>
<!-- Generated by Pixelmator Pro 3.5.10 -->
<svg width="1613" height="1579" viewBox="0 0 1613 1579" xmlns="http://www.w3.org/2000/svg">
    <path id="Path" fill="#030202" stroke="none" d="M 1251.93396 461.070923 C 1247.60498 461.216919 1245.874023 459.880005 1245.202026 457.651001 C 1244.491943 455.296997 1245.696045 453.274902 1247.750977 452.170898 C 1249.633057 451.159912 1251.801025 450.692993 1253.80896 449.901001 C 1258.860962 447.906982 1263.98999 446.06897 1268.911987 443.789917 C 1275.077026 440.935913 1279.573975 436.349976 1281.857056 429.784912 C 1282.45105 428.076904 1283.307007 426.460938 1283.989014 424.779907 C 1287.762939 415.484009 1294.909058 410.632935 1304.579956 409.036987 C 1308.874023 408.328003 1313.155029 407.533936 1317.43103 406.720947 C 1321.670044 405.915039 1324.687012 403.80603 1325.896973 399.339966 C 1328.178955 390.910034 1333.25 384.5 1340.516968 379.688965 C 1344.503052 377.051025 1347.511963 373.427979 1350.114014 369.406006 C 1359.531006 354.848999 1374.109009 347.755005 1389.748047 342.24292 C 1390.432617 342.002075 1391.141479 341.836792 1391.862061 341.75 C 1394.349976 341.454956 1397.134033 343.265015 1397.723022 345.564941 C 1398.324951 347.921021 1397.637939 350.001953 1395.666992 351.291016 C 1393.866943 352.468994 1391.760986 353.177002 1389.800049 354.113037 C 1385.223999 356.296997 1380.595947 358.380981 1376.095947 360.712036 C 1369.192993 364.286987 1363.5 369.273926 1359.362061 375.916992 C 1356.04895 381.236938 1351.880981 385.75 1346.652954 389.203003 C 1341.569946 392.55896 1338.223022 397.115967 1336.642944 402.965942 C 1334.412964 411.218994 1328.770996 415.770996 1320.703979 417.574951 C 1316.462036 418.522949 1312.17395 419.321899 1307.870972 419.927979 C 1300.777954 420.924927 1295.560059 424.286987 1293.421997 431.328003 C 1289.187988 445.269897 1278.744019 452.409912 1265.821045 456.836914 C 1260.69397 458.591919 1255.448975 460.006958 1251.93396 461.070923 Z M 1154.270996 509.552979 C 1151.922974 509.341919 1149.581055 506.979004 1149.217041 504.578003 C 1148.873047 502.307983 1149.54895 500.274902 1150.453003 498.266968 C 1154.032959 490.31897 1159.615967 484.197998 1167.75 480.994995 C 1174.485962 478.342896 1181.527954 476.474976 1188.407959 474.182007 C 1195.63501 471.773926 1202.88501 469.419922 1210.022949 466.767944 C 1215.840942 464.605957 1219.718018 460.625 1220.692993 454.139893 C 1221.06604 451.658936 1222.015015 449.24292 1222.879028 446.861938 C 1225.802979 438.799927 1231.437012 433.536987 1239.608032 430.987915 C 1240.645996 430.66394 1241.719971 430.438965 1242.790039 430.235962 C 1250.651978 428.741943 1256.563965 424.336914 1261.81897 418.438965 C 1266.396973 413.29895 1271.634033 408.739014 1276.666016 404.015015 C 1279.349976 401.495972 1282.56604 399.772949 1286.095947 398.720947 C 1288.64502 397.962036 1291.470947 399.151001 1292.63501 401.330933 C 1293.81897 403.546997 1293.313965 406.688965 1290.899048 408.047974 C 1281.189941 413.510986 1274.078003 421.823975 1266.592041 429.72998 C 1261.719971 434.875 1256.119019 438.68396 1249.057983 440.072998 C 1248.706055 440.141968 1248.38501 440.383911 1248.032959 440.435913 C 1237.974976 441.910889 1232.984009 448.063965 1231.375977 457.804932 C 1229.81604 467.251953 1223.785034 473.047974 1215.208984 476.836914 C 1205.197998 481.260986 1194.67395 484.022949 1184.259033 487.165894 C 1180.439941 488.31897 1176.490967 489.146973 1172.814941 490.647949 C 1166.192993 493.351929 1160.911011 497.393921 1159.447998 505.130981 C 1158.81897 508.468994 1156.73999 509.774902 1154.270996 509.552979 Z"/>
    <path id="path1" fill="#040303" stroke="none" d="M 1225.509033 509.656982 C 1224.436035 509.593994 1223.329956 509.672974 1222.297974 509.435913 C 1220.402954 509.000977 1218.979004 507.778931 1218.594971 505.873901 C 1218.144043 503.63501 1218.67395 501.602905 1220.71106 500.137939 C 1222.604004 498.776978 1224.727051 498.589966 1226.925049 498.596924 C 1234.463989 498.620972 1240.151001 495.346924 1244.177002 489.016968 C 1245.149048 487.487915 1246.317993 486.084961 1247.400024 484.625977 C 1255.489014 473.714966 1266.078003 467.50293 1279.901001 467.92395 C 1284.781982 468.072998 1288.14502 466.337891 1290.892944 462.406982 C 1296.402954 454.524902 1303.729004 448.609985 1312.057007 443.918945 C 1314.26001 442.677979 1316.567017 441.564941 1318.935059 440.689941 C 1322.519043 439.36499 1325.889038 440.803955 1327.014038 443.878906 C 1327.801025 446.029907 1326.728027 448.497925 1324.046997 450.23999 C 1322.531006 451.224976 1320.847046 451.948975 1319.259033 452.828003 C 1311.545044 457.096924 1304.526978 462.25 1299.573975 469.672974 C 1295.14502 476.310913 1289.20105 479.514893 1281.208984 479.159912 C 1270.520996 478.684937 1262.276978 483.224976 1256.063965 491.765991 C 1255.209961 492.939941 1254.160034 493.97998 1253.370972 495.192993 C 1246.810059 505.282959 1237.062012 509.142944 1225.509033 509.656982 Z"/>
    <path id="path2" fill="#090808" stroke="none" d="M 1088.053955 502.017944 C 1088.442017 501.187988 1089.208008 500.591919 1090.087036 500.334961 C 1093.829956 499.236938 1097.572998 498.137939 1101.31604 497.041992 C 1109.807007 494.557007 1113.291016 496.133911 1116.630981 503.973999 C 1122.113037 516.839966 1121.281006 519.184937 1108.86499 526.081909 C 1107.307007 526.947998 1105.831055 527.960938 1104.317017 528.906006 C 1098.594971 532.188965 1096.42395 527.950928 1095.13501 523.918945 C 1093.5 518.805908 1091.123047 514.049927 1089.19397 509.089966 C 1088.187988 506.750977 1086.932983 504.418945 1088.053955 502.017944 Z"/>
    <path id="path3" fill="#030303" stroke="none" d="M 325.700989 1154.42395 C 325.429993 1147.915894 325.116028 1141.409912 324.898987 1134.901001 C 324.731995 1129.872925 321.731018 1126.764893 317.526978 1125.099976 C 312.997009 1123.305908 308.372986 1123.325928 304.309998 1126.918945 C 299.98999 1130.738892 297.856995 1135.420898 297.494995 1141.159912 C 296.73999 1153.110962 297.041016 1165.039063 297.877991 1176.964111 C 297.978027 1178.389893 298.286987 1179.830078 298.710999 1181.198975 C 299.588013 1184.031006 301.690002 1185.602051 304.229004 1185.51709 C 306.731018 1185.433105 308.635986 1183.496094 308.872009 1180.475098 C 309.039978 1178.319092 308.945007 1176.136963 308.879028 1173.968994 C 308.669006 1167.093994 308.370972 1160.221924 308.215027 1153.346924 C 308.174011 1151.573975 308.432007 1149.774902 308.731995 1148.018921 C 309.005005 1146.415894 311.744019 1146.039917 313.049011 1147.604004 C 313.622009 1148.290894 313.411987 1149.630981 313.557007 1150.67395 L 325.700989 1154.42395 Z"/>
    <path id="path4" fill="#d5e6e6" stroke="none" d="M 1008.516968 149.464966 C 986.844971 139.452026 964.006958 137.665039 940.588989 139.698975 C 934.473022 140.22998 928.317993 140.325928 922.18103 140.621948 C 921.640015 140.021973 921.421021 139.392944 921.522949 138.734985 C 921.626953 138.062012 921.759033 137.725098 921.916016 137.726074 C 922.923828 137.340088 923.995972 137.149902 925.074951 137.166016 C 929.213989 136.542969 933.645996 138.543945 937.547974 135.778076 C 945.348999 133.559082 953.365967 133.963867 961.287964 134.27002 C 973.603027 134.744873 985.869019 135.927002 997.625 140.113037 C 1004.120972 142.426025 1010.510986 144.912964 1015.866943 149.442017 C 1016.524048 150.039673 1017.241211 150.567871 1018.006958 151.017944 C 1019.936035 151.510986 1021.277954 152.797974 1022.458984 154.304932 C 1023.264038 154.387939 1023.766968 154.822021 1023.968994 155.60498 L 1024.55896 156.067993 C 1025.244385 156.539673 1025.863892 157.100586 1026.401001 157.735962 L 1026.75 158.041016 C 1027.388916 158.673096 1028.04248 159.290283 1028.709961 159.891968 L 1028.922974 160.101929 C 1028.973022 162.14502 1028.374023 163.405029 1026 162.525024 C 1023.563965 161.360962 1021.723022 159.500977 1020.051025 157.442993 C 1019.322144 156.995605 1018.657104 156.45166 1018.073975 155.825928 L 1017.739014 155.625977 C 1017.104004 154.783936 1016.406982 154.023926 1015.307983 153.797974 L 1013.464966 152.714966 C 1012.698608 152.507446 1012.029419 152.037476 1011.573975 151.386963 L 1011.182007 151.179932 C 1010.479004 150.317993 1009.703003 149.573975 1008.516968 149.464966 Z"/>
    <path id="path5" fill="#d7d8d8" stroke="none" d="M 1046.389038 181.762939 C 1054.932983 194.432983 1061.009033 208.376953 1067.197998 222.255981 C 1067.600952 223.161011 1067.45105 224.337036 1067.44104 225.38501 C 1067.437988 225.653931 1067.022949 226.079956 1066.729004 226.151001 C 1066.084961 226.30603 1065.168945 226.572021 1064.776001 226.265991 C 1063.930786 225.596069 1063.24292 224.748779 1062.760986 223.783936 C 1056.369019 210.799927 1050.027954 197.791016 1043.675049 184.787964 C 1042.862061 182.239014 1044.046997 181.481934 1046.389038 181.762939 Z"/>
    <path id="path6" fill="#d1e8e8" stroke="none" d="M 889.105957 146.622925 L 883.416992 147.264038 C 882.046997 147.645996 880.677979 148.036011 879.234009 147.99292 C 877.391968 148.116943 875.43396 147.589966 873.81604 148.964966 C 872.045044 149.530029 870.262939 149.876953 868.428955 149.255981 C 859.025024 150.738525 849.446655 150.737427 840.042969 149.25293 C 838.208984 149.928955 836.447021 149.511963 834.698975 148.896973 C 833.703979 148.244019 832.503052 147.907959 831.699951 146.954956 C 831.437988 146.116943 831.677002 145.436035 832.348999 144.890991 L 837.31604 145.411011 C 839.599976 146.131958 842.057007 145.80896 844.334961 146.567017 L 860.209961 146.573975 C 863.035034 145.307007 866.177002 146.439941 869.034058 145.410034 L 879.612061 144.31604 C 881.249023 143.958984 882.936035 143.80896 884.498047 143.136963 L 897.810059 140.890991 C 899.157959 141.540039 900.603027 141.527954 902.050049 141.514038 C 903.891968 141.547974 906.027954 140.635986 907.113037 143.091919 C 903.728027 145.254028 899.897949 144.942993 896.145996 145.067017 C 895.008057 145.543945 893.833008 145.837036 892.590942 145.813965 C 891.362061 145.796021 890.162964 145.903931 889.105957 146.622925 Z"/>
    <path id="path7" fill="#d1dcdc" stroke="none" d="M 1025.999023 162.522949 L 1028.921021 160.098999 C 1033.573975 163.403931 1037.30603 167.533936 1040.072021 172.530029 C 1040.699951 174.926025 1039.637939 175.744019 1037.364014 175.428955 L 1025.999023 162.522949 Z"/>
    <path id="path8" fill="#c7fefe" stroke="none" d="M 907.110962 143.089966 L 900.077026 142.445923 C 899.599976 142.054932 899.442017 141.66394 899.599976 141.272949 C 899.759033 140.881958 899.917969 140.687012 900.077026 140.687012 C 905.750977 138.927979 911.547974 137.914063 917.494019 137.795898 C 919.099976 137.087891 920.635986 136.911865 921.957031 138.380981 L 922.18103 140.621948 L 921.91394 140.625 C 919.093018 142.416016 915.522949 140.436035 912.744995 142.444946 L 907.110962 143.089966 Z"/>
    <path id="path9" fill="#cdd6d6" stroke="none" d="M 840.042969 149.251953 C 849.501953 149.254028 858.96106 149.256958 868.42395 149.256958 C 858.965942 151.856934 849.504028 152.172974 840.042969 149.251953 Z"/>
    <path id="path10" fill="#ccd1d1" stroke="none" d="M 1037.36499 175.428955 L 1040.072021 172.528931 C 1043.119019 174.963989 1045.121948 178.110962 1046.389038 181.762939 L 1043.675049 184.78894 C 1040.869995 182.140991 1039.015991 178.853027 1037.36499 175.428955 Z"/>
    <path id="path11" fill="#879c9c" stroke="none" d="M 621.146973 1301.308105 C 620.078979 1299.87207 621.10498 1297.228027 618.483032 1296.687988 C 618.314941 1295.178955 618.921021 1293.950928 619.86499 1292.837891 C 620.547974 1292.032959 621.18103 1291.159912 622.583984 1291.405029 C 623.45105 1294.805908 623.421997 1298.199951 621.146973 1301.308105 Z"/>
    <path id="path12" fill="#8fb9b9" stroke="none" d="M 825.609985 146.640015 C 824.069946 146.833008 822.946045 146.015991 821.996948 144.996948 C 821.255005 144.198975 821.045044 143.11499 821.712036 142.197998 C 822.046997 141.736938 822.922974 141.220947 823.359985 141.356934 C 825.957031 142.165039 828.920044 142.126953 830.927002 144.401001 C 829.796997 146.67395 827.192993 145.444946 825.609985 146.640015 Z"/>
    <path id="path13" fill="#bffefe" stroke="none" d="M 937.546997 135.778076 C 936.108032 137.519043 934.152954 138.023926 932.015015 138.06604 C 929.255005 138.119995 926.494995 138.156982 923.734985 138.202026 L 923.05603 137.432861 L 923.694946 136.630859 C 928.280029 135.815918 932.889038 135.398926 937.546997 135.778076 Z"/>
    <path id="path14" fill="#d8ffff" stroke="none" d="M 317.721985 1449.727051 L 317.572021 1446.98291 C 321.122009 1446.769043 324.671997 1446.555908 328.223999 1446.339844 C 328.236023 1447.441895 328.245972 1448.545898 328.255981 1449.650879 C 324.763977 1452.366943 321.252014 1452.36499 317.721985 1449.727051 Z"/>
    <path id="path15" fill="#cdd6d6" stroke="none" d="M 869.031982 145.407959 C 866.378052 147.97998 863.235962 146.864014 860.206055 146.572998 C 863.046021 145.397949 865.983032 144.97998 869.031982 145.407959 Z"/>
    <path id="path16" fill="#bac1c1" stroke="none" d="M 912.745972 142.444946 C 915.409058 139.855957 918.57605 139.80603 921.915039 140.625 C 919.22998 143.103027 915.978027 142.725952 912.745972 142.444946 Z"/>
    <path id="path17" fill="#effbfb" stroke="none" d="M 825.609985 146.640015 C 826.759033 144.418945 829.177002 145.207031 830.92395 144.400024 C 831.496948 144.282959 831.972046 144.445923 832.348999 144.890015 C 832.32019 145.463745 832.28479 146.037109 832.243042 146.609985 C 831.093994 148.320923 829.715942 148.11792 828.238037 147.090942 L 825.609985 146.640015 Z"/>
    <path id="path18" fill="#bac1c1" stroke="none" d="M 923.696045 136.629883 C 923.993042 137.14502 924.008057 137.668945 923.73999 138.200928 C 923.140381 138.173096 922.540039 138.233398 921.958008 138.380005 C 920.467041 138.186035 918.974976 137.991943 917.48999 137.796875 C 919.347046 136.265869 921.447021 136.052002 923.696045 136.629883 Z"/>
    <path id="path19" fill="#cdd6d6" stroke="none" d="M 828.238037 147.090942 C 829.573975 146.932983 830.910034 146.773926 832.244019 146.613037 L 834.697998 148.895996 C 832.264038 149.297974 830.067993 148.848022 828.238037 147.090942 Z M 844.333984 146.564941 C 841.879028 146.849976 839.331055 147.705933 837.307983 145.407959 C 839.777954 145.043945 842.133057 145.337036 844.333984 146.564941 Z"/>
    <path id="path20" fill="#c5d2d2" stroke="none" d="M 884.495972 143.13501 C 883.185059 144.844971 881.444946 144.780029 879.609985 144.313965 C 881.031006 143.05603 882.682007 142.755981 884.495972 143.13501 Z M 878.285034 146.97998 L 883.41394 147.264038 C 881.922974 148.55603 880.197998 148.921997 878.286011 148.541992 C 877.572021 148.195923 877.334961 147.848999 877.571045 147.500977 C 877.80603 147.155029 878.042969 146.97998 878.285034 146.97998 Z"/>
    <path id="path21" fill="#cdd6d6" stroke="none" d="M 878.285034 146.97998 C 878.26001 147.500977 878.26001 148.021973 878.286011 148.541992 L 873.81604 148.963989 C 874.885986 147.358032 876.487061 146.947021 878.285034 146.97998 Z"/>
    <path id="path22" fill="#c5d2d2" stroke="none" d="M 891.376953 144.828003 L 896.146973 145.064941 C 894.75 146.207031 893.18103 146.700928 891.383057 146.345947 L 891.376953 144.828003 Z"/>
    <path id="path23" fill="#a1d1d1" stroke="none" d="M 501.192993 1390.635986 C 500.06897 1392.38501 498.656006 1393.485107 496.428955 1392.762939 C 497.541016 1390.990967 499.131958 1390.289063 501.192993 1390.635986 Z"/>
    <path id="path24" fill="#a1d1d1" stroke="none" d="M 496.452026 1392.755127 C 496.520996 1393.424072 496.425903 1394.099854 496.175049 1394.724121 C 494.767944 1395.304932 493.557007 1395.1521 492.657959 1393.805908 C 493.581055 1393.418945 494.48999 1392.995117 495.432983 1392.666016 C 495.727051 1392.563965 496.109985 1392.718018 496.452026 1392.755127 Z"/>
    <path id="path25" fill="#cdd6d6" stroke="none" d="M 891.376953 144.828003 C 891.349976 145.333984 891.352051 145.839966 891.381958 146.345947 L 889.107056 146.622925 L 891.376953 144.828003 Z"/>
    <path id="path26" fill="#c6fefe" stroke="none" d="M 900.078003 140.686035 L 900.078003 142.447021 C 899.322998 141.927002 898.567017 141.407959 897.810059 140.889038 L 900.078003 140.686035 Z"/>
    <path id="path27" fill="#d1dcdc" stroke="none" d="M 1018.072998 155.823975 L 1020.050049 157.44104 C 1018.962036 157.427002 1018.353027 156.825928 1018.072998 155.823975 Z"/>
    <path id="path28" fill="#ccd2d2" stroke="none" d="M 1018.006958 151.016968 C 1016.899048 151.025024 1016.218994 150.452026 1015.86499 149.439941 C 1017.055054 149.320923 1017.704956 149.932983 1018.006958 151.016968 Z M 1011.572998 151.385986 C 1012.55896 151.323975 1013.197021 151.756958 1013.464966 152.714966 L 1011.572998 151.385986 Z M 1015.307007 153.796021 C 1016.551025 153.829956 1017.329956 154.480957 1017.738037 155.624023 C 1016.496948 155.588013 1015.713989 154.94104 1015.307007 153.796021 Z"/>
    <path id="path29" fill="#d1dcdc" stroke="none" d="M 1023.968018 155.604004 C 1023.204956 155.466919 1022.699951 155.031982 1022.456055 154.302002 C 1023.345947 154.291016 1023.840942 154.734009 1023.968018 155.604004 Z"/>
    <path id="path30" fill="#c6d5d5" stroke="none" d="M 743.296997 96.051025 C 743.567993 95.336914 744.082031 94.947998 744.833008 94.889893 C 744.610962 95.681885 744.102051 96.066895 743.296997 96.051025 Z"/>
    <path id="path31" fill="#d1dcdc" stroke="none" d="M 1028.708984 159.890015 L 1026.746948 158.037964 C 1027.901001 158.129028 1028.532959 158.767944 1028.708984 159.890015 Z M 1026.400024 157.734985 L 1024.55603 156.064941 C 1025.644043 156.100952 1026.213989 156.705933 1026.400024 157.734985 Z"/>
    <path id="path32" fill="#cad8d8" stroke="none" d="M 765.088989 83.051025 L 766.938965 81.854004 C 766.621948 82.723877 766.082031 83.237061 765.088989 83.051025 Z"/>
    <path id="path33" fill="#d2d6d6" stroke="none" d="M 999.253052 42.359863 C 1000.69104 42.465088 1001.817017 43.070068 1002.5 44.384033 C 1000.989014 44.396973 999.904053 43.726074 999.253052 42.359863 Z"/>
    <path id="path34" fill="#ccd2d2" stroke="none" d="M 1008.516968 149.464966 C 1009.800049 149.42395 1010.680054 150.009033 1011.182983 151.178955 C 1009.901978 151.215942 1009.040039 150.60498 1008.516968 149.464966 Z"/>
    <path id="path35" fill="#020101" stroke="none" d="M 883.071045 1085.237915 C 879.965942 1085.131958 877.479004 1081.535889 878.864014 1078.997925 C 880.064941 1076.796997 881.708008 1074.823975 883.254028 1072.825928 C 904.654053 1045.178955 928.574951 1019.825928 953.823975 995.711914 C 983.774048 967.10791 1013.630005 938.392944 1045.781006 912.206909 C 1062.121948 898.897949 1078.899048 886.174927 1096.376953 874.392944 C 1099.377686 872.366699 1102.509155 870.541382 1105.750977 868.928955 C 1108.437012 867.596924 1110.982056 868.329956 1112.579956 870.345947 C 1114.103027 872.267944 1113.812988 875.089966 1111.573975 877.168945 C 1109.70813 878.892212 1107.707153 880.462891 1105.589966 881.865967 C 1071.625977 904.463989 1040.322021 930.390991 1010.402954 958.031982 C 995.192993 972.083984 980.146973 986.315918 965.109009 1000.552979 C 939.754028 1024.557983 915.98999 1050.062988 893.574951 1076.830933 C 891.708496 1079.05188 889.786865 1081.22583 887.812012 1083.350952 C 886.52002 1084.744995 884.862061 1085.401978 883.071045 1085.237915 Z"/>
    <path id="path36" fill="#020202" stroke="none" d="M 1257.760986 1105.234009 C 1256.906006 1108.316895 1255.813965 1113.293945 1254.154053 1118.072998 C 1245.607056 1142.677979 1233.328979 1165.197021 1216.167969 1184.916992 C 1196.244995 1207.811035 1173.66394 1227.687988 1148.371948 1244.469971 C 1139.896973 1250.093018 1131.345947 1255.603027 1122.869995 1261.226074 C 1112.83606 1267.88208 1101.95105 1272.861084 1090.902954 1277.509033 C 1088.920044 1278.343018 1086.776978 1278.975098 1084.650024 1279.239014 C 1082.284058 1279.533936 1080.35498 1278.281006 1079.44397 1276.082031 C 1078.509033 1273.823975 1079.219971 1271.719971 1081.234009 1270.375977 C 1082.71106 1269.389893 1084.43103 1268.750977 1086.078003 1268.039063 C 1097.099976 1263.273926 1107.692017 1257.736084 1117.680054 1251.030029 C 1134.264038 1239.895996 1151.411011 1229.594971 1166.897949 1216.85791 C 1179.843994 1206.210938 1191.979004 1194.741943 1203.295044 1182.39209 C 1223.011963 1160.873901 1236.977051 1136.095947 1245.342041 1108.143921 C 1246.069946 1105.709961 1246.790039 1103.255005 1247.780029 1100.922974 C 1249.156982 1097.678955 1252.240967 1096.045898 1254.619995 1097.029907 C 1256.996948 1098.015991 1258.061035 1100.071899 1257.760986 1105.234009 Z"/>
    <path id="path37" fill="#040303" stroke="none" d="M 867.787964 491.421997 C 859.418945 491.11499 851.604004 489.835938 844.323975 486.234009 C 842.057983 485.113892 839.790039 483.896973 838.597046 481.455933 C 837.77002 479.762939 837.496948 478.088989 838.473022 476.297974 C 839.671997 474.0979 841.592041 473.360962 843.885986 473.513916 C 844.93103 473.583984 846.078979 473.908936 846.952026 474.471924 C 857.519043 481.289917 869.026001 480.588989 880.598999 478.544922 C 892.140991 476.505981 902.855957 472.216919 912.43396 465.378906 C 919.01001 460.684937 924.57605 455.231934 926.996948 447.049927 C 928.302979 442.63501 931.223999 440.98291 934.037964 441.803955 C 937.253052 442.741943 938.598999 446.276978 937.600952 450.86499 C 936.489014 455.975952 933.712036 460.191895 930.493042 464.140991 C 925.623047 470.112915 919.567017 474.689941 912.948975 478.544922 C 898.891968 486.731934 883.661987 490.786987 867.787964 491.421997 Z M 946.588989 251.809937 C 964.77002 251.716919 980.646973 257.698975 994.220947 269.812988 C 1002.120972 276.863037 1008.707031 285.031982 1014.588989 293.780029 C 1015.776001 295.546021 1016.625 297.615967 1017.251953 299.661011 C 1017.899048 301.768921 1016.030029 304.999023 1013.807983 305.840942 C 1011.567993 306.688965 1009.448975 306.17395 1007.963989 304.26001 C 1006.637939 302.551025 1005.626953 300.599976 1004.371948 298.830933 C 999.541992 292.020996 994.5 285.366943 988.260986 279.761963 C 970.032959 263.38501 949.223022 258.713989 925.793945 266.184937 C 925.109009 266.402954 924.458984 266.744995 923.765015 266.921021 C 920.350952 267.78894 917.344971 266.598022 916.428955 264.053955 C 915.588989 261.720947 917.176025 258.718994 920.161987 256.995972 C 925.274048 254.046021 936.828003 251.778931 946.588989 251.809937 Z"/>
    <path id="path38" fill="#050404" stroke="none" d="M 822.18396 269.26001 C 824.727051 269.26001 827.286011 269.093994 829.807983 269.327026 C 831.176025 269.453003 832.620972 270.047974 833.781006 270.811035 C 835.323975 271.825928 836.381958 273.370972 836.079956 275.385986 C 835.790039 277.322998 834.54895 278.827026 832.839966 279.428955 C 831.197998 280.006958 829.279053 280.176025 827.530029 280.010986 C 814.85498 278.812012 803.052979 282.093018 791.505005 286.78894 C 781.063965 291.035034 772.81604 297.855957 767.146973 307.661987 C 764.785034 311.747925 762.637939 315.963989 760.14502 319.964966 C 758.229004 323.040039 755.167969 323.757935 752.735962 322.124023 C 749.989014 320.277954 749.06897 317.796997 750.55896 314.564941 C 758.036987 298.343994 767.954956 284.422974 785.228027 277.151001 C 797.090942 272.156006 809.258057 268.996948 822.18396 269.26001 Z"/>
    <path id="path39" fill="#080707" stroke="none" d="M 878.85498 387.459961 C 878.68396 392.75293 877.723999 396.598022 875.942017 400.221924 C 874.66394 402.820923 873.135986 405.312012 872.030029 407.979004 C 869.282959 414.605957 870.599976 419.555908 876.266968 424.336914 C 877.636963 425.491943 879.359009 426.240967 880.68103 427.439941 C 883.322998 429.835938 882.302979 433.844971 878.96106 435.419922 C 876.35498 436.648926 873.956055 436.055908 871.647949 434.966919 C 863.890991 431.305908 857.948975 419.678955 859.667969 411.281982 C 860.241943 408.479004 861.240967 405.687012 862.509033 403.11792 C 865.233032 397.596924 868.311035 392.257935 869.359009 386.054932 C 869.524048 385.079956 870.219971 384.049927 870.958984 383.348999 C 872.369995 382.010986 874.161987 381.843994 876.016968 382.375977 C 877.593994 382.828979 878.337036 384.041016 878.661011 385.495972 C 878.891968 386.53894 878.869995 387.635986 878.85498 387.459961 Z"/>
    <path id="path40" fill="#192929" stroke="none" d="M 326.752991 1453.484863 C 326.018005 1455.820068 324.81897 1457.856934 322.947998 1459.454834 C 320.658997 1458.150879 319.776978 1455.925049 319.023987 1453.612061 C 321.530029 1449.283936 324.104004 1449.10083 326.752991 1453.484863 Z"/>
    <path id="path41" fill="#9c6969" stroke="none" d="M 326.752991 1453.484863 C 323.310974 1450.764893 322.526978 1450.779053 319.028015 1453.618896 C 317.228027 1452.774902 317.757996 1451.156006 317.721008 1449.727051 L 328.255981 1449.650879 C 328.364014 1451.166992 328.361023 1452.640869 326.752991 1453.484863 Z"/>
    <path id="path42" fill="#030303" stroke="none" d="M 826.131958 335.286987 C 818.438965 326.580933 806.136963 326.927002 798.802979 335.978027 C 791.759033 344.671997 791.421997 359.619995 798.203979 368.449951 C 802.772949 374.397949 808.944946 376.995972 816.337036 375.786987 C 823.275024 374.651978 828.036987 370.588013 830.583008 363.911987 C 831.826904 360.631104 832.416016 357.138306 832.317017 353.630981 C 832.493042 346.521973 830.656982 340.407959 826.131958 335.286987 Z M 810.36499 358.085938 C 810.19104 358.499023 809.732056 359.81604 809.097046 361.042969 C 808.233032 362.709961 805.707031 362.949951 804.623047 361.54895 C 801.772949 357.865967 801.130005 353.833984 803.016968 349.573975 C 803.379028 348.757935 804.541016 347.905029 805.411987 347.813965 C 806.300049 347.720947 807.688965 348.286987 808.152954 349.015015 C 809.69397 351.436035 810.629028 354.139038 810.36499 358.085938 Z M 817.579956 360.579956 C 817.05603 360.385986 816.391968 359.796997 816.322021 359.311035 C 816.160034 358.19397 816.805054 357.293945 817.972046 357.197998 C 819.31604 357.088013 819.479004 358.221924 819.666016 359.216919 C 819.422974 360.370972 818.744995 361.010986 817.579956 360.579956 Z"/>
    <path id="path43" fill="#040404" stroke="none" d="M 981.942993 322.997925 C 973.468994 314.964966 962.389038 315.880981 955.932007 325.526978 C 951.095947 332.751953 949.374023 340.665039 952.223999 349.234985 C 954.546997 356.220947 959.204956 360.634033 966.015015 363.406006 C 972.722046 366.135986 982.677002 363.682007 986.598022 354.427002 C 988.146973 350.768921 988.890015 346.843018 989.050049 342.369995 C 988.468994 335.577026 987.677979 328.434937 981.942993 322.997925 Z M 971.843994 346.969971 C 971.453003 348.471924 970.345947 349.579956 968.891968 349.802002 C 967.42395 350.025024 966.115967 349.239014 965.327026 347.869019 C 962.63501 343.197021 962.405029 338.238037 963.968994 333.219971 C 964.360962 331.962036 965.574951 330.656982 967.166992 330.843018 C 968.105957 330.953003 969.245972 331.619995 969.793945 332.392944 C 971.964966 335.455933 972.562012 339.011963 972.472046 343.666016 C 972.384033 344.146973 972.204956 345.582031 971.843994 346.969971 Z M 980.506958 348.23999 C 979.704956 349.61499 978.540039 350.484009 977.041992 349.572998 C 975.83606 348.839966 974.744019 347.579956 975.651001 346.026001 C 976.128052 345.208984 977.151001 344.323975 978.024048 344.212036 C 979.542969 344.016968 981.010986 346.629028 980.506958 348.23999 Z"/>
    <path id="path44" fill="#000000" stroke="none" d="M 985.238037 33.230957 L 985.235962 33.230957 L 985.244995 33.241943 L 985.238037 33.230957 Z M 755.436035 85.338867 L 755.406006 85.338867 C 755.417969 85.346924 755.430054 85.351074 755.442017 85.359863 L 755.436035 85.338867 Z"/>
    <path id="path45" fill="#000000" stroke="none" d="M 1612.573975 1386.138916 C 1612.333008 1385.191895 1611.657959 1384.169922 1610.876953 1383.583984 C 1609.0271 1382.196045 1606.774902 1382.403076 1604.587891 1382.453125 C 1577.324951 1383.079102 1550.061035 1383.63501 1522.799072 1384.318115 C 1475.910889 1385.49292 1429.025024 1386.75708 1382.136963 1387.930908 C 1379.274048 1388.00293 1376.322021 1388.561035 1373.255981 1387.146973 C 1372.373047 1382.725098 1371.241943 1378.156006 1370.595947 1373.52002 C 1369.944946 1368.851074 1369.555054 1364.120117 1369.43396 1359.406006 C 1368.873047 1337.599121 1368.698975 1315.779053 1367.918945 1293.980957 C 1366.162964 1244.917969 1362.098999 1196.012939 1357.365967 1147.157959 C 1353.932007 1111.708984 1350.378052 1076.269897 1347.271973 1040.791992 C 1344.829956 1012.901001 1341.506958 985.118896 1337.545044 957.421997 C 1333.069946 926.136963 1328.182983 894.906982 1323.088013 863.715942 C 1318.286987 834.323975 1312.738037 805.065918 1305.540039 776.142944 C 1298.501953 747.861938 1289.317017 720.396973 1275.588989 694.562988 C 1267.852051 680.001953 1258.397949 666.737915 1246.676025 655.16394 C 1218.430054 627.272949 1185.437012 607.516968 1146.735962 597.945923 C 1119.150024 591.122925 1090.874023 588.67395 1062.717041 585.570923 C 1061.332031 585.417969 1059.786011 585.651978 1058.477051 586.139893 C 1056.680054 586.810913 1055.41394 588.427979 1055.470947 590.290894 C 1055.51001 591.557007 1056.392944 593.057007 1057.358032 593.961914 C 1058.338989 594.882935 1059.833984 595.523926 1061.188965 595.731934 C 1067.287964 596.666992 1073.43103 597.307983 1079.531982 598.229004 C 1098.567993 601.104004 1117.615967 603.907959 1136.603027 607.081909 C 1141.482056 607.897949 1146.665039 608.466919 1150.755005 611.531982 C 1150.458984 613.407959 1149.157959 614.182983 1147.963013 614.960938 C 1129.697998 626.8479 1111.490967 638.826904 1093.118042 650.543945 C 1065.546021 668.128906 1036.793945 683.697998 1008.276978 699.656982 C 983.11499 713.738892 956.639038 724.415894 928.293945 730.382935 C 905.911987 735.093994 885.014038 732.484009 865.694946 719.760986 C 861.116943 716.745972 856.845947 713.397949 853.244995 709.240967 C 850.715942 706.320923 850.536987 705.328003 852.758057 702.706909 C 865.170044 688.062988 879.546021 676.204956 898.110962 669.975952 C 912.208008 665.245972 926.110962 659.937988 940.161011 655.063965 C 959.303955 648.424927 974.718994 636.893921 986.656006 620.545898 C 997.901001 605.145996 1005.887939 588.138916 1012.338989 570.283936 C 1014.543945 564.182007 1015.324951 557.586914 1018.725952 551.909912 C 1025.108032 550.542969 1031.521973 549.309937 1037.865967 547.784912 C 1057.267944 543.118896 1071.654053 539.381958 1090.720947 533.448975 C 1083.411011 524.517944 1078.047974 505.977905 1078.047974 502.837891 C 1076.300049 503.325928 1040.838013 510.87793 1022.706055 516.171997 C 1022.358032 516.273926 1022.036011 516.48291 1021.685059 516.54895 C 1020.178955 516.833008 1018.766968 516.758911 1018.188965 515.013916 C 1017.598999 513.229004 1018.875 512.208008 1020.125977 511.622925 C 1029.139038 507.406006 1034.767944 499.886963 1039.609985 491.666992 C 1042 487.609985 1044.116943 483.373901 1046.098999 479.098999 C 1052.844971 464.545898 1057.291992 449.215942 1061.228027 433.716919 C 1062.171997 429.997925 1063.266968 426.316895 1064.282959 422.653931 C 1078.276978 426.47998 1084.969971 424.464966 1093.58606 413.895996 C 1095.886597 411.083496 1097.924805 408.066284 1099.675049 404.881958 C 1101.758057 401.072021 1103.541016 397.074951 1105.160034 393.041016 C 1112.026001 375.937988 1114.672974 358.027954 1114.578979 339.723022 C 1114.535034 331.014038 1113.802979 322.276001 1111.161011 313.86792 C 1110.295654 311.09729 1109.253174 308.38501 1108.040039 305.747925 C 1106.749023 302.954956 1105.156006 300.302002 1103.417969 297.072998 C 1110.715942 294.111938 1117.062988 290.652954 1122.907959 286.327026 C 1133.935059 278.166016 1139.880981 267.891968 1138.019043 253.585938 C 1135.392944 233.405029 1131.750977 213.42395 1127.378052 193.56604 C 1124.724976 181.517944 1120.483032 169.851929 1118.655029 157.601929 C 1115.637939 137.383057 1109.42395 118.050049 1102.531006 98.890869 C 1097.875 85.948975 1090.371948 75.10791 1080.02002 66.014893 C 1065.811035 53.532959 1051.142944 41.62207 1036.296997 29.925049 C 1025.713989 21.586914 1014.446045 14.281982 1001.998047 8.966064 C 988.317993 3.123047 974.311035 1.143066 959.427979 3.790039 C 941.119995 7.046875 922.642944 8.102051 904.092041 5.057861 C 894.776978 3.530029 885.373047 2.523926 875.994995 1.408936 C 856.322021 -0.928955 837.597046 2.312012 820.074951 11.596924 C 812.703979 15.50293 805.396973 19.625977 798.484009 24.278076 C 774.050049 40.718018 748.005005 54.345947 722.178955 68.458008 C 697.374023 94.531982 675.793945 123.01709 656.077026 152.856934 C 652.081055 158.902954 648.572021 165.29895 645.215942 171.730957 C 642.530029 176.880005 640.857056 182.424927 639.715942 188.192017 C 636.630981 203.792969 640.004028 218.521973 645.272949 233.015991 C 647.130981 238.125 649.498047 243.046997 651.555054 248.087036 C 654.642944 255.652954 655.659058 263.293945 653.927979 271.515991 C 652.061035 280.37793 650.61499 289.380981 651.142944 298.557983 C 652.285034 318.424927 659.303955 335.262939 675.852051 347.307007 C 676.991943 348.135986 677.989014 349.161987 679.33606 350.346924 C 673.814941 358.312988 672.180054 367.085938 672.202026 376.294922 C 672.219971 384.324951 673.052002 392.25 675 400.052979 C 678.459961 413.908936 683.741943 426.963989 691.993042 438.706909 C 696.21106 444.709961 701.08606 450.112915 707.557983 453.726929 C 713.567993 457.081909 719.832031 458.040894 726.227051 454.518921 C 727.456055 453.841919 728.786987 453.3479 730.446045 452.599976 C 733.529053 458.225952 736.390991 463.657959 739.464966 468.966919 C 740.866943 471.388916 740.633057 473.825928 740.348022 476.356934 C 738.803955 490.074951 737.435059 503.816895 735.651978 517.503906 C 734.620972 525.417969 732.880005 533.212891 729.918945 540.711914 C 725.46106 552.001953 718.23999 560.68689 707.172974 565.971924 C 704.553955 567.2229 701.937988 568.480957 699.352051 569.79895 C 674.383057 582.526978 655.802002 600.990967 646.990967 628.203979 C 645.426025 633.037964 643.725952 637.838989 642.394043 642.737915 C 638.300049 657.793945 634.649048 672.975952 630.272949 687.947998 C 625.386963 704.66394 620.04895 721.25293 614.634033 737.807007 C 604.010986 770.279907 595.177979 803.240967 588.652954 836.753906 C 583.380005 863.833984 578.937988 891.083984 574.573975 918.329956 C 569.921997 947.37793 565.781006 976.508911 561.44397 1005.606934 C 558.016968 1028.596924 554.881958 1051.633911 551.161987 1074.575928 C 547.014038 1100.149902 545.21106 1125.802979 546.680054 1151.684937 C 546.926025 1156.026001 547.022949 1160.447998 546.5 1164.749023 C 544.18103 1183.824951 536.984009 1200.297119 521.140015 1212.315918 C 513.860962 1217.837891 506.256958 1222.687988 498.05603 1226.64502 C 480.959961 1234.89209 465.241943 1245.246094 450.442017 1257.118896 C 440.744995 1264.898926 432.52301 1274.087891 423.937988 1282.976074 C 409.375 1298.052002 405.64502 1300.595947 381.237976 1295.083008 C 380.883972 1295.00293 380.544006 1294.871094 380.19397 1294.771973 C 367.984985 1291.307129 355.745972 1287.947021 343.583984 1284.325928 C 339.127991 1283 333.421021 1283.305908 330.60498 1279.623047 C 327.81897 1275.979004 329.179993 1270.529053 328.799011 1265.864014 C 328.768982 1265.501953 328.778015 1265.136963 328.767029 1264.773926 L 325.749023 1167.762939 C 325.68103 1165.583008 325.5 1161.226929 325.5 1161.226929 L 314.007996 1158.471924 C 314.007996 1158.471924 314.508972 1167.38501 314.573975 1169.564941 C 315.560974 1202.263916 316.570007 1234.961914 317.494995 1267.663086 C 317.573975 1270.460938 318.565002 1273.438965 316.257019 1276.544922 C 304.921997 1273.505127 293.314026 1270.676025 281.888 1267.239014 C 272.76001 1264.49292 263.468018 1263.050049 254.041992 1262.427979 C 239.117981 1261.444092 227.106018 1266.896973 218.403992 1279.291992 C 211.807007 1288.687988 207.877014 1299.105957 206.107971 1310.394043 C 205.658997 1313.26001 205.273987 1316.137939 204.776978 1318.99707 C 203.643982 1325.511963 200.297974 1330.410889 194.185974 1333.231934 C 179.846008 1339.854004 173.169983 1351.904053 171.830994 1367.951904 C 167.401001 1386.699951 166.388 1390.175049 153.630981 1389.875977 C 127.830994 1389.271973 102.03302 1388.548096 76.234985 1387.901123 C 51.164001 1387.271973 26.091003 1386.679932 1.02002 1386.071045 C -0.185974 1389.558105 -0.007996 1393.151123 0.20697 1396.74707 C 1.64502 1396.927002 3.080994 1397.230957 4.521973 1397.269043 C 27.783997 1397.874023 51.046021 1398.446045 74.309021 1399.024902 C 78.669983 1399.133057 83.036011 1399.160889 87.392029 1399.375977 C 90.401978 1399.523926 91.302979 1400.633057 90.83197 1403.427979 C 90.411011 1405.933105 89.853027 1408.418945 89.265991 1410.89209 C 77.34198 1461.055908 65.405029 1511.216064 53.476013 1561.37793 C 52.719971 1564.556885 51.86499 1567.721924 51.315002 1570.937988 C 50.48999 1575.76001 52.922974 1578.533936 57.929993 1578.598877 C 59.73999 1578.62207 61.552979 1578.335938 63.364014 1578.172852 C 73.137024 1577.291992 82.913025 1576.438965 92.682007 1575.513916 C 110.773987 1573.802002 128.862 1572.062988 146.948975 1570.304932 C 166.119995 1568.440918 185.286011 1566.520996 204.45697 1564.664063 C 222.544983 1562.911865 240.640015 1561.241943 258.726013 1559.47583 C 277.534973 1557.639893 296.330994 1555.691895 315.140991 1553.869873 C 333.588989 1552.083008 352.052002 1550.429932 370.500977 1548.650879 C 398.35498 1545.966064 426.205017 1543.239014 454.053955 1540.499023 C 467.436035 1539.181885 480.801025 1537.683838 494.196045 1536.50293 C 498.817993 1536.094971 501.581055 1534.031982 502.797974 1529.618896 C 503.279053 1527.875 504.052979 1526.212891 504.645996 1524.49707 C 510.573975 1507.343018 516.490967 1490.183838 522.41394 1473.029053 C 529.758057 1451.754883 537.207031 1430.51709 544.371948 1409.183105 C 545.974976 1404.409912 548.511963 1402.341064 553.634033 1402.085938 C 572.146973 1401.166992 590.652954 1400.023926 609.129028 1398.553955 C 614.062012 1398.160889 617.525024 1399.39209 620.357056 1403.307129 C 621.624023 1405.058105 623.254028 1406.573975 624.853027 1408.052979 C 639.119019 1421.248047 654.60498 1432.27002 673.612061 1437.949951 C 690.474976 1442.98999 705.906982 1440.553955 720.469971 1431.230957 C 728.116943 1426.334961 735.667969 1421.273926 743.072021 1416.018066 C 746.72998 1413.420898 750.32605 1411.967041 754.990967 1411.86792 C 801.883057 1410.864014 848.767944 1409.594971 895.656006 1408.423096 C 954.176025 1406.960938 1012.696045 1405.52002 1071.215942 1404.068115 C 1130.098999 1402.606934 1188.982056 1401.118896 1247.86499 1399.691895 C 1297.29895 1398.493896 1346.735962 1397.416992 1396.170044 1396.196045 C 1443.785034 1395.019043 1491.397949 1393.721924 1539.010986 1392.488037 C 1560.092041 1391.941895 1581.174072 1391.440918 1602.253906 1390.875 C 1605.129883 1390.797119 1608.108887 1391.148926 1610.797119 1389.729004 C 1612.189941 1388.988037 1612.966064 1387.678955 1612.573975 1386.138916 Z M 1005.22998 558.593994 C 999.811035 573.25293 993.734009 587.618896 985.854004 601.136963 C 982.936035 606.142944 979.55603 610.899902 976.140015 615.590942 C 966.446045 628.902954 953.609009 638.121948 938.238037 643.779907 C 924.286987 648.915894 910.359985 654.162964 896.208984 658.697998 C 872.369995 666.336914 854.552002 681.756958 839.57605 701.081909 C 835.506958 706.331909 833.300049 712.488892 831.170044 719.961914 C 828.965942 718.519897 827.41394 717.609009 825.974976 716.545898 C 812.928955 706.910889 791.602051 708.130981 778.859009 725.652954 C 776.062012 729.498901 773.880005 733.659912 772.605957 738.265991 C 771.802002 741.171997 769.881958 742.203003 766.915039 741.99292 C 758.942017 741.430908 750.953979 741.0979 742.984009 740.497925 C 739.939941 740.268921 738.862061 739.042969 739.198975 736.401001 C 741.034058 721.977905 740.425049 707.387939 742.578979 692.958984 C 744.786011 678.174927 747.870972 663.701904 753.228027 649.720947 C 755.850952 642.876953 759.284058 636.514893 763.73999 630.738892 C 784.650024 603.639893 812.569946 587.224976 849.430054 585.162964 C 862.790039 572.471924 875.828003 559.80896 886.79895 545.208008 C 892.032959 538.241943 897.480957 531.42395 903.078979 524.745972 C 906.822021 520.279907 911.140991 516.349976 916.609985 513.975952 C 919.588989 512.682983 922.66394 514.212891 923.261963 517.380005 C 924.015015 521.365967 923.834961 525.362915 922.573975 529.227905 C 919.761963 537.8479 917.078003 546.518921 913.932983 555.016968 C 910.155029 565.226929 906.202026 575.368896 903.359009 585.892944 C 902.894043 587.61499 902.327026 589.441895 902.474976 591.16394 C 902.670044 593.427002 904.07605 595.187988 906.459961 595.761963 C 908.814941 596.328979 910.963989 595.651001 912.108032 593.566895 C 913.314941 591.368896 914.202026 588.938965 914.871948 586.510986 C 919.435059 569.981934 926.998047 554.675903 934.026001 539.149902 C 935.990967 534.807983 938.446045 530.790894 941.916992 527.493896 C 943.276978 526.201904 945.042969 525.563965 946.896973 526.339966 C 948.357056 526.950928 949.047974 528.407959 949.087036 529.854004 C 949.155029 532.368896 949.244019 534.971924 948.692993 537.395996 C 947.410034 543.044922 946.005005 548.692993 944.194946 554.191895 C 940.224976 566.25293 935.954956 578.214966 931.852051 590.231934 C 931.152954 592.278931 930.467041 594.368896 930.14502 596.494995 C 929.735962 599.192993 931.532959 601.696899 933.952026 602.346924 C 936.360962 602.993896 939.051025 601.816895 940.29895 599.307007 C 941.261963 597.368896 942.026978 595.315918 942.718018 593.26001 C 946.769287 581.227051 950.786377 569.182739 954.769043 557.126953 C 959.458008 542.909912 966.696045 529.903931 973.928955 516.909912 C 975.656006 513.807007 977.546021 510.380981 981.521973 509.593994 C 983.578979 509.18689 984.900024 514.416992 984.022949 520.344971 C 982.418945 531.189941 978.922974 541.497925 974.680054 551.554932 C 968.051025 567.266968 961.296021 582.927002 954.667969 598.638916 C 953.402954 601.637939 952.459961 604.773926 951.396973 607.855957 C 950.756958 609.710938 951.277954 611.458008 952.114014 613.099976 C 953.01001 614.859985 954.571045 615.697998 956.514038 615.79895 C 958.465942 615.901001 960.082031 615.263916 961.024048 613.44397 C 961.522949 612.480957 961.937012 611.470947 962.35498 610.467896 C 971.161011 589.295898 979.727051 568.020996 989.176025 547.125977 C 990.98999 538.281982 994.389038 529.888916 997.786987 521.543945 C 998.593994 519.563965 999.786987 517.68396 1001.089966 515.977905 C 1002.69397 513.87793 1006.041016 514.557007 1007.463013 516.947998 C 1009.214966 519.895996 1009.482056 523.165894 1009.582031 526.410889 C 1009.920044 537.370972 1009.079956 548.179932 1005.22998 558.593994 Z M 811.910034 749.888916 C 812.156006 752.251953 810.202026 754.623901 807.644043 755.067993 C 804.68396 755.581909 802.027954 753.753906 801.439941 750.797974 C 800.954956 748.359009 802.802979 746.128906 805.594971 745.784912 C 808.83606 745.385986 811.630005 747.201904 811.910034 749.888916 Z M 1093.865967 390.959961 C 1091.249023 397.366943 1088.04895 403.466919 1083.295044 408.606934 C 1081.305054 410.76001 1079.124023 412.609009 1076.087036 413.188965 C 1071.593018 414.046997 1067.011963 410.475952 1067.470947 405.976929 C 1067.985962 400.932983 1069.03894 395.942993 1069.859009 390.929932 C 1073.963989 365.820923 1076.251953 340.512939 1077.803955 315.142944 C 1078.135986 309.721924 1080.715942 306.369995 1084.991943 303.843018 C 1088.526001 301.754028 1091.895996 302.438965 1094.703003 305.645996 C 1097.64502 309.006958 1099.113037 313.096924 1100.370972 317.281982 C 1102.912964 325.738037 1103.129028 334.448975 1103.177002 339.096924 C 1103.128052 359.697998 1100.118042 375.655029 1093.865967 390.959961 Z M 1042.082031 81.250977 C 1042.39502 80.783936 1043.303955 80.336914 1043.829956 80.449951 C 1047.244019 81.186035 1049.776001 83.112061 1051.689941 85.811035 C 1052.208984 86.541992 1052.574951 87.300049 1053.353027 87.744873 C 1053.734985 87.963867 1054.035034 88.265869 1054.249023 88.649902 C 1054.760986 89.569092 1055.734009 90.291992 1056.525024 90.987061 C 1063.847046 97.427002 1069.678955 105.071045 1074.29895 113.691895 C 1082.844971 125.015869 1088.770996 137.789063 1094.340942 150.697998 C 1103.243042 171.328003 1110.029053 192.582031 1112.616943 215.057983 C 1113.996948 227.044922 1113.682983 238.910034 1111.083008 250.631958 C 1109.682983 256.94397 1107.748047 263.286987 1101.218994 266.598022 C 1100.620972 266.928955 1100.01001 267.119019 1099.384033 267.139038 L 1096.583984 267.557007 C 1095.396973 267.884033 1094.25 267.75 1093.04895 267.29895 C 1092.531982 267.103882 1092.268433 266.529053 1092.458008 266.01001 C 1092.665039 265.442993 1093.063965 265.026001 1093.828979 264.947021 C 1095.196045 264.80603 1096.338989 264.601929 1097.713013 264.520996 C 1097.907959 264.393921 1098.187988 264.304932 1098.360962 264.131958 C 1103.535034 260.099976 1105.68103 254.506958 1106.944946 248.283936 C 1110.109985 232.692017 1108.98999 217.179932 1105.812988 201.828003 C 1100.265015 175.020996 1090.417969 149.787964 1076.795044 126.032959 C 1075.003052 122.908936 1073.397949 119.677979 1071.707031 116.496094 L 1052.345947 92.052979 L 1052.345947 92.052002 L 1052.344971 92.052979 L 1052.323975 92.031006 C 1051.057007 90.736084 1049.630981 89.614014 1048.124023 88.608887 C 1045.843018 87.087891 1043.821045 85.24707 1042.036011 83.145996 C 1041.714966 82.76709 1041.774048 81.709961 1042.082031 81.250977 Z M 851.087036 37.584961 C 853.213989 35.861084 854.661011 34.577881 857.360962 33.678955 C 857.584961 33.494873 857.866943 33.439941 858.176025 33.248047 C 871.030029 27.321045 884.307983 24.806885 898.357056 28.105957 C 906.120972 29.928955 913.915039 31.61792 921.696045 33.36792 C 930.303955 34.62793 938.916016 34.549072 947.530029 33.427002 C 950.069946 32.827881 952.613037 32.291992 955.234009 32.920898 C 955.84436 32.682129 956.471802 32.489502 957.110962 32.344971 C 965.652954 29.893066 974.296021 29.885986 983.015015 31.811035 L 982.963989 32.070068 L 984.985962 32.730957 L 984.881958 32.750977 C 987.439941 32.427002 989.819946 32.069092 991.448975 34.621094 L 991.775024 34.781006 C 992.571045 35.239014 992.848999 35.106934 993.911987 35.792969 C 994.83606 35.738037 995.724976 36.459961 996.743042 36.921875 C 1000.583008 37.609863 1003.727051 39.656006 1006.703979 42.030029 L 1006.703003 42.031982 L 1006.706055 42.030029 C 1013.699951 45.076904 1019.26001 50.031006 1024.416992 55.48291 C 1025.587036 56.719971 1027.116943 58.274902 1025.269043 60 C 1023.969971 61.211914 1022.537964 60.200928 1021.592041 59.211914 C 1015.88501 53.241943 1008.887939 48.927979 1002.342041 44.034912 L 1002.342041 44.033936 L 1002.339966 44.033936 L 1002.133057 43.905029 C 1001.303955 42.822998 1000.317017 41.99707 998.885986 41.880859 C 996.79895 42.165039 995.331055 41.063965 993.984985 39.689941 C 984.532959 36.095947 974.744019 34.684082 964.66394 35.1521 L 961.045044 35.519043 C 958.281006 37.11499 954.912964 35.279053 952.18396 37.077881 L 944.037964 37.702881 C 937.689941 38.924072 931.343018 38.804932 924.996948 37.685059 C 918.741943 38.471924 913.029053 35.729004 907.021973 34.887939 C 904.906006 34.592041 902.853027 33.848877 900.772949 33.302002 C 889.345947 30.293945 878.052002 30.812012 866.85498 34.499023 C 865.51001 34.941895 864.061035 35.062988 862.659058 35.333984 C 862.547974 35.388916 862.437988 35.439941 862.328003 35.490967 L 861.206055 36.197998 C 858.113037 37.939941 856.834961 39.293945 853.744995 41.036865 C 852.358032 41.819092 851.040039 41.903076 850.203003 40.335938 C 849.623047 39.24707 850.23999 38.271973 851.087036 37.584961 Z M 682.000977 262.897949 C 681.765991 265.669922 681.777954 268.501953 680.730957 271.078979 C 680.108032 272.611938 679.218994 277.541992 679.146973 277.484985 C 678.942993 286.764038 677.588013 296.093018 680.438965 305.244995 C 680.589966 305.72998 680.069946 306.734009 679.577026 307.044922 C 678.60498 307.657959 677.473022 307.424927 676.845947 306.405029 C 676.099976 305.192993 675.253052 303.919922 674.970947 302.564941 C 672.734985 291.799927 672.737061 281.12793 676.728027 270.692993 C 676.86499 266.208984 678.04895 261.954956 679.557007 257.771973 C 679.655029 257.634033 679.911987 253.438965 680.501953 251.546997 C 680.593994 250.449951 680.80896 249.363037 681.274048 248.296997 C 681.337036 234.182007 681.097046 220.057983 681.529053 205.953979 C 682.365967 178.671021 689.723999 153.187012 703.751953 129.709961 C 704.848022 127.875977 723.253052 107.61499 723.254028 107.61499 L 724.963989 104.89209 C 727.485962 100.931885 731.134033 98.293945 735.178955 96.12207 L 735.609985 95.960938 C 736.717041 95.671875 737.514038 94.958008 738.135986 94.004883 L 738.19104 93.970947 C 738.935303 93.36084 739.700439 92.776367 740.484985 92.218994 C 740.639038 91.606934 741.012939 91.409912 741.605957 91.625977 C 742.578735 91.381348 743.556641 91.157715 744.53894 90.955078 C 744.546997 90.905029 744.545044 90.854004 744.55896 90.803955 C 744.703979 90.293945 744.852051 90.038086 745.005981 90.038086 C 746.869019 87.963867 750.477051 85.927979 751.472046 85.340088 C 752.838989 84.435059 753.904053 83.960938 756.026001 83.225098 L 756.338013 83.086914 C 756.901001 82.7771 757.527954 82.465088 758.222046 82.052002 C 758.812866 81.753174 759.4198 81.487549 760.040039 81.255859 C 760.936279 80.79541 761.799683 80.273438 762.624023 79.694092 C 763.172974 79.383057 763.608032 79.278076 764.225952 79.031006 C 765.338989 78.798096 766.131958 78.02002 767.022949 77.406982 C 767.552979 77.103027 767.733032 77.147949 768.400024 76.841064 C 769.650024 76.696045 770.499023 75.852051 771.411987 75.118896 C 773.192993 74.177979 775.128052 73.383057 776.666992 72.548096 C 777.947998 72.093018 779.128052 71.671875 779.948975 70.557861 L 780.071045 70.484863 C 779.952026 70.342041 797.901978 58.598877 807.026001 52.983887 C 807.442993 52.728027 808.422974 53.093018 808.985962 53.428955 C 810.18103 54.143066 809.968994 55.428955 809.277954 56.150879 C 807.562012 57.946045 805.790039 59.795898 803.718994 61.124023 C 797.415039 65.168945 784.353027 72.366943 784.459961 72.548096 C 781.775024 74.625977 778.957031 76.456055 775.630981 77.333008 C 775.438232 77.384033 775.254639 77.465088 775.087036 77.572998 C 774.819946 77.743896 774.624023 77.85498 774.337036 78.039063 L 771.237061 79.601074 C 770.512939 79.86792 769.98999 80.111084 769.412964 80.5979 C 768.584961 80.971924 767.859009 81.427002 767.03894 81.809082 L 766.828979 81.924072 C 766.33606 82.23999 765.844971 82.557861 765.35498 82.876953 L 763.344971 83.85791 C 762.418945 84.166992 761.613037 84.661865 760.876953 85.265869 L 760.995972 85.343994 L 760.774048 85.343994 C 760.737061 85.375 760.694946 85.398926 760.659058 85.430908 C 760.314941 85.937012 759.873047 86.211914 759.333008 86.253906 C 758.922974 86.285889 758.53894 86.458008 758.22998 86.728027 C 755.154053 89.421875 751.51001 91.167969 747.807983 92.823975 L 747.241943 92.718018 C 746.625 93.72998 745.640015 94.212891 744.462036 94.417969 C 744.057983 94.942871 743.547974 95.327881 742.932983 95.573975 C 737.791016 99.511963 727.473999 108.265869 727.875977 107.865967 C 727.473999 108.265869 727.227051 108.557861 726.939941 109.011963 C 726.31897 109.994873 725.284058 110.625977 724.61499 111.575928 C 723.791016 112.748047 722.641968 113.62207 721.370972 114.384033 C 721.615967 113.856934 714.360962 123.362061 710.281006 127.493896 C 703.996948 138.897949 697.766968 150.286011 693.890015 162.850952 C 689.046997 178.546997 686.047974 194.471924 686.061035 210.928955 C 686.062988 213.455933 685.840942 215.981934 685.722046 218.509033 C 685.519043 219.436035 685.839966 241.036011 686.031006 241.861938 C 685.453003 242.684937 686.18396 250.865967 684.328003 254.528931 C 684.329956 254.113037 684.212036 260.292969 682.000977 262.897949 Z M 781.98999 201.244995 C 780.031982 205.646973 777.30603 209.463989 773.482056 212.445923 C 772.204956 214.165039 771.084961 216.031006 769.626953 217.578979 C 754.542969 233.594971 739.243042 249.400024 723.20105 264.468018 C 721.675049 266.460938 720.213989 268.509033 718.610962 270.438965 C 707.17395 284.216919 699.338989 299.338013 700.712036 317.942017 C 700.737061 318.281006 700.644043 318.728027 700.430054 318.964966 C 699.991943 319.447998 699.470947 320.085938 698.912964 320.166016 C 698.333008 320.249023 697.317993 319.922974 697.098022 319.478027 C 695.437988 316.111938 695.363037 312.51001 695.781982 308.853027 C 696.911987 298.991943 699.999023 289.750977 705.03894 281.244019 C 709.276001 274.091919 713.918945 267.184937 720.522949 261.890015 C 721.875 260.226929 723.10498 258.447998 724.594971 256.919922 C 740 241.125977 755.447998 225.371948 770.883057 209.606934 C 773.202026 205.437012 776.120972 201.723022 779.456055 198.325928 L 780.464966 196.512939 C 780.732422 195.735229 781.205078 195.044189 781.833008 194.512939 C 784.676025 187.996948 788.313965 181.793945 789.446045 174.598022 C 789.550049 173.938965 791.06897 173.031006 791.884033 173.075928 C 792.850952 173.130005 793.386963 174.26001 793.296997 175.453979 C 792.621948 184.317993 788.776001 191.870972 783.657959 198.903931 C 783.123047 199.634033 782.592041 200.36499 782.062012 201.098999 L 781.98999 201.244995 Z M 722.098999 443.303955 C 720.192017 445.526978 717.714966 445.976929 715.218018 444.80896 C 712.95105 443.747925 710.68103 442.430908 708.859985 440.74292 C 706.218018 438.294922 703.665039 435.630005 701.620972 432.679932 C 690.189941 416.177002 684.276978 397.802979 683.457031 377.781982 C 683.411987 371.91394 683.68103 366.125977 686.358032 360.765015 C 688.593018 356.290039 691.630981 355.240967 696.157959 357.208984 C 700.29895 359.009033 702.956055 361.188965 703.682007 366.53894 C 706.56604 387.776001 712.297974 408.349976 720.171997 428.305908 C 721.366943 431.336914 722.465942 434.406006 723.682007 437.427979 C 724.646973 439.823975 723.555054 441.606934 722.098999 443.303955 Z M 712.775024 348.366943 C 711.927979 338.985962 712.224976 329.484009 712.322021 320.041016 C 712.410034 311.439941 715.305054 303.595947 720.383057 296.718018 C 725.072998 290.365967 730.828979 284.708984 736.355957 279.265015 C 762.474976 258.255005 782.192017 232.264038 796.386963 202.36499 C 800.026978 194.698975 804.031006 191.968994 812.619995 191.994995 C 826.055054 192.035034 839.137939 188.168945 852.052979 184.412964 C 871.55603 178.73999 890.972046 172.754028 910.550049 167.348999 C 924.215942 163.577026 938.114014 160.516968 952.462036 161.630981 C 980.876953 163.835938 1006.213989 173.009033 1026.411987 194.151001 C 1034.473022 202.588989 1041.838013 211.38501 1048.171997 221.265015 C 1059.942017 239.624023 1064.505981 259.829956 1065.634033 281.158936 C 1065.71106 282.609985 1065.599976 284.078003 1065.758057 285.517944 C 1068.311035 308.812988 1066.366943 331.93103 1063.390015 355.054932 C 1060.095947 380.643921 1056.475952 406.160034 1050.192017 431.221924 C 1046.302002 446.73291 1041.670044 462.000977 1034.911011 476.544922 C 1031.994995 482.81897 1028.672974 488.863892 1024.228027 494.210938 C 1020.124023 499.148926 1015.291016 502.988892 1008.416016 502.203003 C 1003.078003 501.591919 999.66394 504.958008 995.172974 508.296997 C 993.980957 506.13501 993.446045 504.74292 992.561035 503.630005 C 987.215942 496.898926 980.359009 495.807007 973.426025 500.544922 C 969.755981 503.052979 967.062988 506.477905 964.75 510.213989 C 962.875 513.24292 961.06897 516.314941 959.229004 519.375 C 948.936035 512.795898 948.286987 512.809937 935.354004 519.741943 C 934.984009 517.898926 934.699951 516.122925 934.266968 514.383911 C 931.634033 503.817993 920.597046 498.66394 910.11499 504.534912 C 906.660034 506.469971 903.291016 508.785889 900.436035 511.507935 C 896.243042 515.505005 892.343994 519.85791 888.682983 524.35498 C 882.722046 531.677979 877.031006 539.220947 871.274048 546.708984 C 869.38501 549.165894 867.119019 550.257935 863.902954 550.445923 C 852.777954 551.095947 842.203979 548.941895 831.985962 544.799927 C 818.719971 539.422974 807 531.547974 796.266968 522.154907 C 775.494995 503.975952 759.438965 482.125 746.317017 457.98291 C 727.69104 423.717896 716.281982 387.213989 712.775024 348.366943 Z M 733.748047 557.476929 C 742.027954 545.543945 745.269043 531.794922 746.942993 517.640991 C 747.921997 509.362915 748.397949 501.026001 749.156982 492.719971 C 749.277954 491.403931 748.796021 489.839966 750.303955 488.886963 C 753.094971 488.769897 753.618042 491.336914 754.780029 492.928955 C 762.496948 503.496948 770.845947 513.513916 780.177002 522.694946 C 790.827026 533.17395 802.489014 542.338989 815.609985 549.552002 C 827.688965 556.190918 840.53894 560.570923 854.031982 561.783936 C 854.719971 564.190918 853.454956 565.040894 852.355957 565.953003 C 846.077026 571.168945 838.73999 574.462891 830.887939 575.980957 C 804.723999 581.037964 782.735962 593.429932 764.38501 612.571899 C 763.401001 613.5979 762.209961 614.425903 760.447021 615.906982 C 760.625 610.725952 757.597046 608.383911 754.390015 605.860962 C 742.868042 596.795898 735.963989 584.674927 731.785034 570.793945 C 730.327026 565.949951 730.755005 561.789917 733.748047 557.476929 Z M 571.613037 1014.601929 C 572.536011 1008.131958 573.621948 1001.684937 574.578979 995.218994 C 578.194946 970.793945 581.541992 946.326904 585.45105 921.948975 C 589.817993 894.711914 594.218018 867.463989 599.457031 840.385986 C 605.942017 806.875977 614.728027 773.91394 625.319946 741.441895 C 630.607056 725.23291 635.780029 708.977905 640.569946 692.615967 C 645.052979 677.303955 648.915039 661.810913 653.150024 646.42395 C 654.400024 641.880981 656.052979 637.449951 657.410034 632.93396 C 664.777954 608.418945 681.270996 591.911987 703.463013 580.414917 C 708.917969 577.588989 714.444946 574.901001 719.93103 572.154907 C 722.112061 573.404907 722.287964 575.678955 722.922974 577.736938 C 727.072021 591.187988 733.779053 603.026978 744.527954 612.392944 C 748.338013 615.712891 752.109009 618.892944 757.728027 618.235962 C 757.332031 619.521973 757.29895 620.339966 756.890015 620.860962 C 741.281006 640.712891 735.498047 664.192993 731.847046 688.466919 C 730.168945 699.623901 729.287964 710.831909 729.485962 722.123901 C 729.665039 732.340942 727.876953 742.203979 725.430054 752.165894 C 720.063965 774.007935 715.31604 796.019897 710.967041 818.089966 C 705.489014 845.886963 697.870972 873.164917 691.723999 900.790894 C 683.053955 939.758911 674.755005 978.80896 666.302979 1017.824951 C 665.381958 1022.074951 664.493042 1026.331909 663.508057 1030.967896 C 662.203979 1030.839966 661.771973 1030.921997 661.494995 1030.751953 C 645.177002 1020.73291 627.109985 1017.633911 608.343018 1017.238892 C 597.083008 1017.001953 585.822998 1016.398926 574.592041 1017.894897 C 572.321045 1018.199951 571.270996 1017.001953 571.613037 1014.601929 Z M 532.218994 1410.419922 C 519.590942 1446.74585 506.868042 1483.039063 494.499023 1519.452881 C 492.918945 1524.106934 490.63501 1525.513916 486.037964 1525.912842 C 464.688965 1527.768066 443.369995 1529.977051 422.04303 1532.083008 C 403.606995 1533.904053 385.179016 1535.784912 366.741028 1537.591064 C 348.664978 1539.362061 330.58197 1541.054932 312.504028 1542.814941 C 292.982971 1544.714844 273.466003 1546.668945 253.942993 1548.567871 C 236.22699 1550.291992 218.505005 1551.956055 200.789001 1553.677979 C 180.905029 1555.61084 161.028015 1557.605957 141.143005 1559.523926 C 122.703003 1561.302979 104.255005 1563.011963 85.812012 1564.76001 C 78.991028 1565.406006 72.169983 1566.078857 65.745972 1566.701904 C 63.796021 1564.452881 64.934021 1562.795898 65.317017 1561.177002 C 77.320984 1510.315918 89.341003 1459.458008 101.359009 1408.599121 C 101.442017 1408.245117 101.499023 1407.88501 101.588013 1407.532959 C 103.484985 1400.018066 103.486023 1399.989014 110.91803 1400.158936 C 124.344971 1400.466064 137.77002 1400.811035 151.02002 1401.135986 C 152.994019 1403.489014 151.322998 1405.416016 150.789978 1407.273926 C 148.984009 1413.558105 147.125977 1419.773926 147.057007 1426.430908 C 146.978027 1434.031982 150.085022 1439.805908 156.369995 1443.800049 C 159.098022 1445.532959 162.083008 1447.066895 165.158997 1448.013916 C 186.643005 1454.625977 208.132996 1461.237061 229.737 1467.441895 C 235.968994 1469.23291 242.562988 1469.837891 249.026978 1470.724854 C 256.015991 1471.683838 262.278992 1469.9729 266.012024 1463.583984 C 270.143982 1456.512939 270.296021 1449.022949 266.124023 1441.802002 C 264.724976 1439.38208 262.744019 1437.297119 260.403992 1434.245117 C 263.851013 1433.283936 266.606018 1433.75293 269.276978 1433.874023 C 272.174988 1434.005127 275.075012 1434.271973 277.952026 1434.6521 C 280.468018 1434.984131 282.945984 1435.596924 285.453979 1436.010986 C 300.107971 1438.432129 302.315979 1438.280029 315.84198 1433.837891 L 317.20697 1446.500977 C 317.77002 1447.141846 318.299072 1447.811768 318.791992 1448.508057 C 319.578979 1449.966064 320.049011 1451.572998 320.861023 1452.98999 C 322.255005 1454.624023 323.322021 1453.810059 324.310974 1452.48584 C 325.171021 1451.051025 325.747009 1449.489014 326.638977 1448.095947 C 327.140991 1447.398926 327.544983 1446.651855 327.862 1445.855957 C 327.745972 1437.863037 327.562988 1429.868896 327.546997 1421.875977 C 327.539978 1418.396973 328.478027 1417.333984 332.002014 1417.083008 C 346.497009 1416.045898 361.004028 1415.174072 375.502991 1414.187012 C 403.775024 1412.262939 432.044006 1410.273926 460.317017 1408.36792 C 476.630005 1407.268066 492.95105 1406.298096 509.265015 1405.230957 C 517.199951 1404.711914 525.128052 1404.105957 532.915039 1403.550049 C 533.766968 1406.359131 532.932007 1408.36792 532.218994 1410.419922 Z M 306.604004 1407.549072 C 304.031006 1407.544922 301.687012 1407.134033 299.296997 1406.012939 C 282.94397 1398.339111 265.895996 1392.384033 249.096008 1385.809082 C 245.755005 1384.501953 242.572021 1382.755127 239.421021 1381.02002 C 237.874023 1380.167969 238.46698 1377.695068 240.096008 1376.664063 C 242.359009 1375.231934 244.820984 1374.704102 247.356995 1375.001953 C 268.557007 1377.499023 289.997009 1376.240967 311.174011 1379.106934 C 313.778992 1379.459961 315.077026 1380.60498 315.085999 1383.197021 C 315.098022 1386.812988 315.088989 1390.428955 315.088989 1394.044922 L 315.338013 1394.044922 C 315.338013 1395.490967 315.325012 1396.937988 315.340027 1398.384033 C 315.434998 1407.433105 315.273987 1407.562988 306.604004 1407.549072 Z M 620.781982 1300.829102 C 618.776001 1317.75 616.796021 1334.675049 614.753052 1351.592041 C 613.619019 1360.98291 613.541016 1370.399902 613.689941 1379.837891 C 613.796021 1386.602051 613.003052 1387.453125 606.550049 1387.811035 C 596.776001 1388.353027 586.98999 1388.688965 577.222046 1389.319092 C 552.25 1390.930908 527.286011 1392.669922 502.31604 1394.314941 C 500.156982 1394.457031 497.977051 1394.276123 495.80603 1394.245117 C 495.28894 1393.725098 495.160034 1393.26001 495.41394 1392.850098 C 495.644043 1392.479004 495.862061 1392.291016 496.067993 1392.281006 C 497.402954 1391.01001 499.432983 1391.298096 500.827026 1390.157959 C 514.567017 1383.691895 527.73999 1376.156982 541.125 1369.012939 C 573.494019 1351.739014 599.953979 1328.410889 618.116943 1296.208984 C 622.322021 1295.836914 621.5 1298.363037 620.781982 1300.829102 Z M 592.452026 1313.909912 C 578.509033 1330.99707 561.504028 1344.51709 542.358032 1355.38208 C 530.992798 1361.82959 519.619141 1368.262451 508.237061 1374.679932 C 495.88501 1381.645996 482.883057 1387.228027 469.791016 1392.600098 C 460.29895 1396.495117 450.387939 1398.230957 440.098999 1398.717041 C 421.953003 1399.572998 403.833984 1401.01709 385.703003 1402.197998 C 367.932983 1403.354004 350.166016 1404.548096 332.390015 1405.593994 C 326.862 1405.918945 326.947998 1405.14209 326.609985 1398.200928 C 326.682007 1393.051025 326.781982 1387.9021 326.874023 1382.751953 C 331.14502 1379.541992 335.942017 1382.281982 340.437988 1381.565918 C 341.507019 1381.395996 342.622986 1381.52002 343.700012 1381.37793 C 354.038025 1380.02002 359.320984 1371.204102 355.44397 1361.420898 C 354.252991 1358.416016 352.247986 1355.73999 350.710022 1352.863037 C 349.541992 1350.678955 347.239014 1349.071045 347.283997 1346.23999 C 348.242981 1343.841064 350.919983 1344.26001 352.607971 1342.99707 C 357.210022 1339.555908 358.911987 1335.030029 357.736023 1329.60498 C 356.049988 1321.833984 352.166992 1315.464111 344.892029 1311.584961 C 331.880981 1304.647949 318.015015 1300.717041 303.302979 1299.849121 C 301.526978 1299.743896 299.684998 1300.029053 297.934021 1300.409912 C 295.999023 1300.831055 294.888977 1302.240967 294.63501 1304.218994 C 294.351013 1306.433105 295.788025 1308.833984 297.862976 1309.220947 C 302.138 1310.019043 306.437988 1310.707031 310.747009 1311.309082 C 320.226013 1312.633057 328.919983 1316.228027 337.408997 1320.412109 C 339.025024 1321.208984 340.625977 1322.156006 341.992004 1323.318115 C 345.039978 1325.909912 347.239014 1331.333984 345.815979 1332.750977 C 343.575012 1334.984131 340.51001 1335.090088 337.63501 1334.818115 C 332.578979 1334.339111 327.377014 1334.109131 322.560974 1332.680908 C 314.146973 1330.187012 305.575012 1328.937012 296.950989 1327.679932 C 289.052002 1326.528076 281.215027 1324.944092 273.343018 1323.596924 C 271.940979 1323.356934 270.396973 1322.964111 269.099976 1323.313965 C 266.939026 1323.896973 265.26001 1325.329102 264.906982 1327.797119 C 264.624023 1329.768066 265.304016 1331.505127 266.828003 1332.603027 C 269.210022 1334.321045 272.015991 1335.100098 274.91803 1335.623047 C 286.705994 1337.749023 298.466003 1340.033936 310.267029 1342.085938 C 315.297974 1342.960938 320.107971 1344.356934 324.934021 1346.043945 C 333.755981 1349.12793 339.567017 1355.155029 343.76001 1363.169922 C 346.437012 1368.285889 345.182007 1370.373047 339.077026 1370.322998 C 335.450989 1370.292969 331.788025 1370.125 328.208984 1369.578125 C 302.635986 1365.672119 276.724976 1366.362061 251.059021 1363.800049 C 244.575989 1363.153076 238.88501 1365.039063 233.528015 1368.336914 C 231.982605 1369.286133 230.581909 1370.452637 229.369019 1371.801025 C 225.294006 1376.37207 225.276001 1381.851074 229.245972 1386.585938 C 232.109985 1390.00293 235.867004 1392.308105 239.846985 1394.080078 C 245.473999 1396.584961 251.221008 1398.8479 257.010986 1400.954102 C 269.27301 1405.413086 281.187012 1410.818115 293.817017 1414.293945 C 296.921997 1415.148926 299.846985 1416.781006 302.728027 1418.297119 C 305.684998 1419.853027 307.372986 1422.511963 306.627014 1424.157959 C 305.572021 1426.48999 303.333008 1426.812988 301.129028 1426.859131 C 298.590027 1426.910889 296.013977 1427.005127 293.512024 1426.662109 C 276.60199 1424.340088 259.705994 1421.906982 242.807007 1419.509033 C 231.663025 1417.927002 220.528992 1416.278076 209.367981 1414.831055 C 207.671997 1414.611084 205.79303 1415.135986 204.109985 1415.668945 C 202.211975 1416.27002 201.30603 1417.937012 201.198975 1419.860107 C 201.09198 1421.779053 201.796021 1423.75293 203.544983 1424.422119 C 206.567993 1425.579102 209.757019 1426.601074 212.955017 1426.947021 C 225.48999 1428.302979 236.614014 1433.726074 247.83197 1438.811035 C 250.731995 1440.125977 253.372986 1442.343018 255.659973 1444.62085 C 260.969971 1449.908936 259.565979 1455.635986 252.61499 1457.974854 C 249.835022 1458.909912 247.041992 1459.450928 244.059021 1458.755859 C 237.351013 1457.193848 230.495972 1456.159912 223.906006 1454.218994 C 206.507996 1449.096924 189.192017 1443.691895 171.893982 1438.237061 C 154.955994 1432.89502 156.737976 1430.041992 162.54303 1405.457031 C 174.276001 1396.22998 181.130981 1384.856934 182.424988 1370.673096 C 182.719971 1367.438965 183.593018 1364.241943 184.377991 1361.072021 C 186.218994 1353.643066 190.353027 1347.930908 197.242004 1344.35791 C 199.174988 1343.355957 201.166992 1342.437012 202.987 1341.256104 C 211.960999 1335.433105 215.64801 1326.583984 216.750977 1316.425049 C 217.663025 1308.031006 219.64502 1299.971924 223.612 1292.5 C 225.140747 1289.61499 226.897644 1286.856934 228.866028 1284.251953 C 234 1277.479004 240.789001 1273.9021 249.429993 1273.830078 C 258.95697 1273.75 268.247009 1275.13208 277.400024 1277.668945 C 312.359009 1287.359131 347.315002 1297.055908 382.284973 1306.705078 C 390.401978 1308.945068 398.526978 1310.314941 406.999023 1308.062988 C 412.026001 1306.727051 416.528015 1304.75 420.578003 1301.51001 C 426.276978 1296.949951 431.424988 1291.843018 436.249023 1286.386963 C 452.564941 1267.932129 472.012939 1253.486084 493.557007 1241.749023 C 498.016968 1239.319092 502.662964 1237.229004 507.090942 1234.746094 C 512.152954 1231.906982 517.246948 1229.066895 522.010986 1225.77002 C 542.114014 1211.855957 552.344971 1192.217041 555.220947 1168.24292 C 556.91394 1154.133911 557.530029 1139.994995 557.416992 1125.813965 C 557.292969 1110.109985 559.852051 1094.682983 562.024048 1079.219971 C 564.045044 1064.835938 566.313965 1050.486938 568.501953 1036.126953 C 569.571045 1029.109009 569.980957 1028.662964 577.647949 1028.18396 C 592.93396 1027.22998 608.154053 1028.354004 623.368042 1029.785889 C 630.296021 1030.437988 636.983032 1031.938965 643.442017 1034.486938 C 645.465942 1035.285889 647.51001 1036.069946 649.437988 1037.069946 C 660.753052 1042.937988 661.30603 1044.06897 658.958984 1056.415894 C 654.755981 1078.529907 650.561035 1100.645996 646.295044 1122.747925 C 642.573975 1142.028931 640.678955 1161.563965 637.996948 1180.98999 C 635.613037 1198.258057 634.014038 1215.727051 630.187988 1232.682129 C 623.496948 1262.331055 611.901978 1290.072998 592.452026 1313.909912 Z M 741.083984 1403.454102 C 732.272949 1409.852051 723.276001 1416.02002 714.104004 1421.884033 C 702.505981 1429.299072 690.18103 1431.256104 676.649048 1427.061035 C 657.31897 1421.068115 641.975952 1409.218994 627.567017 1395.711914 C 625.551025 1393.822021 625.062988 1391.633057 625.019043 1388.914063 C 624.803955 1375.466064 624.803955 1362.091064 626.624023 1348.675049 C 631.458984 1313.047119 635.630981 1277.329102 640.392944 1241.689941 C 643.277954 1220.096924 646.824951 1198.593018 649.974976 1177.034912 C 652.599976 1159.070923 654.379028 1140.953003 657.755981 1123.13501 C 667.152954 1073.564941 676.067993 1023.897949 686.921021 974.609009 C 695.896973 933.849976 705.338013 893.205933 714.948975 852.590942 C 722.131958 822.236938 728.978027 791.75293 734.214966 760.960938 C 734.694946 758.137939 735.030029 755.226929 737.133057 752.130005 L 769.916016 753.398926 C 771.119019 758.029907 771.892944 761.953979 773.165039 765.708984 C 775.942017 773.903931 780.984009 780.514893 788.473999 784.886963 C 799.824951 791.513916 811.233032 791.113892 822.583008 784.537964 C 825.313965 782.954956 827.267944 780.020996 830.280029 779.494995 C 831.932983 780.410889 831.605957 781.540894 831.536987 782.5 C 829.817017 806.417969 828.05896 830.333008 826.329956 854.25 C 825.412964 866.93396 824.536987 879.621948 823.649048 892.307983 C 820.833984 932.539917 817.98999 972.769897 815.219971 1013.005005 C 813.42395 1039.104004 811.744019 1065.211914 809.999023 1091.314941 C 809.223999 1102.915894 808.30603 1114.508911 807.67395 1126.11792 C 807.407959 1130.994995 809.134033 1133.324951 812.936035 1134.446899 C 815.130981 1135.093994 817.208008 1134.899902 819.151978 1133.570923 C 821.25 1132.136963 823.426025 1130.817993 825.511963 1129.36792 C 838.963013 1120.015991 853.694946 1112.885986 867.942993 1104.919922 C 873.313965 1101.916992 872.141968 1103.825928 883.416992 1114.110962 C 903.796021 1138.205933 925.796021 1160.914917 945.155029 1185.87793 C 953.387939 1196.495117 961.239014 1207.408936 969.196045 1218.239014 C 970.686035 1220.268066 971.849976 1222.535889 973.69397 1225.561035 C 968.005005 1230.380127 963.087036 1234.670898 958.035034 1238.799072 C 948.19104 1246.842041 938.152954 1254.654053 928.410034 1262.818115 C 912.790039 1275.906982 895.985962 1287.410889 879.390991 1299.145996 C 862.160034 1311.331055 845.765991 1324.541992 829.305054 1337.676025 C 818.792969 1346.062988 808.18103 1354.274902 797.277954 1362.149902 C 778.43396 1375.761963 759.894043 1389.793945 741.083984 1403.454102 Z M 1352.420044 1388.453125 C 1289.248047 1391.253906 774.543945 1403.50708 763.912964 1402.476074 C 763.073975 1400.447998 765.061035 1400.023926 765.990967 1399.337891 C 783.248047 1386.618896 800.720947 1374.187988 817.827026 1361.27002 C 830.295044 1351.85498 842.428955 1341.984131 854.473022 1332.0271 C 871.305054 1318.112061 889.53894 1306.120117 907.103027 1293.212891 C 919.704956 1283.950928 932.088013 1274.461914 944.067017 1264.403076 C 955.694946 1254.639893 967.70105 1245.326904 979.858032 1235.561035 C 986.769043 1244.916992 992.009033 1254.839111 997.024048 1264.868896 C 999.780029 1270.38208 1002.092041 1276.118896 1004.595947 1281.758057 C 1005.332031 1283.415039 1005.916992 1285.153076 1006.786011 1286.735107 C 1008.129028 1289.182129 1011.040039 1290.260986 1013.270996 1289.330078 C 1015.569946 1288.370117 1017.510986 1285.51709 1016.857056 1283.23999 C 1015.859985 1279.769043 1014.55603 1276.36792 1013.154053 1273.032959 C 1003.243042 1249.459961 989.694946 1227.950928 975.188965 1207.034912 C 960.880981 1186.404053 944.998047 1166.989014 928.370972 1148.189941 C 913.44397 1131.31189 898.391968 1114.544922 883.454956 1097.674927 C 877.095947 1090.49292 872.578003 1089.381958 863.292969 1094.514893 C 850.910034 1101.359985 838.203979 1107.68689 826.612061 1115.908936 C 824.619019 1117.322998 822.802002 1119.312988 820.052979 1119.079956 C 818.79895 1116.800903 819.520996 1114.649902 819.662964 1112.569946 C 821.698975 1082.833984 823.749023 1053.099976 825.868042 1023.369995 C 828.427002 987.476929 831.110962 951.591919 833.631958 915.696899 C 835.465942 889.589966 837.097046 863.467896 838.869019 837.356934 C 840.394043 814.875 842.060059 792.402954 843.524048 769.917969 C 844.302979 757.955933 844.779053 745.973999 845.402954 734.000977 C 845.642944 729.387939 845.744019 724.743896 847.577026 720.461914 C 850.873047 720.700928 852.213989 723.171997 854.123047 724.703003 C 863.897949 732.542969 874.953979 737.962891 886.779053 741.750977 C 897.395996 745.152954 908.394043 744.542969 919.225952 743.109985 C 942.786011 739.991943 965.251953 732.934937 986.803955 723.011963 C 995.369995 719.067993 1003.890991 714.959961 1012.134033 710.387939 C 1042.300049 693.659912 1072.552002 677.06189 1101.692993 658.573975 C 1120.093018 646.899902 1138.207031 634.776001 1156.45105 622.85498 C 1158.276001 621.662964 1160.281006 620.680908 1161.902954 619.26001 C 1165.089966 616.469971 1168.437988 616.609985 1171.989014 618.177979 C 1176.63501 620.22998 1181.415039 622.042969 1185.868042 624.454956 C 1223.564941 644.869995 1254.113037 672.162964 1271.936035 712.266968 C 1282.759033 736.618896 1290.688965 761.817993 1296.712036 787.665894 C 1303.802002 818.095947 1309.543945 848.802979 1314.319946 879.677002 C 1319.374023 912.345947 1324.42395 945.020996 1328.870972 977.776001 C 1334.354004 1018.153931 1336.869019 1058.955933 1342.384033 1099.241943 C 1345.353027 1148.939941 1351.213989 1198.335938 1354.280029 1248.022949 C 1356.790039 1288.694092 1356.248047 1329.437988 1358.439941 1370.101074 C 1358.746948 1375.794922 1358.192017 1381.540039 1359.189941 1386.836914 C 1356.821045 1388.862061 1354.546997 1388.359131 1352.420044 1388.453125 Z"/>
</svg>
