<?xml version="1.0" encoding="UTF-8"?>
<!-- Generated by Pixelmator Pro 3.6.1 -->
<svg width="260" height="200" viewBox="0 0 260 200" xmlns="http://www.w3.org/2000/svg">
    <path id="Path" fill="#7fe6e0" stroke="#212121" stroke-width="4.6875" stroke-linecap="round" stroke-linejoin="round" d="M 165.306717 3.129379 L 15.306767 26.813446 C 8.471686 27.892487 3.4375 33.78421 3.4375 40.703903 L 3.4375 164.625 C 3.4375 172.391708 9.733517 178.6875 17.5 178.6875 L 33.90625 178.6875 L 78.4375 178.6875 L 181.5625 178.6875 L 181.5625 17.019379 C 181.5625 8.378433 173.842194 1.781723 165.306717 3.129379 Z M 218.102966 70.875 L 181.5625 70.875 L 181.5625 178.6875 L 190.9375 178.6875 L 233.125 178.6875 L 237.8125 178.6875 C 248.167648 178.6875 256.5625 170.292648 256.5625 159.9375 L 256.5625 120.831551 C 256.5625 117.287338 255.557983 113.815788 253.665619 110.819061 L 233.956085 79.612495 C 230.52063 74.173119 224.53656 70.875 218.102966 70.875 Z"/>
    <path id="path1" fill="#ca9fc1" stroke="#212121" stroke-width="4.6875" stroke-linecap="round" stroke-linejoin="round" d="M 120.96109 80.054054 C 130.037491 79.124527 136.03656 70.176559 133.449997 61.426865 C 130.863434 52.67717 120.96344 48.42984 112.840469 52.584366 L 110.6036 50.459534 C 114.336723 42.134064 109.587341 32.465164 100.716713 30.330475 C 91.845619 28.195313 83.217339 34.645309 82.753746 43.757813 L 78.122963 46.434372 L 77.796722 45.825943 C 73.714844 38.225143 63.39484 36.839523 57.452969 43.094543 C 51.491405 49.36969 53.43906 59.642334 61.283592 63.300018 L 61.768753 63.525925 L 59.344376 68.399063 C 50.267971 69.329071 44.268906 78.276573 46.855469 87.02626 C 49.442028 95.775948 59.342033 100.023277 67.465004 95.868752 L 69.701874 97.993599 C 65.96875 106.319069 70.718132 115.988434 79.588745 118.123131 C 88.459839 120.257813 97.088127 113.807816 97.55172 104.695778 L 102.118286 101.899681 L 102.363441 102.356247 C 106.517029 110.09063 117.017967 111.500633 123.064369 105.135925 C 129.006256 98.881409 127.246094 88.668739 119.552963 84.764053 L 118.313599 84.135002 L 120.96109 80.054054 Z"/>
    <path id="path2" fill="#27adca" stroke="#212121" stroke-width="4.6875" stroke-linecap="round" stroke-linejoin="round" d="M 216.71875 120.09375 L 216.71875 70.875 L 218.102966 70.875 C 224.53656 70.875 230.52063 74.173119 233.956085 79.612495 L 253.665619 110.819061 C 255.557983 113.815788 256.5625 117.287338 256.5625 120.831551 L 256.5625 129.46875 L 226.09375 129.46875 C 220.915939 129.46875 216.71875 125.271561 216.71875 120.09375 Z"/>
    <path id="path3" fill="#27adca" stroke="#212121" stroke-width="4.6875" stroke-linecap="round" stroke-linejoin="round" d="M 233.125 176.34375 C 233.125 187.993515 223.681015 197.4375 212.03125 197.4375 C 200.381485 197.4375 190.9375 187.993515 190.9375 176.34375 C 190.9375 164.693985 200.381485 155.25 212.03125 155.25 C 223.681015 155.25 233.125 164.693985 233.125 176.34375 Z"/>
    <path id="path4" fill="#27adca" stroke="#212121" stroke-width="4.6875" stroke-linecap="round" stroke-linejoin="round" d="M 78.4375 176.34375 C 78.4375 187.993515 68.993507 197.4375 57.34375 197.4375 C 45.693996 197.4375 36.25 187.993515 36.25 176.34375 C 36.25 164.693985 45.693996 155.25 57.34375 155.25 C 68.993507 155.25 78.4375 164.693985 78.4375 176.34375 Z"/>
    <path id="path5" fill="#7fe6e0" stroke="#212121" stroke-width="4.6875" stroke-linecap="round" stroke-linejoin="round" d="M 223.75 176.34375 C 223.75 182.815826 218.503326 188.0625 212.03125 188.0625 C 205.559174 188.0625 200.3125 182.815826 200.3125 176.34375 C 200.3125 169.871674 205.559174 164.625 212.03125 164.625 C 218.503326 164.625 223.75 169.871674 223.75 176.34375 Z"/>
    <path id="path6" fill="#efb443" stroke="#212121" stroke-width="4.6875" stroke-linecap="round" stroke-linejoin="round" d="M 112.142029 65.151093 C 114.390625 61.572189 113.890465 56.71312 110.460152 53.560776 C 107.51828 50.857498 103.391403 50.298737 100.016411 51.678757 C 96.625938 53.065308 95.259529 56.90062 94.197815 60.406403 L 92.923752 64.611099 L 93.475937 58.462967 C 93.703751 55.922806 93.902504 53.229858 92.610161 51.031403 C 90.46328 47.378906 85.914536 45.351105 81.472183 46.584839 C 76.983437 47.831253 74.327034 51.930466 74.701096 56.140793 C 74.91906 58.590469 76.549377 60.614059 78.112183 62.513443 L 82.272346 67.569366 L 73.462654 62.251877 C 68.666412 59.356415 62.439526 61.95845 61.128437 67.405319 C 59.83984 72.760307 64.039841 77.858437 69.542496 77.618896 L 79.501556 77.18531 L 74.753128 79.058441 C 72.066719 80.118286 69.193748 81.313583 67.839531 83.864525 C 65.975311 87.376877 66.592659 91.902657 69.846718 94.893288 C 72.788124 97.596558 76.915474 98.154854 80.290001 96.774841 C 83.680466 95.388748 85.046875 91.552971 86.109062 88.04718 L 87.38266 83.842979 L 86.83094 89.990623 C 86.603127 92.530777 86.4039 95.223755 87.696716 97.422646 C 89.843597 101.074692 94.392342 103.102974 98.834213 101.869209 C 103.323441 100.622345 105.979378 96.523125 105.605309 92.313286 C 105.38781 89.863594 103.7575 87.839546 102.194687 85.940628 L 98.034531 80.884682 L 106.979691 86.284218 C 111.708908 89.138908 117.848595 86.573433 119.14093 81.202972 C 120.433281 75.832512 116.132973 70.754532 110.62281 71.145004 L 100.200623 71.883759 L 106.205307 69.274216 C 108.460938 68.294067 110.833748 67.233734 112.142029 65.151093 Z"/>
    <path id="path7" fill="#7fe6e0" stroke="#212121" stroke-width="4.6875" stroke-linecap="round" stroke-linejoin="round" d="M 69.0625 176.34375 C 69.0625 182.815826 63.815842 188.0625 57.34375 188.0625 C 50.871666 188.0625 45.625 182.815826 45.625 176.34375 C 45.625 169.871674 50.871666 164.625 57.34375 164.625 C 63.815842 164.625 69.0625 169.871674 69.0625 176.34375 Z"/>
    <path id="path8" fill="#cb6b82" stroke="#212121" stroke-width="4.6875" stroke-linecap="round" stroke-linejoin="round" d="M 97.397949 75.969284 C 96.43486 79.971283 92.409866 82.434799 88.407883 81.471725 C 84.405884 80.508636 81.94236 76.483643 82.905441 72.481644 C 83.868523 68.479645 87.893509 66.016129 91.895508 66.979218 C 95.897499 67.942291 98.361031 71.967285 97.397949 75.969284 Z"/>
    <path id="path9" fill="none" stroke="#212121" stroke-width="4.6875" stroke-linecap="round" stroke-linejoin="round" d="M 71.947655 70.235168 L 77.382813 71.543442 M 102.745941 77.647507 L 108.181099 78.955315 M 84.781097 56.725311 L 86.365936 62.086395 M 93.762344 87.10453 L 95.347191 92.465637 M 102.899216 61.085617 L 99.048912 65.138428 M 81.079842 84.052498 L 77.22953 88.105316 M 99.229378 102.252197 C 102.606712 116.062965 106.14859 151.513596 118.493126 167.416412"/>
    <path id="path10" fill="#6ccba8" stroke="#212121" stroke-width="4.6875" stroke-linecap="round" stroke-linejoin="round" d="M 108.290779 141.667511 C 105.767029 128.877655 117.290779 120.698448 140.439529 113.177818 C 145.84375 123.922493 134.983276 143.782043 108.290779 141.667511 Z"/>
    <path id="path11" fill="none" stroke="#212121" stroke-width="4.6875" stroke-linecap="round" stroke-linejoin="round" d="M 108.622185 143.345627 C 110.202347 141.6689 112.584999 134.372803 125.202812 130.51828"/>
</svg>
