<?xml version="1.0" encoding="UTF-8"?>
<!-- Generated by Pixelmator Pro 3.5.7 -->
<svg width="1000" height="1430" viewBox="0 0 1000 1430" xmlns="http://www.w3.org/2000/svg">
    <path id="Path" fill="#6b6ba5" stroke="none" d="M 998.206299 722.149963 C 998.206299 710.084351 988.340759 700.476501 976.457397 700.476501 L 947.757874 700.476501 C 936.322876 590.768799 840.582947 504.968689 727.130066 510.331238 C 716.143494 399.506226 622.197327 312.588989 508.295929 312.588989 C 396.860992 312.588989 305.82959 393.473511 290.80719 500.72345 C 270.403595 498.042236 249.775787 498.489014 230.044815 501.617188 L 105.381157 16.310913 C 102.466377 4.692139 90.582954 -2.234375 78.923775 0.670288 C 67.264572 3.574951 60.313908 15.417114 63.22871 27.035889 L 187.89238 512.789063 C 109.641258 542.506226 55.605389 616.240662 51.569508 700.476501 L 23.542601 700.476501 C 11.659199 700.476501 1.793716 710.084351 1.793716 722.149963 C 1.793716 986.699951 210.986557 1203.657837 473.094147 1217.734375 L 473.094147 1386.653198 L 352.690582 1386.653198 C 340.582947 1386.653198 330.941681 1396.260986 330.941681 1408.326538 C 330.941681 1420.392212 340.582947 1430 352.690582 1430 L 647.533691 1430 C 659.417053 1430 669.282471 1420.392212 669.282471 1408.326538 C 669.282471 1396.260986 659.417053 1386.653198 647.533691 1386.653198 L 516.59198 1386.653198 L 516.59198 1217.957764 C 783.632324 1209.243774 998.206299 990.275024 998.206299 722.149963 Z M 709.865479 555.465637 C 719.058289 553.901611 728.251099 553.231323 737.219788 553.231323 C 823.542603 553.231323 893.27356 617.804749 904.035889 700.476501 L 568.38562 700.476501 C 569.05835 695.337585 570.403564 690.645325 571.524658 685.729736 C 572.197327 681.931274 572.869934 677.909363 573.991028 674.334412 C 575.336365 669.642212 577.354248 665.396851 579.147949 660.928162 C 580.717468 656.906311 582.062805 652.884399 583.856567 649.085938 C 585.650208 645.064148 588.340759 641.489014 590.583008 637.690674 C 592.825073 633.668762 594.843018 629.646912 597.533569 625.848511 C 600 622.273376 602.914795 619.368774 605.605347 616.017151 C 608.520203 612.4422 611.210754 608.420288 614.573975 605.068787 C 617.488831 602.164063 621.076294 599.482849 624.215271 596.578125 C 627.57843 593.449951 630.941711 590.09845 634.753296 587.417236 C 638.340759 584.512512 642.600891 582.278076 646.412537 579.820313 C 650.224243 577.585876 653.587402 574.904663 657.623291 572.893738 C 662.780212 569.989136 668.38562 567.978088 673.990967 565.743713 C 676.905823 564.626587 679.596375 563.0625 682.735474 562.168762 C 691.479858 559.264038 700.448425 557.029724 709.641235 555.465637 C 709.641235 555.465637 709.641235 555.465637 709.865479 555.465637 Z M 508.295929 355.935913 C 600.448425 355.935913 676.233215 426.765564 684.080688 516.587585 C 682.735474 516.810852 681.614319 517.257874 680.493286 517.481262 C 675.560608 518.821899 670.85199 520.162476 666.143494 521.726501 C 663.901367 522.6203 661.883423 523.514099 659.865479 524.184326 C 656.053772 525.525024 652.46637 527.08905 648.878906 528.653137 C 646.63678 529.546875 644.394592 530.664063 642.152466 531.78125 C 639.013489 533.345398 635.650208 534.909424 632.51123 536.696899 C 630.269104 537.814026 628.25116 539.154602 626.008972 540.495361 C 622.869934 542.282837 619.955139 544.070251 617.040405 546.081299 C 615.022461 547.421875 612.780212 548.985901 610.762329 550.549988 C 608.071716 552.560913 605.381165 554.571838 602.690613 556.582825 C 600.672668 558.370239 598.654724 559.934326 596.63678 561.721863 C 593.946167 563.956177 591.479858 566.190613 589.237671 568.425049 C 587.219727 570.212524 585.426025 571.999939 583.408081 574.010986 C 581.165894 576.245361 578.923767 578.703186 576.68158 581.161011 C 574.887878 583.171814 573.31842 585.182861 571.524658 587.193726 C 569.506714 589.875061 567.48877 592.332886 565.470825 595.013977 C 563.901306 597.248413 562.331787 599.259338 560.762329 601.493713 C 558.968628 604.175049 557.174866 607.079651 555.381165 609.984375 C 554.035889 612.218811 552.46637 614.453125 551.121033 616.687439 C 549.551575 619.592163 547.982056 622.496887 546.412537 625.625 C 545.291504 627.859314 544.17041 630.317139 543.049316 632.551514 C 541.479797 635.679688 540.358704 638.8078 539.013489 641.935913 C 537.892334 644.393738 536.995544 646.851563 536.098694 649.309326 C 534.9776 652.660889 533.856445 656.012512 532.735413 659.364136 C 532.062805 661.82196 531.390198 664.279663 530.717468 666.737488 C 529.596436 670.3125 528.923767 673.887512 528.251099 677.462463 C 527.578491 679.920349 527.130005 682.154663 526.68158 684.612488 C 526.008972 688.634338 525.336365 692.879761 524.887878 697.125 C 524.887878 698.242188 524.663635 699.359375 524.439453 700.476501 L 476.233185 700.476501 C 476.233185 698.018677 476.008972 695.560852 476.008972 693.326538 C 475.78476 691.315674 475.560547 689.528137 475.336304 687.517212 C 474.887878 683.718689 474.439484 679.920349 473.766815 675.898438 C 473.318359 673.664124 472.869965 671.653076 472.421539 669.418701 C 471.748871 666.067139 471.076202 662.492249 470.179382 659.140625 C 469.730927 656.906311 469.058319 654.671875 468.385651 652.214111 C 467.48877 649.085938 466.591919 645.957825 465.470825 642.829712 C 464.574005 640.595276 463.677124 638.360901 463.004486 635.903076 C 461.65921 632.998474 460.538116 629.870361 459.417053 626.965576 C 458.295959 624.731201 457.399109 622.496887 456.278015 620.262573 C 454.932739 617.357727 453.587463 614.676636 452.017944 611.77179 C 450.896851 609.537476 449.775787 607.526611 448.430511 605.515564 C 446.860962 602.610962 445.291473 599.929626 443.497742 597.248413 C 442.152466 595.237488 440.80719 593.226563 439.461853 591.215576 C 437.668152 588.534363 435.87442 585.853149 433.856476 583.395325 C 432.5112 581.384399 430.941711 579.596924 429.596436 577.585876 C 427.578491 575.128052 425.336334 572.670227 423.31839 570.435913 C 421.748871 568.648438 420.179382 566.861023 418.385651 565.073486 C 416.143494 562.615662 413.901337 560.381287 411.434967 558.146851 C 409.865448 556.582825 408.071747 554.795349 406.502228 553.231323 C 404.035858 550.996887 401.345306 548.985901 398.878906 546.974976 C 397.085205 545.41095 395.291473 543.846863 393.497772 542.506226 C 390.807159 540.495361 387.892365 538.484314 385.201782 536.696899 C 383.183868 535.356201 381.390106 534.015686 379.596405 532.674988 C 376.68161 530.887573 373.542603 529.100037 370.627808 527.312439 C 368.609863 526.195313 366.816132 525.078125 364.798187 523.960938 C 361.65918 522.39679 358.295959 520.832764 354.932739 519.268677 C 352.914795 518.375 351.121094 517.257874 349.103149 516.587585 C 345.291473 514.800049 341.031372 513.235962 336.995514 511.671936 C 335.650238 511.224915 334.529175 510.778137 333.183838 510.331238 C 343.721985 422.520325 417.713013 355.935913 508.295929 355.935913 Z M 219.95517 547.868774 C 246.636795 540.495361 276.905823 540.271912 304.932709 546.974976 L 304.932709 547.198364 L 305.605377 547.198364 C 313.901367 549.4328 321.973083 552.114014 329.820618 555.465637 C 330.269073 555.689148 330.941681 555.912415 331.614349 556.135925 C 339.013458 559.264038 346.188324 563.285889 353.139038 567.531311 C 354.035858 567.978088 354.708527 568.425049 355.605377 568.871826 C 362.107635 573.117249 368.38562 577.809387 374.439453 582.948425 C 375.112122 583.618835 376.008942 584.289124 376.905823 585.182861 C 382.51123 590.321838 387.892365 595.684387 392.825104 601.717224 C 393.721985 602.610962 394.394653 603.28125 395.067261 604.175049 C 400.000031 610.207764 404.260071 616.46405 408.295959 622.943665 C 408.968628 624.060974 409.641235 624.954712 410.313904 626.071899 C 414.125549 632.551514 417.48877 639.47821 420.403595 646.628174 C 420.85199 647.745239 421.300446 648.862549 421.748871 649.979675 C 424.439453 657.1297 426.905823 664.503052 428.699554 672.100037 C 428.923767 673.217102 429.14798 674.334412 429.372192 675.451538 C 430.941711 683.271912 432.062775 691.092224 432.735413 699.135986 L 432.735413 700.476501 L 94.843056 700.476501 C 99.327354 628.529602 149.327362 566.637512 219.95517 547.868774 Z M 500 1175.057861 C 256.502228 1175.057861 57.174889 983.571899 45.964127 743.823486 L 954.035889 743.823486 C 942.825134 983.571899 743.497742 1175.057861 500 1175.057861 Z"/>
    <path id="path1" fill="#e6edf6" stroke="none" visibility="hidden" d="M 954.035889 743.823486 C 942.825134 983.571899 743.497742 1175.057861 500 1175.057861 C 256.502228 1175.057861 57.174889 983.571899 45.964127 743.823486 L 954.035889 743.823486 Z"/>
    <path id="path2" fill="#c8d5e4" stroke="none" visibility="hidden" d="M 954.035889 743.823486 C 942.825134 983.571899 743.497742 1175.057861 500 1175.057861 C 645.291443 1175.057861 764.125549 983.571899 770.852051 743.823486 L 954.035889 743.823486 Z M 500 1175.057861 C 256.502228 1175.057861 57.174889 983.571899 45.964127 743.823486 L 229.14798 743.823486 C 235.87442 983.571899 354.708527 1175.057861 500 1175.057861 Z"/>
    <path id="path3" fill="#ffdc7c" stroke="none" visibility="hidden" d="M 432.735413 699.135986 L 432.735413 700.476501 L 94.843056 700.476501 C 99.327354 628.529602 149.327362 566.637512 219.95517 547.868774 C 246.636795 540.495361 276.905823 540.271912 304.932709 546.974976 L 304.932709 547.198364 L 305.605377 547.198364 C 313.901367 549.4328 321.973083 552.114014 329.820618 555.465637 C 330.269073 555.689148 330.941681 555.912415 331.614349 556.135925 C 339.013458 559.264038 346.188324 563.285889 353.139038 567.531311 C 354.035858 567.978088 354.708527 568.425049 355.605377 568.871826 C 362.107635 573.117249 368.38562 577.809387 374.439453 582.948425 C 375.112122 583.618835 376.008942 584.289124 376.905823 585.182861 C 382.51123 590.321838 387.892365 595.684387 392.825104 601.717224 C 393.721985 602.610962 394.394653 603.28125 395.067261 604.175049 C 400.000031 610.207764 404.260071 616.46405 408.295959 622.943665 C 408.968628 624.060974 409.641235 624.954712 410.313904 626.071899 C 414.125549 632.551514 417.48877 639.47821 420.403595 646.628174 C 420.85199 647.745239 421.300446 648.862549 421.748871 649.979675 C 424.439453 657.1297 426.905823 664.503052 428.699554 672.100037 C 428.923767 673.217102 429.14798 674.334412 429.372192 675.451538 C 430.941711 683.271912 432.062775 691.092224 432.735413 699.135986 Z"/>
    <path id="path4" fill="#f9e2dc" stroke="none" visibility="hidden" d="M 904.035889 700.476501 L 568.38562 700.476501 C 569.05835 695.337585 570.403564 690.645325 571.524658 685.729736 C 572.197327 681.931274 572.869934 677.909363 573.991028 674.334412 C 575.336365 669.642212 577.354248 665.396851 579.147949 660.928162 C 580.717468 656.906311 582.062805 652.884399 583.856567 649.085938 C 585.650208 645.064148 588.340759 641.489014 590.583008 637.690674 C 592.825073 633.668762 594.843018 629.646912 597.533569 625.848511 C 600 622.273376 602.914795 619.368774 605.605347 616.017151 C 608.520203 612.4422 611.210754 608.420288 614.573975 605.068787 C 617.488831 602.164063 621.076294 599.482849 624.215271 596.578125 C 627.57843 593.449951 630.941711 590.09845 634.753296 587.417236 C 638.340759 584.512512 642.600891 582.278076 646.412537 579.820313 C 650.224243 577.585876 653.587402 574.904663 657.623291 572.893738 C 662.780212 569.989136 668.38562 567.978088 673.990967 565.743713 C 676.905823 564.626587 679.596375 563.0625 682.735474 562.168762 C 691.479858 559.264038 700.448425 557.029724 709.641235 555.465637 C 709.641235 555.465637 709.641235 555.465637 709.865479 555.465637 C 719.058289 553.901611 728.251099 553.231323 737.219788 553.231323 C 823.542603 553.231323 893.27356 617.804749 904.035889 700.476501 Z"/>
    <path id="path5" fill="#b1f1a8" stroke="none" visibility="hidden" d="M 684.080688 516.587585 C 682.735474 516.810852 681.614319 517.257874 680.493286 517.481262 C 675.560608 518.821899 670.85199 520.162476 666.143494 521.726501 C 663.901367 522.6203 661.883423 523.514099 659.865479 524.184326 C 656.053772 525.525024 652.46637 527.08905 648.878906 528.653137 C 646.63678 529.546875 644.394592 530.664063 642.152466 531.78125 C 639.013489 533.345398 635.650208 534.909424 632.51123 536.696899 C 630.269104 537.814026 628.25116 539.154602 626.008972 540.495361 C 622.869934 542.282837 619.955139 544.070251 617.040405 546.081299 C 615.022461 547.421875 612.780212 548.985901 610.762329 550.549988 C 608.071716 552.560913 605.381165 554.571838 602.690613 556.582825 C 600.672668 558.370239 598.654724 559.934326 596.63678 561.721863 C 593.946167 563.956177 591.479858 566.190613 589.237671 568.425049 C 587.219727 570.212524 585.426025 571.999939 583.408081 574.010986 C 581.165894 576.245361 578.923767 578.703186 576.68158 581.161011 C 574.887878 583.171814 573.31842 585.182861 571.524658 587.193726 C 569.506714 589.875061 567.48877 592.332886 565.470825 595.013977 C 563.901306 597.248413 562.331787 599.259338 560.762329 601.493713 C 558.968628 604.175049 557.174866 607.079651 555.381165 609.984375 C 554.035889 612.218811 552.46637 614.453125 551.121033 616.687439 C 549.551575 619.592163 547.982056 622.496887 546.412537 625.625 C 545.291504 627.859314 544.17041 630.317139 543.049316 632.551514 C 541.479797 635.679688 540.358704 638.8078 539.013489 641.935913 C 537.892334 644.393738 536.995544 646.851563 536.098694 649.309326 C 534.9776 652.660889 533.856445 656.012512 532.735413 659.364136 C 532.062805 661.82196 531.390198 664.279663 530.717468 666.737488 C 529.596436 670.3125 528.923767 673.887512 528.251099 677.462463 C 527.578491 679.920349 527.130005 682.154663 526.68158 684.612488 C 526.008972 688.634338 525.336365 692.879761 524.887878 697.125 C 524.887878 698.242188 524.663635 699.359375 524.439453 700.476501 L 476.233185 700.476501 C 476.233185 698.018677 476.008972 695.560852 476.008972 693.326538 C 475.78476 691.315674 475.560547 689.528137 475.336304 687.517212 C 474.887878 683.718689 474.439484 679.920349 473.766815 675.898438 C 473.318359 673.664124 472.869965 671.653076 472.421539 669.418701 C 471.748871 666.067139 471.076202 662.492249 470.179382 659.140625 C 469.730927 656.906311 469.058319 654.671875 468.385651 652.214111 C 467.48877 649.085938 466.591919 645.957825 465.470825 642.829712 C 464.574005 640.595276 463.677124 638.360901 463.004486 635.903076 C 461.65921 632.998474 460.538116 629.870361 459.417053 626.965576 C 458.295959 624.731201 457.399109 622.496887 456.278015 620.262573 C 454.932739 617.357727 453.587463 614.676636 452.017944 611.77179 C 450.896851 609.537476 449.775787 607.526611 448.430511 605.515564 C 446.860962 602.610962 445.291473 599.929626 443.497742 597.248413 C 442.152466 595.237488 440.80719 593.226563 439.461853 591.215576 C 437.668152 588.534363 435.87442 585.853149 433.856476 583.395325 C 432.5112 581.384399 430.941711 579.596924 429.596436 577.585876 C 427.578491 575.128052 425.336334 572.670227 423.31839 570.435913 C 421.748871 568.648438 420.179382 566.861023 418.385651 565.073486 C 416.143494 562.615662 413.901337 560.381287 411.434967 558.146851 C 409.865448 556.582825 408.071747 554.795349 406.502228 553.231323 C 404.035858 550.996887 401.345306 548.985901 398.878906 546.974976 C 397.085205 545.41095 395.291473 543.846863 393.497772 542.506226 C 390.807159 540.495361 387.892365 538.484314 385.201782 536.696899 C 383.183868 535.356201 381.390106 534.015686 379.596405 532.674988 C 376.68161 530.887573 373.542603 529.100037 370.627808 527.312439 C 368.609863 526.195313 366.816132 525.078125 364.798187 523.960938 C 361.65918 522.39679 358.295959 520.832764 354.932739 519.268677 C 352.914795 518.375 351.121094 517.257874 349.103149 516.587585 C 345.291473 514.800049 341.031372 513.235962 336.995514 511.671936 C 335.650238 511.224915 334.529175 510.778137 333.183838 510.331238 C 343.721985 422.520325 417.713013 355.935913 508.295929 355.935913 C 600.448425 355.935913 676.233215 426.765564 684.080688 516.587585 Z"/>
    <path id="path6" fill="#ecc25d" stroke="none" visibility="hidden" d="M 432.735413 699.135986 L 432.735413 700.476501 L 422.421539 700.476501 L 422.421539 700.253113 C 421.748871 699.135986 421.300446 698.018677 421.076233 696.901611 C 418.161438 689.751648 414.574005 682.824951 410.762329 676.345337 C 410.089691 675.228149 409.417023 674.334412 408.744415 673.217102 C 404.708527 666.737488 400.448425 660.481201 395.739929 654.448486 C 394.843048 653.554688 394.394653 652.884399 393.273529 651.990662 C 388.34082 645.957825 383.183868 640.595276 377.578491 635.456299 C 376.457397 634.562561 375.560547 633.892273 375.112122 633.221863 C 368.834076 628.082825 362.556061 623.390686 356.053802 619.145264 C 355.381134 618.698486 354.484314 618.251526 353.811646 617.804749 C 346.860992 613.559326 339.686096 609.537476 332.062775 606.409363 C 331.614349 606.185852 330.717499 605.962585 330.269073 605.739075 C 322.421509 602.387451 314.573975 599.706238 306.278046 597.471802 L 305.381165 597.471802 L 305.381165 597.248413 C 277.354248 590.545349 247.309402 590.768799 220.627823 598.142212 C 167.040344 612.4422 125.336319 651.320374 106.278015 700.476501 L 94.843056 700.476501 C 99.327354 628.529602 149.327362 566.637512 219.95517 547.868774 C 246.636795 540.495361 276.905823 540.271912 304.932709 546.974976 L 304.932709 547.198364 L 305.605377 547.198364 C 313.901367 549.4328 321.973083 552.114014 329.820618 555.465637 C 330.269073 555.689148 330.941681 555.912415 331.614349 556.135925 C 339.013458 559.264038 346.188324 563.285889 353.139038 567.531311 C 354.035858 567.978088 354.708527 568.425049 355.605377 568.871826 C 362.107635 573.117249 368.38562 577.809387 374.439453 582.948425 C 375.112122 583.618835 376.008942 584.289124 376.905823 585.182861 C 382.51123 590.321838 387.892365 595.684387 392.825104 601.717224 C 393.721985 602.610962 394.394653 603.28125 395.067261 604.175049 C 400.000031 610.207764 404.260071 616.46405 408.295959 622.943665 C 408.968628 624.060974 409.641235 624.954712 410.313904 626.071899 C 414.125549 632.551514 417.48877 639.47821 420.403595 646.628174 C 420.85199 647.745239 421.300446 648.862549 421.748871 649.979675 C 424.439453 657.1297 426.905823 664.503052 428.699554 672.100037 C 428.923767 673.217102 429.14798 674.334412 429.372192 675.451538 C 430.941711 683.271912 432.062775 691.092224 432.735413 699.135986 Z"/>
    <path id="path7" fill="#ffcbcb" stroke="none" visibility="hidden" d="M 904.035889 700.476501 L 889.686096 700.476501 C 863.004456 643.276611 805.605408 603.504761 737.892395 603.504761 C 728.699585 603.504761 719.730896 604.175049 710.313904 605.739075 C 710.089661 605.739075 710.089661 605.739075 710.089661 605.739075 C 700.896851 607.303162 691.928284 609.537476 683.408081 612.4422 C 680.269104 613.335938 677.57843 614.900024 674.663696 616.017151 C 669.058289 618.251526 663.452942 620.262573 658.296021 623.167175 C 654.035828 625.178101 650.896851 627.859314 647.085205 630.09375 C 643.049377 632.551514 638.789185 634.78595 635.426025 637.690674 C 631.614319 640.371887 628.026855 643.723389 624.663696 646.851563 C 621.748901 649.756287 617.937195 652.4375 615.022461 655.342224 C 611.883423 658.693726 609.19281 662.715637 606.278076 666.290588 C 603.587402 669.642212 600.672668 672.546814 597.982056 676.121948 C 595.291504 679.920349 593.497742 683.9422 591.031433 687.964111 C 588.789246 691.762451 586.322815 695.337585 584.304871 699.359375 C 584.080688 699.806213 583.856567 700.029724 583.856567 700.476501 L 568.38562 700.476501 C 569.05835 695.337585 570.403564 690.645325 571.524658 685.729736 C 572.197327 681.931274 572.869934 677.909363 573.991028 674.334412 C 575.336365 669.642212 577.354248 665.396851 579.147949 660.928162 C 580.717468 656.906311 582.062805 652.884399 583.856567 649.085938 C 585.650208 645.064148 588.340759 641.489014 590.583008 637.690674 C 592.825073 633.668762 594.843018 629.646912 597.533569 625.848511 C 600 622.273376 602.914795 619.368774 605.605347 616.017151 C 608.520203 612.4422 611.210754 608.420288 614.573975 605.068787 C 617.488831 602.164063 621.076294 599.482849 624.215271 596.578125 C 627.57843 593.449951 630.941711 590.09845 634.753296 587.417236 C 638.340759 584.512512 642.600891 582.278076 646.412537 579.820313 C 650.224243 577.585876 653.587402 574.904663 657.623291 572.893738 C 662.780212 569.989136 668.38562 567.978088 673.990967 565.743713 C 676.905823 564.626587 679.596375 563.0625 682.735474 562.168762 C 691.479858 559.264038 700.448425 557.029724 709.641235 555.465637 C 709.641235 555.465637 709.641235 555.465637 709.865479 555.465637 C 719.058289 553.901611 728.251099 553.231323 737.219788 553.231323 C 823.542603 553.231323 893.27356 617.804749 904.035889 700.476501 Z"/>
    <path id="path8" fill="#98ea8b" stroke="none" visibility="hidden" d="M 684.080688 516.587585 C 682.735474 516.810852 681.614319 517.257874 680.493286 517.481262 C 678.026855 518.151611 675.784729 518.821899 673.542664 519.492188 C 648.206299 453.354736 583.856567 406.209412 508.744385 406.209412 C 434.753357 406.209412 371.748901 450.673401 345.515717 515.023438 C 342.825104 513.90625 339.910339 512.789063 336.995514 511.671936 C 335.650238 511.224915 334.529175 510.778137 333.183838 510.331238 C 343.721985 422.520325 417.713013 355.935913 508.295929 355.935913 C 600.448425 355.935913 676.233215 426.765564 684.080688 516.587585 Z"/>
</svg>
