<svg xmlns="http://www.w3.org/2000/svg" viewBox="0 0 64 64" id="rocket"><g data-name="Layer 25"><path fill="#ffc987" fill-rule="evenodd" d="m29.83 34.17-4-4 13.9-18.91c4.62-6.32 18-10 20.49-7.48s-1.16 15.87-7.48 20.49L33.83 38.14Z"></path><path d="m29.49 34.51-4-4a.56.56 0 0 1 0-.68L39.3 11a16.41 16.41 0 0 1 1.3-1.5 26.68 26.68 0 0 1 10.69-6c3.91-1.2 7.51-1.39 9-.32.09.09.17.15.26.23s.14.17.23.26c1.07 1.5.88 5.1-.32 9a26.68 26.68 0 0 1-5.94 10.73A13.18 13.18 0 0 1 53 24.7L34.11 38.53a.48.48 0 0 1-.65 0Zm-3-4.37 3.71 3.66 3.66 3.68 18.56-13.6a10.2 10.2 0 0 0 1.39-1.19 25.79 25.79 0 0 0 5.73-10.29c1.08-3.6 1.33-6.89.42-8.11 0-.06-.05-.08-.11-.14s-.08-.09-.14-.11c-1.22-.91-4.51-.66-8.11.42a25.79 25.79 0 0 0-10.29 5.73 10.2 10.2 0 0 0-1.19 1.39Z"></path><path fill="#6d3326" fill-rule="evenodd" d="m27.85 32.18 4 4-4.13 4.17a.72.72 0 0 1-1 0l-3-3a.72.72 0 0 1 0-1Z"></path><path d="m28.22 31.81 4 4a.51.51 0 0 1 0 .71l-4.14 4.14a1.15 1.15 0 0 1-.85.37 1.23 1.23 0 0 1-.88-.37l-3-3a1.25 1.25 0 0 1-.31-.82 1.32 1.32 0 0 1 .34-.88l4.17-4.14a.51.51 0 0 1 .71 0Zm2.92 4.34-3.29-3.26-3.8 3.77a.44.44 0 0 0-.06.17.18.18 0 0 0 .06.14l3 3a.22.22 0 0 0 .17.09.16.16 0 0 0 .14-.09Zm-7.83 1.5a.52.52 0 0 1 0-.68"></path><path fill="#ff636e" d="M49.05 15c3.91-1.19 5.78 2.75 3.77 4.76s-6.12 1.87-10.26 1.73c-.14-4.14-.28-8.25 1.73-10.26s6-.14 4.76 3.77Z"></path><path d="M49.7 14.3a4 4 0 0 1 2.5.34 3.39 3.39 0 0 1 1.42 1.3 3.25 3.25 0 0 1 .51 1.76 3.19 3.19 0 0 1-1 2.35c-2.15 2.16-6.38 2-10.63 1.9a.53.53 0 0 1-.48-.51 47.12 47.12 0 0 1 .08-6 7.35 7.35 0 0 1 1.9-4.6 3.19 3.19 0 0 1 2.35-1 3.25 3.25 0 0 1 1.76.51 3.39 3.39 0 0 1 1.3 1.42 4 4 0 0 1 .34 2.5Zm2 1.22a3.44 3.44 0 0 0-2.55-.09.45.45 0 0 1-.28 0 .5.5 0 0 1-.34-.62 3.44 3.44 0 0 0-.09-2.55 2.38 2.38 0 0 0-.93-1 2.51 2.51 0 0 0-1.25-.37 2.32 2.32 0 0 0-1.67.68 6.45 6.45 0 0 0-1.5 4A38.2 38.2 0 0 0 43 21c3.86.11 7.66.17 9.41-1.59a2.32 2.32 0 0 0 .68-1.67 2.51 2.51 0 0 0-.37-1.25 2.38 2.38 0 0 0-1-.93Z"></path><path fill="#6d3326" fill-rule="evenodd" d="M49.67 26.51 51 34.45a3.49 3.49 0 0 1-1.68 3.37L42 42.08a1.52 1.52 0 0 1-2.44-1l-1.07-6.35Z"></path><path d="m50.16 26.46 1.36 7.91a3.66 3.66 0 0 1-.4 2.21 4.17 4.17 0 0 1-1.53 1.67l-7.31 4.25a3.24 3.24 0 0 1-.88.34 2.14 2.14 0 0 1-1.13-.14 1.82 1.82 0 0 1-.85-.77 3 3 0 0 1-.26-.77L38 34.79a.58.58 0 0 1 .2-.51l11.14-8.16a.53.53 0 0 1 .71.11.32.32 0 0 1 .09.23Zm.37 8.08-1.22-7.12L39 34.93l1.05 6a1 1 0 0 0 .15.43.92.92 0 0 0 .39.37 1.2 1.2 0 0 0 .57.06 2 2 0 0 0 .54-.2l7.34-4.22a3 3 0 0 0 1.1-1.25 2.63 2.63 0 0 0 .29-1.58Z"></path><path fill="#6d3326" fill-rule="evenodd" d="M37.49 14.33 29.55 13a3.49 3.49 0 0 0-3.37 1.68L21.92 22a1.52 1.52 0 0 0 1 2.44l6.35 1.07Z"></path><path d="m36.58 14.69-7.12-1.22a2.63 2.63 0 0 0-1.58.29 3 3 0 0 0-1.25 1.13l-4.22 7.31a2 2 0 0 0-.2.54 1.2 1.2 0 0 0 .06.57.92.92 0 0 0 .37.39 1.58 1.58 0 0 0 .45.15l6 1.05Zm-6.95-2.21 7.91 1.36a.32.32 0 0 1 .23.09.53.53 0 0 1 .11.71l-8.16 11.14a.52.52 0 0 1-.51.2l-6.35-1.08a2.26 2.26 0 0 1-.79-.29 1.82 1.82 0 0 1-.77-.85 2.14 2.14 0 0 1-.14-1.13 3.24 3.24 0 0 1 .34-.88l4.22-7.31a4.17 4.17 0 0 1 1.67-1.53 3.66 3.66 0 0 1 2.21-.4Z"></path><path fill="#ff636e" d="M20.31 43.69c3.74-1.16 5.53 2.61 3.6 4.54S18.07 50 14.1 49.9c-.11-4-.26-7.91 1.67-9.81s5.7-.14 4.54 3.6Z"></path><path d="M21 43a4.22 4.22 0 0 1 2.35.34 3.31 3.31 0 0 1 1.84 2.95 3.19 3.19 0 0 1-.9 2.3 7.28 7.28 0 0 1-4.45 1.73 43.41 43.41 0 0 1-5.73.05.47.47 0 0 1-.48-.48 43.41 43.41 0 0 1 .05-5.73 7.28 7.28 0 0 1 1.73-4.45 3 3 0 0 1 2.27-.9 3.31 3.31 0 0 1 2.95 1.84A4.22 4.22 0 0 1 21 43Zm1.9 1.25a3.22 3.22 0 0 0-2.41-.11.81.81 0 0 1-.31 0 .48.48 0 0 1-.32-.63 3.22 3.22 0 0 0-.11-2.41 2.28 2.28 0 0 0-.88-1 2.26 2.26 0 0 0-2.75.28 6.64 6.64 0 0 0-1.44 3.86 39 39 0 0 0-.09 5.13 39 39 0 0 0 5.13-.09 6.64 6.64 0 0 0 3.86-1.44 2.26 2.26 0 0 0 .28-2.75 2.28 2.28 0 0 0-1-.88Z"></path><path fill="#ff636e" d="M10.36 53.64c4.36-1.33 6.46 3.09 4.22 5.33s-6.89 2.1-11.51 2c-.14-4.62-.28-9.27 2-11.51s6.66-.14 5.33 4.22Z"></path><path d="M11 53a4.58 4.58 0 0 1 2.83.4 3.7 3.7 0 0 1 1.56 1.42 4 4 0 0 1 .61 1.91 3.49 3.49 0 0 1-1.05 2.61c-2.38 2.38-7.11 2.24-11.85 2.07a.48.48 0 0 1-.48-.48c-.17-4.74-.31-9.47 2.07-11.85a3.49 3.49 0 0 1 2.61-1 4 4 0 0 1 2 .54 3.7 3.7 0 0 1 1.42 1.56A4.58 4.58 0 0 1 11 53Zm2.38 1.28a3.91 3.91 0 0 0-2.92-.12.45.45 0 0 1-.28 0 .5.5 0 0 1-.34-.62 3.91 3.91 0 0 0-.12-2.92 3.1 3.1 0 0 0-1-1.16A2.93 2.93 0 0 0 7.27 49a2.52 2.52 0 0 0-1.9.77c-2 2-2 6.29-1.81 10.65 4.36.15 8.64.2 10.65-1.81a2.52 2.52 0 0 0 .77-1.9 2.93 2.93 0 0 0-.4-1.44 3.1 3.1 0 0 0-1.16-1Z"></path></g></svg>