<?xml version="1.0" encoding="UTF-8"?>
<!-- Generated by Pixelmator Pro 3.5.6 -->
<svg width="64" height="64" viewBox="0 0 64 64" xmlns="http://www.w3.org/2000/svg">
    <g id="Group">
        <path id="Path" fill="#000000" stroke="none" d="M 31.986 0.031998 C 14.527 0.031998 0.375999 14.360001 0.375999 32 C 0.375999 49.640999 14.527 63.969002 31.986 63.969002 C 49.444 63.969002 63.624001 49.640999 63.624001 32 C 63.624001 14.359001 49.444 0.031998 31.986 0.031998 L 31.986 0.031998 Z M 31.986 1.645996 C 48.602997 1.645996 62.054001 15.209 62.054001 32 C 62.054001 48.792 48.602997 62.383003 31.986 62.383003 C 15.368 62.383003 1.945 48.791 1.945 32 C 1.945 15.209 15.368 1.645996 31.986 1.645996 L 31.986 1.645996 Z M 32.07 7.931999 C 27.978001 7.931999 24.98 9.772003 23.103001 12.264999 C 21.252998 14.785004 20.411999 17.928001 20.441002 20.703003 C 20.441002 21.127998 20.804001 21.524002 21.224998 21.524002 C 21.646 21.524002 22.037998 21.127998 22.037998 20.703003 C 22.009998 18.268005 22.766998 15.408005 24.362999 13.226997 C 25.988998 11.046997 28.426998 9.517998 32.07 9.517998 C 36.917999 9.517998 40.139999 12.321999 41.318001 15.889 C 42.521999 19.457001 41.653999 23.818001 37.925999 27.016998 C 36.442001 28.263 34.759998 29.423996 33.443001 30.867004 C 32.126999 32.311005 31.173 34.096001 31.229 36.332001 C 31.229 36.332001 31.229 36.332001 31.229 36.361 C 31.201 41.259003 31.145 42.25 31.145 42.25 C 31.145 42.645996 31.508999 43.042999 31.902 43.071999 C 32.321999 43.071999 32.715 42.703003 32.715 42.278999 C 32.715 42.278999 32.771 41.316002 32.799 36.361 C 32.799 36.332001 32.799 36.332001 32.799 36.332001 C 32.743 34.548996 33.444 33.246002 34.619999 31.972 C 35.769001 30.696999 37.394001 29.535995 38.935001 28.234001 C 43.139 24.666 44.231998 19.541 42.831001 15.378998 C 41.43 11.188004 37.507 7.931999 32.07 7.931999 L 32.07 7.931999 Z M 31.986 49.584 C 31.117001 49.584 30.417 50.32 30.417 51.169998 C 30.417 52.046997 31.117001 52.782997 31.986 52.782997 C 32.855 52.782997 33.555 52.046997 33.555 51.169998 C 33.556 50.32 32.855 49.584 31.986 49.584 L 31.986 49.584 Z"/>
    </g>
</svg>
