<?xml version="1.0" encoding="UTF-8"?>
<!-- Generated by Pixelmator Pro 3.5.6 -->
<svg width="46" height="46" viewBox="0 0 46 46" xmlns="http://www.w3.org/2000/svg">
    <g id="Group">
        <path id="Path" fill="#000000" stroke="none" d="M 28.837002 13.009003 C 30.168999 15.928001 29.536999 19.965 27.257999 23.054001 C 26.684662 23.803162 26.064064 24.514942 25.400002 25.185001 C 23.981998 26.671001 22.642 28.074001 22.200001 30.674999 C 22.117723 31.154839 21.701843 31.505699 21.215 31.506001 C 21.158339 31.505924 21.101789 31.500908 21.046 31.491001 C 20.78447 31.446495 20.551342 31.299896 20.397928 31.083462 C 20.244513 30.867031 20.183386 30.598511 20.228001 30.337002 C 20.719715 27.809345 22.027269 25.512871 23.950001 23.799999 C 24.55761 23.191448 25.125446 22.544445 25.650002 21.862999 C 27.480999 19.379997 28.043999 16.077999 27.021 13.834999 C 26.418434 12.470238 25.087078 11.571526 23.596001 11.523003 C 22.222366 11.295296 20.816864 11.664955 19.733 12.539001 C 18.9401 13.386429 18.494034 14.500526 18.483 15.660999 C 18.497911 16.213287 18.062284 16.673088 17.51 16.688 C 16.957716 16.702911 16.497911 16.267284 16.483 15.715 C 16.47876 13.993713 17.145628 12.338554 18.341999 11.100998 C 19.83095 9.813789 21.807148 9.239769 23.754002 9.528999 C 25.970943 9.631897 27.939144 10.979397 28.837002 13.009003 Z M 46 9 L 46 37 C 45.994488 41.968277 41.968277 45.994488 37 46 L 9 46 C 4.031722 45.994488 0.005511 41.968277 0 37 L 0 9 C 0.005511 4.031723 4.031722 0.005508 9 0 L 37 0 C 41.968277 0.005508 45.994488 4.031723 46 9 Z M 44 9 C 43.99559 5.135834 40.864166 2.00441 37 2 L 9 2 C 5.135835 2.00441 2.004409 5.135834 2 9 L 2 37 C 2.004409 40.864166 5.135835 43.99559 9 44 L 37 44 C 40.864166 43.99559 43.99559 40.864166 44 37 Z M 22.08 35.119999 C 22.060104 35.058537 22.02965 35.001007 21.99 34.950001 C 21.954744 34.893536 21.910883 34.842922 21.860001 34.799999 C 21.771158 34.703625 21.661798 34.628441 21.540001 34.580002 C 21.165098 34.431694 20.738029 34.517891 20.450001 34.799999 C 20.402317 34.843338 20.361813 34.893967 20.33 34.950001 C 20.290352 35.001007 20.259895 35.058537 20.24 35.119999 C 20.209551 35.179546 20.18927 35.243767 20.18 35.310001 C 20.168348 35.372707 20.161661 35.436241 20.16 35.5 C 20.157112 35.630119 20.180937 35.759449 20.23 35.880001 C 20.282148 36.002739 20.356762 36.114655 20.450001 36.209999 C 20.638344 36.397755 20.894068 36.502205 21.16 36.5 C 21.290012 36.501595 21.419088 36.477818 21.540001 36.43 C 21.659819 36.377922 21.768471 36.303226 21.860001 36.209999 C 21.956453 36.117302 22.03153 36.004688 22.08 35.880001 C 22.132357 35.760132 22.159582 35.630802 22.16 35.5 C 22.158339 35.436241 22.151651 35.372707 22.139999 35.310001 C 22.13073 35.243767 22.110449 35.179546 22.08 35.119999 Z"/>
    </g>
</svg>
