<?xml version="1.0" encoding="UTF-8"?>
<!-- Generated by Pixelmator Pro 3.5.6 -->
<svg width="100" height="89" viewBox="0 0 100 89" xmlns="http://www.w3.org/2000/svg">
    <g id="Group">
        <path id="Path" fill="#000000" stroke="none" d="M 45.555553 86.849167 C 26.170647 86.836868 9.275348 73.631958 4.557717 54.806362 C -0.159912 35.980759 8.507834 16.353821 25.590723 7.179947 C 42.673611 -1.993919 63.798431 1.633812 76.851852 15.982925 C 77.202431 16.33107 77.399628 16.804985 77.399628 17.299377 C 77.399628 17.793762 77.202431 18.267685 76.851852 18.615837 C 76.510506 18.964653 76.043297 19.161224 75.555557 19.161224 C 75.067818 19.161224 74.600609 18.964653 74.259254 18.615837 C 61.755569 4.845291 41.224503 1.955231 25.413315 11.740021 C 9.602126 21.524796 3.003369 41.204212 9.714056 58.559765 C 16.424744 75.915314 34.538124 86.01564 52.808014 82.589684 C 71.077904 79.163727 84.313156 63.184937 84.296295 44.574169 C 84.307564 40.479107 83.657188 36.409184 82.370369 32.522083 C 82.053322 31.498058 82.625397 30.410572 83.648148 30.093124 C 84.670898 29.775677 85.757019 30.348469 86.074074 31.372498 C 87.338943 35.630424 87.938622 40.058578 87.851852 44.5 C 87.831436 67.880325 68.906693 86.82872 45.555553 86.849167 Z"/>
        <path id="path1" fill="#000000" stroke="none" d="M 45.555553 61.632504 C 45.072357 61.635403 44.607162 61.449097 44.259262 61.113331 L 22.851852 39.642086 C 22.135929 38.925262 22.135929 37.763069 22.851852 37.046249 C 23.567776 36.329426 24.728521 36.329426 25.444445 37.046249 L 45.555553 57.145416 L 95.333336 5.896248 C 96.065971 5.185051 97.230316 5.185051 97.962967 5.896248 C 98.313538 6.2444 98.510742 6.718315 98.510742 7.212708 C 98.510742 7.7071 98.313538 8.181015 97.962967 8.529167 L 46.888889 61.076248 C 46.554516 61.43647 46.083717 61.638496 45.59259 61.632504 Z"/>
    </g>
</svg>
