<?xml version="1.0" encoding="UTF-8"?>
<!-- Generated by Pixelmator Pro 3.6.2 -->
<svg width="78" height="22" viewBox="0 0 78 22" xmlns="http://www.w3.org/2000/svg">
    <path id="Path" fill="#000000" stroke="none" d="M 9.209999 9.32 C 12.889999 7.809998 11.1 3.849998 9.969999 2.910004 C 8.84 1.970001 4.03 1.309998 1.58 6.770004 C -0.87 12.229996 1.67 21.290001 12.23 21.849998 C 22.099998 22.380001 34.099998 19.119995 39 11.389999 C 43.900002 19.119995 55.900002 22.389999 65.769997 21.849998 C 76.330002 21.290001 78.870003 12.240005 76.419998 6.770004 C 73.970001 1.300003 69.160004 2 68 2.910004 C 66.839996 3.82 65.080002 7.809998 68.760002 9.32 C 72.440002 10.830002 73.660004 7.720001 73.660004 7.720001 C 75.260002 13.279999 71.209999 17.800003 64.989998 14.410004 C 58.769997 11.020004 58.150002 3.229996 49.650002 0.740005 C 43.52 -1 40.560001 1.229996 39 3.089996 C 37.439999 1.229996 34.48 -1.050003 28.349998 0.740005 C 19.85 3.229996 19.209999 11 13 14.410004 C 6.790001 17.82 2.73 13.279999 4.33 7.720001 C 4.31 7.720001 5.540001 10.830002 9.209999 9.32 Z"/>
</svg>
