<?xml version="1.0" encoding="UTF-8"?>
<!-- Generated by Pixelmator Pro 3.5.6 -->
<svg width="66" height="78" viewBox="0 0 66 78" xmlns="http://www.w3.org/2000/svg">
    <g id="Group">
        <path id="Path" fill="#000000" fill-rule="evenodd" stroke="none" d="M 41.061035 0.195068 C 41.355415 0.190247 41.636951 0.31543 41.830608 0.53717 L 50.015648 9.643494 C 50.357674 10.023743 50.357674 10.60083 50.015648 10.981079 L 41.015648 20.973206 C 40.777695 21.243286 40.412994 21.364624 40.060684 21.291016 C 39.708378 21.217346 39.42281 20.960083 39.312935 20.617371 C 39.20306 20.274597 39.285824 19.899292 39.529655 19.634521 L 46.993877 11.347595 L 18.197849 11.347595 C 7.391966 11.347595 2.34931 18.052979 2.34931 24.71582 C 2.34931 31.378723 7.391966 38.084045 18.197849 38.084045 L 47.819893 38.084045 C 59.459442 38.084045 65.640991 45.70929 65.650482 53.380131 C 65.660484 61.050785 59.496223 68.678345 47.890762 68.678345 L 18.917599 68.678345 L 25.602261 76.115967 C 25.853035 76.379761 25.940693 76.758911 25.831135 77.106079 C 25.721573 77.453125 25.432091 77.713257 25.075314 77.785278 C 24.718536 77.8573 24.3508 77.729858 24.11517 77.452393 L 15.930134 68.346069 C 15.588413 67.965576 15.58889 67.38855 15.931232 67.008545 L 24.931194 57.016422 C 25.169109 56.746281 25.533871 56.624821 25.886253 56.698429 C 26.23864 56.772038 26.524273 57.029362 26.634136 57.372135 C 26.743999 57.71497 26.661144 58.090397 26.417187 58.355106 L 18.919762 66.678467 L 47.890724 66.678467 C 58.643562 66.678467 63.658905 60.008793 63.650688 53.382328 C 63.642685 46.755798 58.609474 40.083801 47.819862 40.083801 L 18.197811 40.083801 C 6.539127 40.083801 0.349503 32.421021 0.349503 24.71582 C 0.349503 17.01062 6.539127 9.347839 18.197811 9.347839 L 47.061378 9.347839 L 40.343479 1.873657 C 40.075951 1.584106 40.003487 1.164429 40.158432 0.801941 C 40.313381 0.439392 40.666828 0.201782 41.061001 0.195068 Z"/>
    </g>
</svg>
