<?xml version="1.0" encoding="UTF-8"?>
<!-- Generated by Pixelmator Pro 3.5.6 -->
<svg width="46" height="76" viewBox="0 0 46 76" xmlns="http://www.w3.org/2000/svg">
    <g id="Group">
        <path id="Path" fill="#000000" stroke="none" d="M 15.5 68.5 C 15.5 72.599998 18.900002 76 23 76 C 27.099998 76 30.5 72.599998 30.5 68.5 C 30.5 64.400002 27.099998 61 23 61 C 18.900002 61 15.5 64.400002 15.5 68.5 Z M 28.5 68.5 C 28.5 71.5 26 74 23 74 C 20 74 17.5 71.5 17.5 68.5 C 17.5 65.5 20 63 23 63 C 26 63 28.5 65.5 28.5 68.5 Z"/>
        <path id="path1" fill="#000000" stroke="none" d="M 45.900002 22.5 C 45.199997 11 36 1.800003 24.5 1 C 18.099998 0.599998 12 2.800003 7.299999 7.199997 C 2.700001 11.5 0.1 17.599998 0.1 23.900002 L 2.1 23.900002 C 2.1 18.099998 4.4 12.599998 8.700001 8.599998 C 13 4.599998 18.5 2.599998 24.400002 3 C 34.900002 3.699997 43.300003 12.099998 44 22.599998 C 44.599998 31.699997 39.300003 40 30.799999 43.400002 C 25.400002 45.5 22 50.5 22 56 L 24 56 C 24 51.299999 26.900002 47.099998 31.5 45.300003 C 40.699997 41.599998 46.5 32.400002 45.900002 22.5 Z"/>
    </g>
</svg>
