<?xml version="1.0" encoding="UTF-8"?>
<!-- Generated by Pixelmator Pro 3.5.6 -->
<svg width="278" height="389" viewBox="0 0 278 389" xmlns="http://www.w3.org/2000/svg">
    <path id="Path" fill="#0051cd" stroke="none" visibility="hidden" d="M -61.002247 -5.400818 L 339.450684 -5.400818 L 339.450684 395.052185 L -61.002247 395.052185 Z"/>
    <g id="Group">
        <path id="path1" fill="#000000" stroke="none" d="M 180.176514 0.934998 L 224.928177 26.669739 L 48.691345 128.01886 L 3.939671 102.28363 Z"/>
        <path id="path2" fill="#000000" stroke="none" d="M 226.733215 32.073273 L 51.604321 132.739166 L 51.598309 183.667618 L 226.727234 83.001709 Z"/>
        <path id="path3" fill="#000000" stroke="none" d="M 156.304962 131.469147 L 51.969017 191.441208 L 51.96347 242.374283 L 156.299408 182.402252 Z"/>
        <path id="path4" fill="#000000" stroke="none" d="M 116.312828 211.984329 L 51.728962 249.110138 L 51.722954 300.043213 L 116.31144 262.917419 Z"/>
        <path id="path5" fill="#000000" stroke="none" d="M 0.757835 107.191376 L 45.772644 133.065063 L 45.755333 184.007385 L 0.740526 158.13414 Z"/>
        <path id="path6" fill="#000000" stroke="none" d="M 1.18617 165.54306 L 45.654858 191.102829 L 45.637505 242.045135 L 1.168814 216.485825 Z"/>
        <path id="path7" fill="#000000" stroke="none" d="M 1.166572 223.543884 L 45.650036 249.112442 L 45.631516 303.415497 L 1.148064 277.846954 Z"/>
        <path id="path8" fill="#000000" stroke="none" d="M 100.289185 388.715149 L 55.53751 362.980377 L 229.775452 262.7854 L 274.526642 288.520142 Z"/>
        <path id="path9" fill="#000000" stroke="none" d="M 51.992104 358.574463 L 226.857849 258.060944 L 226.863419 207.132477 L 51.997635 307.646027 Z"/>
        <path id="path10" fill="#000000" stroke="none" d="M 122.152596 259.335083 L 226.488556 199.363037 L 226.494553 148.429947 L 122.158607 208.401993 Z"/>
        <path id="path11" fill="#000000" stroke="none" d="M 162.149353 178.815292 L 226.733215 141.689499 L 226.738754 90.756409 L 162.154892 127.882202 Z"/>
        <path id="path12" fill="#000000" stroke="none" d="M 277.707855 283.94986 L 232.693481 258.07663 L 232.710556 207.134308 L 277.725372 233.007553 Z"/>
        <path id="path13" fill="#000000" stroke="none" d="M 277.283142 225.270432 L 232.814453 199.710632 L 232.831543 148.768311 L 277.300201 174.327652 Z"/>
        <path id="path14" fill="#000000" stroke="none" d="M 277.301605 167.269592 L 232.817673 141.701019 L 232.835678 88.37204 L 277.31958 113.940155 Z"/>
    </g>
</svg>
