<?xml version="1.0" encoding="UTF-8"?>
<!-- Generated by Pixelmator Pro 3.6.2 -->
<svg width="696" height="537" viewBox="0 0 696 537" xmlns="http://www.w3.org/2000/svg">
    <path id="Path" fill="#ffc55c" stroke="none" d="M 693.280029 2.900024 L 187.820007 287.919983 L 2.599998 222.880005 L 693.280029 2.900024 Z"/>
    <path id="path1" fill="#00abac" stroke="none" d="M 693.280029 2.900024 L 525.039978 441.219971 L 382.769989 369.340027 L 314.73999 334.960022 L 693.280029 2.900024 Z"/>
    <path id="path2" fill="#ff5c4b" stroke="none" d="M 693.280029 2.900024 L 314.73999 334.960022 L 210.320007 534.559998 L 187.820007 287.919983 L 693.280029 2.900024 Z"/>
    <path id="path3" fill="#b776ff" stroke="none" d="M 314.73999 334.960022 L 382.769989 369.340027 L 210.320007 534.559998 L 314.73999 334.960022 Z"/>
    <g id="Group">
        <path id="path4" fill="#000000" stroke="none" visibility="hidden" d="M 187.820007 289.919983 C 187.600006 289.919983 187.377014 289.882996 187.15799 289.807007 L 1.935997 224.766998 C 1.125 224.481995 0.585999 223.709991 0.598999 222.850006 C 0.612 221.98999 1.171997 221.234985 1.991997 220.973999 L 692.674011 0.994019 C 693.718994 0.661011 694.851013 1.23999 695.185974 2.292969 C 695.521973 3.344971 694.940002 4.469971 693.888 4.80603 L 8.899002 222.971985 L 188.481995 286.03302 C 189.524994 286.398987 190.072998 287.541016 189.707001 288.583008 C 189.417999 289.406006 188.644989 289.921021 187.820007 289.921021 Z"/>
        <path id="path5" fill="#000000" stroke="none" visibility="hidden" d="M 525.039978 443.219971 C 524.72998 443.219971 524.421021 443.14801 524.138 443.005005 L 381.867004 371.125 C 380.881989 370.627014 380.485992 369.424011 380.984009 368.437988 C 381.480988 367.453979 382.682007 367.05603 383.671997 367.554993 L 523.966003 438.437012 L 691.413025 2.182983 C 691.809021 1.151978 692.963013 0.636963 693.997009 1.03302 C 695.028015 1.429016 695.54303 2.585999 695.146973 3.617004 L 526.906982 441.937012 C 526.703979 442.465027 526.288025 442.882019 525.76001 443.085999 C 525.528015 443.176025 525.28302 443.219971 525.039978 443.219971 Z"/>
        <path id="path6" fill="#000000" stroke="none" visibility="hidden" d="M 210.317993 536.559998 C 209.295013 536.559998 208.421997 535.780029 208.328003 534.742004 L 185.828003 288.10199 C 185.756989 287.317993 186.152008 286.565002 186.838013 286.177979 L 692.297974 1.15802 C 693.190002 0.656006 694.31897 0.906982 694.911987 1.742981 C 695.505005 2.578979 695.369019 3.72699 694.599976 4.403015 L 316.059998 336.463013 C 315.229004 337.192017 313.964996 337.109009 313.237 336.278015 C 312.509003 335.447021 312.591003 334.184021 313.421997 333.455994 L 677.461975 14.115967 L 189.931 289.026001 L 212.313995 534.377991 C 212.414001 535.478027 211.602997 536.450989 210.502991 536.551025 C 210.44101 536.557007 210.380005 536.559021 210.319 536.559021 Z"/>
        <path id="path7" fill="#000000" stroke="none" visibility="hidden" d="M 210.320007 536.559998 C 209.898987 536.559998 209.476013 536.427979 209.118988 536.158997 C 208.335999 535.570007 208.093994 534.500977 208.548004 533.632996 L 312.967987 334.03302 C 313.475006 333.065002 314.662994 332.68103 315.643005 333.174988 L 383.671997 367.554993 C 384.251007 367.848022 384.652008 368.403015 384.747986 369.044983 C 384.843994 369.687012 384.622009 370.335022 384.153015 370.783997 L 211.70401 536.004028 C 211.319 536.372009 210.820007 536.559998 210.320007 536.559998 Z M 315.597992 337.633972 L 217.75 524.671021 L 379.345001 369.849976 L 315.597992 337.633972 Z"/>
    </g>
</svg>
