<?xml version="1.0" encoding="UTF-8"?>
<!-- Generated by Pixelmator Pro 3.5.6 -->
<svg width="100" height="143" viewBox="0 0 100 143" xmlns="http://www.w3.org/2000/svg">
    <path id="Path" fill="#6b6ba5" stroke="none" d="M 99.820633 72.214996 C 99.820633 71.008438 98.834076 70.047653 97.645737 70.047653 L 94.775787 70.047653 C 93.632286 59.076881 84.058296 50.496872 72.713005 51.033127 C 71.614349 39.950623 62.219734 31.258904 50.829594 31.258904 C 39.686096 31.258904 30.58296 39.347343 29.080717 50.072342 C 27.040359 49.804222 24.977579 49.8489 23.004482 50.16172 L 10.538116 1.631088 C 10.246637 0.469223 9.058295 -0.223434 7.892377 0.067032 C 6.726457 0.357498 6.031391 1.541718 6.322871 2.703598 L 18.789238 51.278908 C 10.964126 54.250626 5.560539 61.624069 5.15695 70.047653 L 2.35426 70.047653 C 1.16592 70.047653 0.179372 71.008438 0.179372 72.214996 C 0.179372 98.669998 21.098656 120.365776 47.309414 121.773438 L 47.309414 138.665314 L 35.269058 138.665314 C 34.058296 138.665314 33.09417 139.626099 33.09417 140.832657 C 33.09417 142.039215 34.058296 143 35.269058 143 L 64.753365 143 C 65.941704 143 66.928253 142.039215 66.928253 140.832657 C 66.928253 139.626099 65.941704 138.665314 64.753365 138.665314 L 51.659195 138.665314 L 51.659195 121.795776 C 78.363235 120.92437 99.820633 99.027496 99.820633 72.214996 Z M 70.986549 55.546562 C 71.90583 55.39016 72.825111 55.323128 73.721977 55.323128 C 82.354263 55.323128 89.327354 61.780472 90.403587 70.047653 L 56.838562 70.047653 C 56.905834 69.533752 57.040356 69.064529 57.152462 68.572975 C 57.219734 68.193123 57.286995 67.790939 57.399101 67.433441 C 57.533634 66.964218 57.735428 66.539688 57.914795 66.092819 C 58.071747 65.690628 58.206276 65.288437 58.385654 64.908592 C 58.565022 64.506409 58.834076 64.148903 59.058296 63.769066 C 59.282509 63.366875 59.484303 62.964691 59.753361 62.584846 C 59.999996 62.227341 60.291481 61.936874 60.560535 61.601715 C 60.852016 61.244217 61.121075 60.842033 61.457401 60.506882 C 61.748882 60.216408 62.107628 59.948288 62.421528 59.657814 C 62.757843 59.344994 63.09417 59.009842 63.475334 58.741722 C 63.834076 58.451248 64.260094 58.227806 64.641251 57.982033 C 65.022423 57.758591 65.358742 57.490471 65.762329 57.289375 C 66.278023 56.998909 66.838562 56.797806 67.399101 56.574371 C 67.690582 56.462654 67.959641 56.306252 68.273544 56.216873 C 69.147987 55.926407 70.044838 55.702972 70.964119 55.546562 C 70.964119 55.546562 70.964119 55.546562 70.986549 55.546562 Z M 50.829594 35.593597 C 60.044842 35.593597 67.623322 42.676559 68.408073 51.658752 C 68.273544 51.681091 68.16143 51.725784 68.049324 51.748123 C 67.556061 51.882187 67.085197 52.016251 66.614349 52.172653 C 66.390137 52.262032 66.188347 52.35141 65.986549 52.418434 C 65.605377 52.552498 65.246635 52.708908 64.887894 52.865311 C 64.663681 52.954689 64.439461 53.066406 64.215248 53.178123 C 63.901348 53.334534 63.565022 53.490944 63.251122 53.669685 C 63.026909 53.781403 62.825115 53.915466 62.600895 54.049538 C 62.286995 54.228279 61.995514 54.407028 61.704037 54.608131 C 61.502243 54.742188 61.278023 54.89859 61.076229 55.055 C 60.807175 55.256096 60.538116 55.457184 60.269062 55.658279 C 60.067268 55.837029 59.865475 55.993431 59.663681 56.172188 C 59.394615 56.395622 59.147987 56.619064 58.923767 56.842506 C 58.721973 57.021248 58.542603 57.199997 58.340809 57.4011 C 58.116589 57.624535 57.892376 57.870316 57.668156 58.116096 C 57.488789 58.317184 57.331841 58.518288 57.152462 58.719376 C 56.950668 58.987503 56.748875 59.233284 56.547081 59.501404 C 56.390133 59.724846 56.233181 59.925934 56.076233 60.149368 C 55.896862 60.417503 55.717487 60.707962 55.53812 60.998436 C 55.403587 61.221878 55.246635 61.445313 55.112106 61.668747 C 54.955154 61.959221 54.798206 62.249687 54.641254 62.5625 C 54.529148 62.785934 54.417042 63.031715 54.304928 63.25515 C 54.14798 63.56797 54.035873 63.880783 53.901348 64.193596 C 53.789234 64.439377 53.699554 64.685158 53.609867 64.930931 C 53.497761 65.26609 53.385647 65.60125 53.27354 65.936409 C 53.20628 66.18219 53.139015 66.427971 53.071747 66.673752 C 52.959641 67.03125 52.89238 67.388748 52.825108 67.746246 C 52.757847 67.992035 52.713001 68.215469 52.668159 68.46125 C 52.600895 68.863434 52.533634 69.287971 52.488792 69.712502 C 52.488792 69.824219 52.466366 69.935936 52.443947 70.047653 L 47.623318 70.047653 C 47.623318 69.801872 47.600899 69.556091 47.600899 69.332657 C 47.578476 69.131569 47.556053 68.952812 47.53363 68.751717 C 47.488789 68.371872 47.443947 67.992035 47.376682 67.589844 C 47.331837 67.366409 47.286999 67.165306 47.242153 66.941872 C 47.174889 66.606712 47.10762 66.249222 47.017937 65.914063 C 46.973095 65.690628 46.90583 65.467186 46.838566 65.221413 C 46.748878 64.908592 46.659195 64.595779 46.547085 64.282967 C 46.457397 64.059525 46.36771 63.83609 46.300449 63.590309 C 46.16592 63.29985 46.05381 62.987038 45.941704 62.696556 C 45.829594 62.473122 45.73991 62.249687 45.6278 62.026253 C 45.493275 61.735779 45.358746 61.467659 45.201794 61.177185 C 45.089684 60.953751 44.977577 60.752663 44.843052 60.551559 C 44.686096 60.261093 44.529148 59.992966 44.349773 59.724846 C 44.215248 59.52375 44.080719 59.322655 43.946186 59.121559 C 43.766815 58.853439 43.587444 58.585312 43.385647 58.339531 C 43.251122 58.138435 43.09417 57.959694 42.959644 57.758591 C 42.757847 57.51281 42.533634 57.267029 42.331837 57.043594 C 42.174889 56.864845 42.017937 56.686096 41.838566 56.507347 C 41.614349 56.261566 41.390133 56.038132 41.143497 55.81469 C 40.986546 55.658279 40.807175 55.479538 40.650223 55.323128 C 40.403587 55.099686 40.134529 54.89859 39.887894 54.697502 C 39.708519 54.541092 39.529148 54.384689 39.349777 54.250626 C 39.080715 54.049538 38.789238 53.848434 38.520176 53.669685 C 38.318386 53.535622 38.139011 53.401566 37.959641 53.267502 C 37.668163 53.088753 37.354263 52.910004 37.062778 52.731247 C 36.860985 52.61953 36.681614 52.507813 36.47982 52.396095 C 36.16592 52.239685 35.829597 52.083275 35.493275 51.926872 C 35.291481 51.837502 35.11211 51.725784 34.910316 51.658752 C 34.529148 51.480003 34.103138 51.323593 33.699551 51.167191 C 33.565022 51.122498 33.452915 51.077812 33.318386 51.033127 C 34.3722 42.252029 41.771301 35.593597 50.829594 35.593597 Z M 21.995516 54.786873 C 24.663679 54.049538 27.69058 54.027191 30.493273 54.697502 L 30.493273 54.719841 L 30.560537 54.719841 C 31.390137 54.943283 32.197308 55.211403 32.982063 55.546562 C 33.026905 55.568909 33.09417 55.591248 33.161434 55.613594 C 33.901344 55.926407 34.618832 56.32859 35.313904 56.753128 C 35.403587 56.797806 35.470852 56.842506 35.560535 56.887184 C 36.210762 57.311722 36.838562 57.780937 37.443947 58.294846 C 37.511211 58.361877 37.600895 58.428909 37.690582 58.518288 C 38.251122 59.032181 38.789238 59.568436 39.282509 60.171722 C 39.372196 60.261093 39.439465 60.328125 39.506725 60.417503 C 40.000004 61.020775 40.426006 61.646408 40.829597 62.294373 C 40.896862 62.406097 40.964123 62.495468 41.031391 62.607185 C 41.412556 63.25515 41.748878 63.947815 42.040359 64.662819 C 42.085201 64.774529 42.130043 64.886253 42.174889 64.997971 C 42.443943 65.712967 42.690582 66.45031 42.869953 67.210007 C 42.892376 67.321716 42.914799 67.433441 42.937222 67.545158 C 43.09417 68.327194 43.206276 69.109222 43.273544 69.913597 L 43.273544 70.047653 L 9.484305 70.047653 C 9.932735 62.852966 14.932736 56.66375 21.995516 54.786873 Z M 50 117.505783 C 25.650223 117.505783 5.717489 98.357193 4.596413 74.382347 L 95.403587 74.382347 C 94.282509 98.357193 74.349777 117.505783 50 117.505783 Z"/>
    <path id="path1" fill="#e6edf6" stroke="none" d="M 95.403587 74.382347 C 94.282509 98.357193 74.349777 117.505783 50 117.505783 C 25.650223 117.505783 5.717489 98.357193 4.596413 74.382347 L 95.403587 74.382347 Z"/>
    <path id="path2" fill="#c8d5e4" stroke="none" d="M 95.403587 74.382347 C 94.282509 98.357193 74.349777 117.505783 50 117.505783 C 64.529144 117.505783 76.412552 98.357193 77.085205 74.382347 L 95.403587 74.382347 Z M 50 117.505783 C 25.650223 117.505783 5.717489 98.357193 4.596413 74.382347 L 22.914799 74.382347 C 23.587442 98.357193 35.470852 117.505783 50 117.505783 Z"/>
    <path id="path3" fill="#ffdc7c" stroke="none" d="M 43.273544 69.913597 L 43.273544 70.047653 L 9.484305 70.047653 C 9.932735 62.852966 14.932736 56.66375 21.995516 54.786873 C 24.663679 54.049538 27.69058 54.027191 30.493273 54.697502 L 30.493273 54.719841 L 30.560537 54.719841 C 31.390137 54.943283 32.197308 55.211403 32.982063 55.546562 C 33.026905 55.568909 33.09417 55.591248 33.161434 55.613594 C 33.901344 55.926407 34.618832 56.32859 35.313904 56.753128 C 35.403587 56.797806 35.470852 56.842506 35.560535 56.887184 C 36.210762 57.311722 36.838562 57.780937 37.443947 58.294846 C 37.511211 58.361877 37.600895 58.428909 37.690582 58.518288 C 38.251122 59.032181 38.789238 59.568436 39.282509 60.171722 C 39.372196 60.261093 39.439465 60.328125 39.506725 60.417503 C 40.000004 61.020775 40.426006 61.646408 40.829597 62.294373 C 40.896862 62.406097 40.964123 62.495468 41.031391 62.607185 C 41.412556 63.25515 41.748878 63.947815 42.040359 64.662819 C 42.085201 64.774529 42.130043 64.886253 42.174889 64.997971 C 42.443943 65.712967 42.690582 66.45031 42.869953 67.210007 C 42.892376 67.321716 42.914799 67.433441 42.937222 67.545158 C 43.09417 68.327194 43.206276 69.109222 43.273544 69.913597 Z"/>
    <path id="path4" fill="#f9e2dc" stroke="none" d="M 90.403587 70.047653 L 56.838562 70.047653 C 56.905834 69.533752 57.040356 69.064529 57.152462 68.572975 C 57.219734 68.193123 57.286995 67.790939 57.399101 67.433441 C 57.533634 66.964218 57.735428 66.539688 57.914795 66.092819 C 58.071747 65.690628 58.206276 65.288437 58.385654 64.908592 C 58.565022 64.506409 58.834076 64.148903 59.058296 63.769066 C 59.282509 63.366875 59.484303 62.964691 59.753361 62.584846 C 59.999996 62.227341 60.291481 61.936874 60.560535 61.601715 C 60.852016 61.244217 61.121075 60.842033 61.457401 60.506882 C 61.748882 60.216408 62.107628 59.948288 62.421528 59.657814 C 62.757843 59.344994 63.09417 59.009842 63.475334 58.741722 C 63.834076 58.451248 64.260094 58.227806 64.641251 57.982033 C 65.022423 57.758591 65.358742 57.490471 65.762329 57.289375 C 66.278023 56.998909 66.838562 56.797806 67.399101 56.574371 C 67.690582 56.462654 67.959641 56.306252 68.273544 56.216873 C 69.147987 55.926407 70.044838 55.702972 70.964119 55.546562 C 70.964119 55.546562 70.964119 55.546562 70.986549 55.546562 C 71.90583 55.39016 72.825111 55.323128 73.721977 55.323128 C 82.354263 55.323128 89.327354 61.780472 90.403587 70.047653 Z"/>
    <path id="path5" fill="#b1f1a8" stroke="none" d="M 68.408073 51.658752 C 68.273544 51.681091 68.16143 51.725784 68.049324 51.748123 C 67.556061 51.882187 67.085197 52.016251 66.614349 52.172653 C 66.390137 52.262032 66.188347 52.35141 65.986549 52.418434 C 65.605377 52.552498 65.246635 52.708908 64.887894 52.865311 C 64.663681 52.954689 64.439461 53.066406 64.215248 53.178123 C 63.901348 53.334534 63.565022 53.490944 63.251122 53.669685 C 63.026909 53.781403 62.825115 53.915466 62.600895 54.049538 C 62.286995 54.228279 61.995514 54.407028 61.704037 54.608131 C 61.502243 54.742188 61.278023 54.89859 61.076229 55.055 C 60.807175 55.256096 60.538116 55.457184 60.269062 55.658279 C 60.067268 55.837029 59.865475 55.993431 59.663681 56.172188 C 59.394615 56.395622 59.147987 56.619064 58.923767 56.842506 C 58.721973 57.021248 58.542603 57.199997 58.340809 57.4011 C 58.116589 57.624535 57.892376 57.870316 57.668156 58.116096 C 57.488789 58.317184 57.331841 58.518288 57.152462 58.719376 C 56.950668 58.987503 56.748875 59.233284 56.547081 59.501404 C 56.390133 59.724846 56.233181 59.925934 56.076233 60.149368 C 55.896862 60.417503 55.717487 60.707962 55.53812 60.998436 C 55.403587 61.221878 55.246635 61.445313 55.112106 61.668747 C 54.955154 61.959221 54.798206 62.249687 54.641254 62.5625 C 54.529148 62.785934 54.417042 63.031715 54.304928 63.25515 C 54.14798 63.56797 54.035873 63.880783 53.901348 64.193596 C 53.789234 64.439377 53.699554 64.685158 53.609867 64.930931 C 53.497761 65.26609 53.385647 65.60125 53.27354 65.936409 C 53.20628 66.18219 53.139015 66.427971 53.071747 66.673752 C 52.959641 67.03125 52.89238 67.388748 52.825108 67.746246 C 52.757847 67.992035 52.713001 68.215469 52.668159 68.46125 C 52.600895 68.863434 52.533634 69.287971 52.488792 69.712502 C 52.488792 69.824219 52.466366 69.935936 52.443947 70.047653 L 47.623318 70.047653 C 47.623318 69.801872 47.600899 69.556091 47.600899 69.332657 C 47.578476 69.131569 47.556053 68.952812 47.53363 68.751717 C 47.488789 68.371872 47.443947 67.992035 47.376682 67.589844 C 47.331837 67.366409 47.286999 67.165306 47.242153 66.941872 C 47.174889 66.606712 47.10762 66.249222 47.017937 65.914063 C 46.973095 65.690628 46.90583 65.467186 46.838566 65.221413 C 46.748878 64.908592 46.659195 64.595779 46.547085 64.282967 C 46.457397 64.059525 46.36771 63.83609 46.300449 63.590309 C 46.16592 63.29985 46.05381 62.987038 45.941704 62.696556 C 45.829594 62.473122 45.73991 62.249687 45.6278 62.026253 C 45.493275 61.735779 45.358746 61.467659 45.201794 61.177185 C 45.089684 60.953751 44.977577 60.752663 44.843052 60.551559 C 44.686096 60.261093 44.529148 59.992966 44.349773 59.724846 C 44.215248 59.52375 44.080719 59.322655 43.946186 59.121559 C 43.766815 58.853439 43.587444 58.585312 43.385647 58.339531 C 43.251122 58.138435 43.09417 57.959694 42.959644 57.758591 C 42.757847 57.51281 42.533634 57.267029 42.331837 57.043594 C 42.174889 56.864845 42.017937 56.686096 41.838566 56.507347 C 41.614349 56.261566 41.390133 56.038132 41.143497 55.81469 C 40.986546 55.658279 40.807175 55.479538 40.650223 55.323128 C 40.403587 55.099686 40.134529 54.89859 39.887894 54.697502 C 39.708519 54.541092 39.529148 54.384689 39.349777 54.250626 C 39.080715 54.049538 38.789238 53.848434 38.520176 53.669685 C 38.318386 53.535622 38.139011 53.401566 37.959641 53.267502 C 37.668163 53.088753 37.354263 52.910004 37.062778 52.731247 C 36.860985 52.61953 36.681614 52.507813 36.47982 52.396095 C 36.16592 52.239685 35.829597 52.083275 35.493275 51.926872 C 35.291481 51.837502 35.11211 51.725784 34.910316 51.658752 C 34.529148 51.480003 34.103138 51.323593 33.699551 51.167191 C 33.565022 51.122498 33.452915 51.077812 33.318386 51.033127 C 34.3722 42.252029 41.771301 35.593597 50.829594 35.593597 C 60.044842 35.593597 67.623322 42.676559 68.408073 51.658752 Z"/>
    <path id="path6" fill="#ecc25d" stroke="none" d="M 43.273544 69.913597 L 43.273544 70.047653 L 42.242153 70.047653 L 42.242153 70.025314 C 42.174889 69.913597 42.130043 69.801872 42.107624 69.690163 C 41.816143 68.975159 41.457401 68.282494 41.076233 67.634529 C 41.008968 67.522812 40.941704 67.433441 40.874439 67.321716 C 40.470852 66.673752 40.044842 66.048119 39.573994 65.444847 C 39.484303 65.355469 39.439465 65.288437 39.327354 65.199066 C 38.834084 64.595779 38.318386 64.059525 37.757851 63.545631 C 37.645741 63.456253 37.556057 63.389221 37.511211 63.322189 C 36.883408 62.808281 36.255608 62.339066 35.605381 61.914528 C 35.538116 61.86985 35.448429 61.82515 35.381165 61.780472 C 34.6861 61.355934 33.968609 60.953751 33.20628 60.640938 C 33.161434 60.618591 33.071751 60.596252 33.026905 60.573906 C 32.242153 60.238747 31.457397 59.970627 30.627804 59.747185 L 30.538116 59.747185 L 30.538116 59.724846 C 27.735426 59.054535 24.73094 59.076881 22.062782 59.814217 C 16.704035 61.244217 12.533632 65.132034 10.627802 70.047653 L 9.484305 70.047653 C 9.932735 62.852966 14.932736 56.66375 21.995516 54.786873 C 24.663679 54.049538 27.69058 54.027191 30.493273 54.697502 L 30.493273 54.719841 L 30.560537 54.719841 C 31.390137 54.943283 32.197308 55.211403 32.982063 55.546562 C 33.026905 55.568909 33.09417 55.591248 33.161434 55.613594 C 33.901344 55.926407 34.618832 56.32859 35.313904 56.753128 C 35.403587 56.797806 35.470852 56.842506 35.560535 56.887184 C 36.210762 57.311722 36.838562 57.780937 37.443947 58.294846 C 37.511211 58.361877 37.600895 58.428909 37.690582 58.518288 C 38.251122 59.032181 38.789238 59.568436 39.282509 60.171722 C 39.372196 60.261093 39.439465 60.328125 39.506725 60.417503 C 40.000004 61.020775 40.426006 61.646408 40.829597 62.294373 C 40.896862 62.406097 40.964123 62.495468 41.031391 62.607185 C 41.412556 63.25515 41.748878 63.947815 42.040359 64.662819 C 42.085201 64.774529 42.130043 64.886253 42.174889 64.997971 C 42.443943 65.712967 42.690582 66.45031 42.869953 67.210007 C 42.892376 67.321716 42.914799 67.433441 42.937222 67.545158 C 43.09417 68.327194 43.206276 69.109222 43.273544 69.913597 Z"/>
    <path id="path7" fill="#ffcbcb" stroke="none" d="M 90.403587 70.047653 L 88.968613 70.047653 C 86.300446 64.32766 80.560539 60.350471 73.789238 60.350471 C 72.869957 60.350471 71.973091 60.417503 71.031395 60.573906 C 71.008965 60.573906 71.008965 60.573906 71.008965 60.573906 C 70.089684 60.730316 69.192825 60.953751 68.340805 61.244217 C 68.026909 61.333595 67.757843 61.489998 67.46637 61.601715 C 66.90583 61.82515 66.345291 62.026253 65.829597 62.316719 C 65.403587 62.517815 65.089684 62.785934 64.708527 63.009377 C 64.304932 63.25515 63.878922 63.478592 63.542603 63.769066 C 63.161434 64.037186 62.802689 64.372337 62.46637 64.685158 C 62.174889 64.975632 61.793716 65.243752 61.502243 65.534225 C 61.188343 65.869377 60.919281 66.271561 60.627808 66.629059 C 60.358742 66.964218 60.067268 67.254684 59.798203 67.61219 C 59.529148 67.992035 59.349773 68.394218 59.103142 68.79641 C 58.878922 69.176247 58.632282 69.533752 58.430489 69.935936 C 58.408073 69.980621 58.385654 70.002975 58.385654 70.047653 L 56.838562 70.047653 C 56.905834 69.533752 57.040356 69.064529 57.152462 68.572975 C 57.219734 68.193123 57.286995 67.790939 57.399101 67.433441 C 57.533634 66.964218 57.735428 66.539688 57.914795 66.092819 C 58.071747 65.690628 58.206276 65.288437 58.385654 64.908592 C 58.565022 64.506409 58.834076 64.148903 59.058296 63.769066 C 59.282509 63.366875 59.484303 62.964691 59.753361 62.584846 C 59.999996 62.227341 60.291481 61.936874 60.560535 61.601715 C 60.852016 61.244217 61.121075 60.842033 61.457401 60.506882 C 61.748882 60.216408 62.107628 59.948288 62.421528 59.657814 C 62.757843 59.344994 63.09417 59.009842 63.475334 58.741722 C 63.834076 58.451248 64.260094 58.227806 64.641251 57.982033 C 65.022423 57.758591 65.358742 57.490471 65.762329 57.289375 C 66.278023 56.998909 66.838562 56.797806 67.399101 56.574371 C 67.690582 56.462654 67.959641 56.306252 68.273544 56.216873 C 69.147987 55.926407 70.044838 55.702972 70.964119 55.546562 C 70.964119 55.546562 70.964119 55.546562 70.986549 55.546562 C 71.90583 55.39016 72.825111 55.323128 73.721977 55.323128 C 82.354263 55.323128 89.327354 61.780472 90.403587 70.047653 Z"/>
    <path id="path8" fill="#98ea8b" stroke="none" d="M 68.408073 51.658752 C 68.273544 51.681091 68.16143 51.725784 68.049324 51.748123 C 67.802689 51.815163 67.578476 51.882187 67.354263 51.949219 C 64.820633 45.335472 58.385654 40.620941 50.874439 40.620941 C 43.475338 40.620941 37.174889 45.067337 34.551571 51.502342 C 34.282509 51.390625 33.991032 51.278908 33.699551 51.167191 C 33.565022 51.122498 33.452915 51.077812 33.318386 51.033127 C 34.3722 42.252029 41.771301 35.593597 50.829594 35.593597 C 60.044842 35.593597 67.623322 42.676559 68.408073 51.658752 Z"/>
</svg>
