<?xml version="1.0" encoding="UTF-8"?>
<!-- Generated by Pixelmator Pro 3.5.6 -->
<svg width="640" height="640" viewBox="0 0 640 640" xmlns="http://www.w3.org/2000/svg">
    <path id="Path" fill="#6b6ba5" stroke="none" d="M 542.200012 323.200012 C 542.200012 317.799988 537.799988 313.5 532.5 313.5 L 519.700012 313.5 C 514.599976 264.400024 471.899994 226 421.300018 228.399994 C 416.399994 178.799988 374.5 139.899963 323.699982 139.899963 C 274 139.899963 233.399994 176.100006 226.699997 224.100006 C 217.600006 222.900024 208.399994 223.099976 199.599991 224.5 L 144 7.299988 C 142.699997 2.099976 137.399994 -1 132.199997 0.299988 C 127 1.599976 123.900002 6.899963 125.200005 12.099976 L 180.800003 229.5 C 145.899994 242.799988 121.800003 275.800018 120 313.5 L 107.5 313.5 C 102.200005 313.5 97.799995 317.799988 97.799995 323.200012 C 97.799995 441.600006 191.100006 538.700012 308 545 L 308 620.600037 L 254.300003 620.600037 C 248.899994 620.600037 244.599991 624.900024 244.599991 630.299988 C 244.599991 635.700012 248.899994 640 254.300003 640 L 385.800018 640 C 391.100006 640 395.5 635.700012 395.5 630.299988 C 395.5 624.900024 391.100006 620.600037 385.800018 620.600037 L 327.400024 620.600037 L 327.400024 545.099976 C 446.5 541.200012 542.200012 443.200012 542.200012 323.200012 Z M 413.600006 248.600006 C 417.700012 247.900024 421.799988 247.600037 425.800018 247.600037 C 464.299988 247.600037 495.399994 276.5 500.200012 313.5 L 350.5 313.5 C 350.800018 311.200012 351.399994 309.100006 351.899994 306.900024 C 352.200012 305.200012 352.5 303.399994 353 301.799988 C 353.600006 299.700012 354.5 297.799988 355.299988 295.800018 C 355.999969 294 356.600006 292.200012 357.400024 290.5 C 358.199982 288.700012 359.399994 287.099976 360.399994 285.400024 C 361.399994 283.600006 362.299988 281.799988 363.499969 280.100037 C 364.599976 278.5 365.899994 277.200012 367.099976 275.700012 C 368.399994 274.100006 369.599976 272.299988 371.100006 270.800018 C 372.400024 269.5 374 268.300018 375.399994 267 C 376.899994 265.599976 378.399994 264.100006 380.099976 262.900024 C 381.699982 261.600006 383.600006 260.599976 385.299988 259.5 C 387 258.5 388.499969 257.299988 390.299988 256.399994 C 392.599976 255.100037 395.099976 254.199982 397.599976 253.200012 C 398.899994 252.700012 400.099976 252 401.5 251.600006 C 405.399994 250.299988 409.399994 249.299988 413.499969 248.600006 C 413.499969 248.600006 413.499969 248.600006 413.600006 248.600006 Z M 323.699982 159.299988 C 364.799988 159.299988 398.600006 191 402.099976 231.200012 C 401.5 231.299988 400.999969 231.5 400.5 231.600006 C 398.300018 232.200012 396.199982 232.799988 394.100006 233.5 C 393.100006 233.899994 392.200012 234.299988 391.300018 234.599976 C 389.599976 235.200012 388 235.899994 386.399994 236.600006 C 385.399994 237 384.399994 237.5 383.399994 238 C 382 238.700012 380.5 239.400024 379.100006 240.200012 C 378.100006 240.700012 377.200012 241.299988 376.199982 241.900024 C 374.799988 242.700012 373.499969 243.5 372.200012 244.400024 C 371.300018 245 370.299988 245.700012 369.399994 246.399994 C 368.199982 247.299988 367 248.200012 365.800018 249.100006 C 364.900024 249.899963 364 250.599976 363.100006 251.399994 C 361.899994 252.399963 360.800018 253.399994 359.799988 254.400024 C 358.899994 255.200012 358.100006 256 357.200012 256.900024 C 356.199982 257.900024 355.200012 259 354.199982 260.100037 C 353.399994 261 352.700012 261.900024 351.899994 262.799988 C 350.999969 264 350.099976 265.100037 349.199982 266.299988 C 348.499969 267.299988 347.799988 268.200012 347.099976 269.199982 C 346.300018 270.400024 345.5 271.699982 344.700012 273 C 344.100006 274 343.399994 275 342.799988 276 C 342.099976 277.299988 341.399994 278.600006 340.699982 280 C 340.200012 281 339.700012 282.099976 339.199982 283.099976 C 338.499969 284.5 338 285.899994 337.400024 287.299988 C 336.899994 288.399994 336.5 289.5 336.100006 290.599976 C 335.600006 292.099976 335.099976 293.600006 334.599976 295.100037 C 334.299988 296.200012 334 297.299988 333.699982 298.399994 C 333.199982 300 332.899994 301.600006 332.599976 303.200012 C 332.299988 304.299988 332.099976 305.299988 331.899994 306.399994 C 331.600006 308.200012 331.300018 310.100037 331.100006 312 C 331.100006 312.5 330.999969 313 330.899994 313.5 L 309.399994 313.5 C 309.399994 312.399963 309.299988 311.299988 309.299988 310.299988 C 309.200012 309.400024 309.100006 308.600006 309 307.700012 C 308.799988 306 308.600006 304.299988 308.299988 302.5 C 308.100006 301.5 307.899994 300.599976 307.700012 299.599976 C 307.399994 298.099976 307.099976 296.5 306.700012 295 C 306.5 294 306.200012 293 305.899994 291.900024 C 305.5 290.5 305.100006 289.100006 304.599976 287.700012 C 304.200012 286.699982 303.799988 285.700012 303.5 284.599976 C 302.899994 283.300018 302.399994 281.900024 301.899994 280.599976 C 301.399994 279.599976 301 278.600006 300.5 277.600037 C 299.899994 276.299988 299.299988 275.100037 298.600006 273.799988 C 298.100006 272.799988 297.600006 271.900024 297 271 C 296.299988 269.700012 295.600006 268.5 294.799988 267.299988 C 294.200012 266.399994 293.600006 265.5 293 264.599976 C 292.199982 263.399994 291.399994 262.200012 290.5 261.100006 C 289.899994 260.200012 289.200012 259.400024 288.600006 258.5 C 287.700012 257.399963 286.700012 256.299988 285.799988 255.299988 C 285.100006 254.5 284.399994 253.700012 283.600006 252.900024 C 282.600006 251.799988 281.600006 250.800018 280.5 249.799988 C 279.799988 249.100006 279 248.300018 278.299988 247.600037 C 277.199982 246.600006 276 245.700012 274.899994 244.799988 C 274.100006 244.100006 273.299988 243.399994 272.5 242.799988 C 271.299988 241.900024 270 241 268.799988 240.200012 C 267.899994 239.599976 267.099976 239 266.299988 238.399994 C 265 237.600037 263.600006 236.799988 262.299988 236 C 261.399994 235.5 260.600006 235 259.699982 234.5 C 258.299988 233.799988 256.799988 233.099976 255.300003 232.399963 C 254.400009 232 253.600006 231.5 252.699997 231.200012 C 251 230.400024 249.099991 229.700012 247.299988 229 C 246.699997 228.799988 246.200012 228.600006 245.599991 228.399994 C 250.300003 189.100006 283.299988 159.299988 323.699982 159.299988 Z M 195.100006 245.200012 C 207 241.900024 220.499985 241.799988 232.999985 244.799988 L 232.999985 244.899963 L 233.300003 244.899963 C 237 245.899994 240.599991 247.099976 244.099991 248.600006 C 244.300003 248.700012 244.599991 248.799988 244.899994 248.899994 C 248.199997 250.299988 251.399994 252.099976 254.5 254 C 254.899994 254.199982 255.199997 254.400024 255.599991 254.599976 C 258.5 256.5 261.299988 258.600006 264 260.899994 C 264.299988 261.200012 264.699982 261.5 265.100006 261.900024 C 267.600006 264.199982 270 266.600006 272.199982 269.299988 C 272.600006 269.700012 272.899994 270 273.199982 270.400024 C 275.399994 273.099976 277.299988 275.899994 279.100006 278.799988 C 279.399994 279.299988 279.699982 279.700012 280 280.200012 C 281.700012 283.099976 283.199982 286.200012 284.5 289.400024 C 284.699982 289.899963 284.899994 290.400024 285.100006 290.899994 C 286.299988 294.100006 287.399994 297.399963 288.199982 300.800018 C 288.299988 301.299988 288.399994 301.799988 288.5 302.299988 C 289.200012 305.800018 289.699982 309.299988 290 312.900024 L 290 313.5 L 139.300003 313.5 C 141.300003 281.299988 163.600006 253.600006 195.100006 245.200012 Z M 320 525.900024 C 211.399994 525.900024 122.5 440.200012 117.5 332.900024 L 522.5 332.900024 C 517.5 440.200012 428.600006 525.900024 320 525.900024 Z"/>
    <path id="path1" fill="#e6edf6" stroke="none" d="M 522.5 332.900024 C 517.5 440.200012 428.600006 525.900024 320 525.900024 C 211.399994 525.900024 122.5 440.200012 117.5 332.900024 L 522.5 332.900024 Z"/>
    <path id="path2" fill="#c8d5e4" stroke="none" d="M 522.5 332.900024 C 517.5 440.200012 428.600006 525.900024 320 525.900024 C 384.799988 525.900024 437.799988 440.200012 440.800018 332.900024 L 522.5 332.900024 Z M 320 525.900024 C 211.399994 525.900024 122.5 440.200012 117.5 332.900024 L 199.199997 332.900024 C 202.199997 440.200012 255.200012 525.900024 320 525.900024 Z"/>
    <path id="path3" fill="#ffdc7c" stroke="none" d="M 290 312.899994 L 290 313.499969 L 139.300003 313.499969 C 141.300003 281.299957 163.600006 253.600006 195.100006 245.200012 C 207.000015 241.900024 220.5 241.799988 233 244.799988 L 233 244.899963 L 233.300003 244.899963 C 237.000015 245.899994 240.599991 247.099976 244.100006 248.600006 C 244.300003 248.700012 244.599991 248.799957 244.899994 248.899994 C 248.199997 250.299988 251.399994 252.099976 254.500015 254 C 254.899994 254.199982 255.200012 254.400024 255.599991 254.599976 C 258.5 256.5 261.299988 258.600006 264 260.899994 C 264.300018 261.200012 264.699982 261.5 265.100006 261.900024 C 267.600006 264.199982 270 266.600006 272.199982 269.299988 C 272.600006 269.700012 272.900024 270 273.200012 270.399994 C 275.400024 273.099976 277.299988 275.899994 279.100006 278.799957 C 279.399994 279.299988 279.699982 279.700012 280 280.200012 C 281.700012 283.099976 283.200012 286.200012 284.5 289.400024 C 284.699982 289.899963 284.899994 290.399994 285.100006 290.899994 C 286.299988 294.100006 287.399994 297.399963 288.200012 300.800018 C 288.299988 301.299957 288.399994 301.799988 288.5 302.299988 C 289.200012 305.800018 289.699982 309.299988 290 312.899994 Z"/>
    <path id="path4" fill="#f9e2dc" stroke="none" d="M 500.200012 313.5 L 350.5 313.5 C 350.800018 311.200043 351.399994 309.100006 351.899994 306.900024 C 352.200012 305.200012 352.5 303.399994 353 301.800018 C 353.600006 299.700012 354.5 297.799988 355.299988 295.800018 C 355.999969 294.000031 356.600006 292.200012 357.400024 290.5 C 358.199982 288.700043 359.399994 287.100006 360.399994 285.400024 C 361.399994 283.600006 362.299988 281.800018 363.499969 280.100037 C 364.599976 278.5 365.899994 277.200012 367.099976 275.700012 C 368.399994 274.100006 369.599976 272.299988 371.100006 270.800018 C 372.400024 269.5 374 268.300018 375.399994 267 C 376.899994 265.599976 378.399994 264.100006 380.099976 262.900024 C 381.699982 261.600006 383.600006 260.599976 385.299988 259.5 C 387 258.5 388.499969 257.299988 390.299988 256.399994 C 392.599976 255.100037 395.099976 254.199982 397.599976 253.200012 C 398.899994 252.700012 400.099976 252 401.5 251.600006 C 405.399994 250.299988 409.399994 249.300018 413.499969 248.600006 C 413.499969 248.600006 413.499969 248.600006 413.600006 248.600006 C 417.700012 247.900024 421.799988 247.600037 425.800018 247.600037 C 464.299988 247.600037 495.399994 276.500031 500.200012 313.5 Z"/>
    <path id="path5" fill="#b1f1a8" stroke="none" d="M 402.099976 231.200012 C 401.5 231.299957 400.999969 231.5 400.5 231.600006 C 398.300018 232.200012 396.199982 232.799988 394.100006 233.499969 C 393.100006 233.899994 392.200012 234.299988 391.300018 234.599976 C 389.599976 235.200012 388 235.899994 386.399994 236.600006 C 385.399994 237 384.399994 237.5 383.399994 238 C 382 238.700012 380.5 239.400024 379.100006 240.200012 C 378.100006 240.699982 377.200012 241.299957 376.199982 241.900024 C 374.799988 242.700012 373.499969 243.499969 372.200012 244.400024 C 371.300018 245 370.299988 245.699982 369.399994 246.399994 C 368.199982 247.299988 367 248.199982 365.800018 249.100006 C 364.900024 249.899963 364 250.599976 363.100006 251.399994 C 361.899994 252.399963 360.800018 253.399994 359.799988 254.400024 C 358.899994 255.200012 358.100006 255.999969 357.200012 256.900024 C 356.199982 257.899994 355.200012 259 354.199982 260.100006 C 353.399994 260.999969 352.700012 261.900024 351.899994 262.799988 C 350.999969 264 350.099976 265.100006 349.199982 266.299957 C 348.499969 267.299988 347.799988 268.199982 347.099976 269.199982 C 346.300018 270.399994 345.5 271.699982 344.700012 273 C 344.100006 274 343.399994 275 342.799988 275.999969 C 342.099976 277.299988 341.399994 278.600006 340.699982 280 C 340.200012 280.999969 339.700012 282.099976 339.199982 283.099976 C 338.499969 284.5 338 285.899994 337.400024 287.299988 C 336.899994 288.399994 336.5 289.5 336.100006 290.599976 C 335.600006 292.099976 335.099976 293.600006 334.599976 295.100006 C 334.299988 296.200012 334 297.299988 333.699982 298.399994 C 333.199982 300 332.899994 301.600006 332.599976 303.199982 C 332.299988 304.299988 332.099976 305.299988 331.899994 306.399994 C 331.600006 308.199982 331.300018 310.100006 331.100006 312 C 331.100006 312.5 330.999969 313 330.899994 313.499969 L 309.399994 313.499969 C 309.399994 312.399963 309.299988 311.299957 309.299988 310.299988 C 309.200012 309.400024 309.100006 308.600006 309 307.700012 C 308.799988 305.999969 308.600006 304.299988 308.299988 302.5 C 308.100006 301.5 307.899994 300.599976 307.700012 299.599976 C 307.399994 298.099976 307.099976 296.5 306.700012 295 C 306.5 294 306.200012 293 305.899994 291.900024 C 305.5 290.5 305.100006 289.100006 304.599976 287.700012 C 304.200012 286.699982 303.799988 285.699982 303.5 284.599976 C 302.899994 283.300018 302.399994 281.900024 301.899994 280.599976 C 301.399994 279.599976 301 278.600006 300.5 277.600006 C 299.899994 276.299957 299.299988 275.100006 298.600006 273.799957 C 298.100006 272.799988 297.600006 271.900024 297 270.999969 C 296.299988 269.700012 295.600006 268.499969 294.799988 267.299988 C 294.200012 266.399994 293.600006 265.5 293 264.599976 C 292.199982 263.399994 291.399994 262.200012 290.5 261.100006 C 289.899994 260.200012 289.200012 259.400024 288.600006 258.499969 C 287.700012 257.399963 286.700012 256.299957 285.799988 255.299988 C 285.100006 254.5 284.399994 253.700012 283.600006 252.899994 C 282.600006 251.799988 281.600006 250.800018 280.5 249.799988 C 279.799988 249.100006 279 248.300018 278.299988 247.600006 C 277.199982 246.600006 276 245.699982 274.899994 244.799988 C 274.100006 244.100006 273.299988 243.399994 272.5 242.799988 C 271.299988 241.900024 270 240.999969 268.799988 240.200012 C 267.899994 239.599976 267.099976 239 266.299988 238.399994 C 265 237.600006 263.600006 236.799988 262.299988 235.999969 C 261.399994 235.5 260.600006 235 259.699982 234.5 C 258.299988 233.799957 256.799988 233.099976 255.300003 232.399963 C 254.400009 232 253.600006 231.5 252.699997 231.200012 C 251 230.399994 249.099991 229.700012 247.299988 229 C 246.699997 228.799957 246.200012 228.600006 245.599991 228.399994 C 250.300003 189.100006 283.299988 159.299988 323.699982 159.299988 C 364.799988 159.299988 398.600006 190.999969 402.099976 231.200012 Z"/>
    <path id="path6" fill="#ecc25d" stroke="none" d="M 290 312.899994 L 290 313.499969 L 285.400024 313.499969 L 285.400024 313.399994 C 285.100006 312.899994 284.899994 312.399963 284.799988 311.900024 C 283.5 308.700012 281.899994 305.599976 280.200012 302.700012 C 279.899994 302.200012 279.600006 301.799988 279.300018 301.299957 C 277.5 298.399994 275.600006 295.599976 273.5 292.899994 C 273.100006 292.5 272.900024 292.200012 272.399994 291.799988 C 270.200012 289.100006 267.900024 286.699982 265.400024 284.400024 C 264.899994 284 264.5 283.700012 264.300018 283.399994 C 261.5 281.100006 258.700012 279 255.800003 277.099976 C 255.5 276.900024 255.100006 276.699982 254.800003 276.5 C 251.699997 274.599976 248.5 272.799988 245.100006 271.399994 C 244.899994 271.299957 244.500015 271.200012 244.300003 271.100006 C 240.800003 269.599976 237.300003 268.399994 233.600006 267.399963 L 233.199997 267.399963 L 233.199997 267.299988 C 220.699997 264.299988 207.300003 264.400024 195.400009 267.700012 C 171.5 274.100006 152.899994 291.5 144.399994 313.499969 L 139.300003 313.499969 C 141.300003 281.299957 163.600006 253.600006 195.100006 245.200012 C 207.000015 241.900024 220.5 241.799988 233 244.799988 L 233 244.899963 L 233.300003 244.899963 C 237.000015 245.899994 240.599991 247.099976 244.100006 248.600006 C 244.300003 248.700012 244.599991 248.799957 244.899994 248.899994 C 248.199997 250.299988 251.399994 252.099976 254.500015 254 C 254.899994 254.199982 255.200012 254.400024 255.599991 254.599976 C 258.5 256.5 261.299988 258.600006 264 260.899994 C 264.300018 261.200012 264.699982 261.5 265.100006 261.900024 C 267.600006 264.199982 270 266.600006 272.199982 269.299988 C 272.600006 269.700012 272.900024 270 273.200012 270.399994 C 275.400024 273.099976 277.299988 275.899994 279.100006 278.799957 C 279.399994 279.299988 279.699982 279.700012 280 280.200012 C 281.700012 283.099976 283.200012 286.200012 284.5 289.400024 C 284.699982 289.899963 284.899994 290.399994 285.100006 290.899994 C 286.299988 294.100006 287.399994 297.399963 288.200012 300.800018 C 288.299988 301.299957 288.399994 301.799988 288.5 302.299988 C 289.200012 305.800018 289.699982 309.299988 290 312.899994 Z"/>
    <path id="path7" fill="#ffcbcb" stroke="none" d="M 500.200012 313.5 L 493.800018 313.5 C 481.899994 287.900024 456.300018 270.100037 426.100006 270.100037 C 422 270.100037 418 270.400024 413.800018 271.100006 C 413.699982 271.100006 413.699982 271.100006 413.699982 271.100006 C 409.599976 271.800018 405.600006 272.799988 401.799988 274.100006 C 400.399994 274.5 399.199982 275.200012 397.899994 275.700012 C 395.399994 276.699982 392.899994 277.600037 390.600006 278.899994 C 388.699982 279.799988 387.299988 281 385.600006 282 C 383.800018 283.099976 381.899994 284.100006 380.399994 285.400024 C 378.699982 286.600006 377.099976 288.099976 375.600006 289.5 C 374.299988 290.800018 372.599976 292 371.300018 293.300018 C 369.900024 294.799988 368.699982 296.600006 367.400024 298.200012 C 366.199982 299.700012 364.900024 301 363.699982 302.600037 C 362.5 304.300018 361.699982 306.100006 360.600006 307.900024 C 359.599976 309.600006 358.499969 311.200043 357.599976 313 C 357.5 313.200012 357.400024 313.300018 357.400024 313.5 L 350.5 313.5 C 350.800018 311.200043 351.399994 309.100006 351.899994 306.900024 C 352.200012 305.200012 352.5 303.399994 353 301.800018 C 353.600006 299.700012 354.5 297.799988 355.299988 295.800018 C 355.999969 294.000031 356.600006 292.200012 357.400024 290.5 C 358.199982 288.700043 359.399994 287.100006 360.399994 285.400024 C 361.399994 283.600006 362.299988 281.800018 363.499969 280.100037 C 364.599976 278.5 365.899994 277.200012 367.099976 275.700012 C 368.399994 274.100006 369.599976 272.299988 371.100006 270.800018 C 372.400024 269.5 374 268.300018 375.399994 267 C 376.899994 265.599976 378.399994 264.100006 380.099976 262.900024 C 381.699982 261.600006 383.600006 260.599976 385.299988 259.5 C 387 258.5 388.499969 257.299988 390.299988 256.399994 C 392.599976 255.100037 395.099976 254.199982 397.599976 253.200012 C 398.899994 252.700012 400.099976 252 401.5 251.600006 C 405.399994 250.299988 409.399994 249.300018 413.499969 248.600006 C 413.499969 248.600006 413.499969 248.600006 413.600006 248.600006 C 417.700012 247.900024 421.799988 247.600037 425.800018 247.600037 C 464.299988 247.600037 495.399994 276.500031 500.200012 313.5 Z"/>
    <path id="path8" fill="#98ea8b" stroke="none" d="M 402.099976 231.200012 C 401.5 231.299957 400.999969 231.5 400.5 231.600006 C 399.399994 231.900024 398.399994 232.200012 397.400024 232.5 C 386.100006 202.899994 357.400024 181.800018 323.899994 181.800018 C 290.899994 181.800018 262.800018 201.699982 251.100006 230.5 C 249.899994 230 248.600006 229.5 247.299988 229 C 246.699997 228.799957 246.200012 228.600006 245.599991 228.399994 C 250.300003 189.100006 283.299988 159.300018 323.699982 159.300018 C 364.799988 159.300018 398.600006 191 402.099976 231.200012 Z"/>
</svg>
