<?xml version="1.0" encoding="UTF-8"?>
<!-- Generated by Pixelmator Pro 3.6.2 -->
<svg width="50" height="42" viewBox="0 0 50 42" xmlns="http://www.w3.org/2000/svg">
    <path id="Path" fill="#000000" stroke="none" d="M 8.53 11.669998 L 12.41 11.669998 L 12.41 13.049999 C 10.37 13.510002 8.84 15.34 8.84 17.52 C 8.84 20.040001 10.89 22.099998 13.41 22.099998 C 15.93 22.099998 17.99 20.049999 17.99 17.52 C 17.99 16.970001 17.540001 16.52 16.99 16.52 C 16.440001 16.52 15.99 16.970001 15.99 17.52 C 15.99 18.940002 14.83 20.099998 13.41 20.099998 C 11.99 20.099998 10.84 18.940002 10.84 17.52 C 10.84 16.099998 11.99 14.940002 13.41 14.940002 C 13.959999 14.940002 14.41 14.489998 14.41 13.940002 L 14.41 11.669998 L 19.370001 11.669998 L 19.370001 21.09 C 19.370001 21.639999 19.82 22.09 20.370001 22.09 C 20.92 22.09 21.370001 21.639999 21.370001 21.09 L 21.370001 11.669998 L 23.58 11.669998 C 24.129999 11.669998 24.58 11.220001 24.58 10.669998 C 24.58 10.120003 24.129999 9.669998 23.58 9.669998 L 21.1 9.669998 L 16.129999 5.970001 C 15.629999 5.540001 14.940001 5.439999 14.34 5.720001 C 13.74 6 13.360001 6.580002 13.360001 7.25 C 13.360001 7.32 13.370001 7.389999 13.379999 7.459999 L 13.85 9.68 L 8.54 9.68 C 7.99 9.68 7.54 10.129997 7.54 10.68 C 7.54 11.23 7.97 11.669998 8.53 11.669998 Z M 15.530001 8.029999 L 17.74 9.669998 L 15.879999 9.669998 L 15.530001 8.029999 Z"/>
    <path id="path1" fill="#000000" stroke="none" d="M 4.77 26.759998 L 5.47 26.759998 L 5.47 31.299999 C 5.47 31.700001 5.71 32.07 6.09 32.220001 C 6.21 32.27 6.34 32.299999 6.47 32.299999 C 6.73 32.299999 6.99 32.200001 7.18 32.009998 L 12.42 26.77 L 22 26.77 L 22 32.07 C 22 34.419998 23.91 36.330002 26.26 36.330002 L 39.080002 36.330002 L 43.57 40.82 C 43.759998 41.009998 44.02 41.110001 44.279999 41.110001 C 44.41 41.110001 44.540001 41.09 44.66 41.029999 C 45.029999 40.880001 45.279999 40.509998 45.279999 40.110001 L 45.279999 36.330002 L 45.740002 36.330002 C 48.09 36.330002 50 34.419998 50 32.07 L 50 17.970001 C 50 15.620003 48.09 13.709999 45.740002 13.709999 L 32.099998 13.709999 L 32.099998 5.68 C 32.099998 3.049999 29.959999 0.910004 27.330002 0.910004 L 4.77 0.910004 C 2.14 0.900002 0 3.040001 0 5.669998 L 0 21.989998 C 0 24.619999 2.14 26.759998 4.77 26.759998 Z M 45.740002 15.700001 C 46.990002 15.700001 48 16.709999 48 17.959999 L 48 32.060001 C 48 33.310001 46.990002 34.32 45.740002 34.32 L 44.279999 34.32 C 43.73 34.32 43.279999 34.77 43.279999 35.32 L 43.279999 37.689999 L 40.200001 34.610001 C 40.009998 34.419998 39.759998 34.32 39.490002 34.32 L 26.26 34.32 C 25.01 34.32 24 33.310001 24 32.060001 L 24 26.759998 L 27.32 26.759998 C 29.950001 26.759998 32.09 24.619999 32.09 21.989998 L 32.09 15.700001 L 45.740002 15.700001 Z M 2 5.669998 C 2 4.139999 3.24 2.900002 4.77 2.900002 L 27.32 2.900002 C 28.849998 2.900002 30.09 4.139999 30.09 5.669998 L 30.09 21.989998 C 30.09 23.52 28.849998 24.759998 27.32 24.759998 L 12 24.759998 C 11.73 24.759998 11.48 24.869999 11.290001 25.049999 L 7.46 28.880001 L 7.46 25.759998 C 7.46 25.209999 7.01 24.759998 6.46 24.759998 L 4.76 24.759998 C 3.24 24.759998 2 23.52 2 21.989998 L 2 5.669998 Z"/>
    <path id="path2" fill="#000000" stroke="none" d="M 35.41 22.129997 L 38.110001 22.129997 L 38.110001 28.889999 C 38.110001 29.439999 38.560001 29.889999 39.110001 29.889999 C 39.66 29.889999 40.110001 29.439999 40.110001 28.889999 L 40.110001 22.129997 L 42.810001 22.129997 C 43.360001 22.129997 43.810001 21.68 43.810001 21.129997 C 43.810001 20.580002 43.360001 20.129997 42.810001 20.129997 L 35.400002 20.129997 C 34.849998 20.129997 34.400002 20.580002 34.400002 21.129997 C 34.400002 21.68 34.860001 22.129997 35.41 22.129997 Z"/>
</svg>
