<?xml version="1.0" encoding="UTF-8"?>
<!-- Generated by Pixelmator Pro 3.5.6 -->
<svg width="31" height="26" viewBox="0 0 31 26" xmlns="http://www.w3.org/2000/svg">
    <g id="Group">
        <path id="Path" fill="#000000" stroke="none" d="M 25 10.290001 C 23.82992 10.288254 22.689112 10.655693 21.74 11.34 L 16 4.650002 C 16.368044 4.17984 16.562338 3.596954 16.549999 3 C 16.564726 1.757881 15.714664 0.67223 14.505274 0.388592 C 13.295881 0.10495 12.051773 0.699455 11.512711 1.818604 C 10.973647 2.937752 11.284321 4.281151 12.26 5.049999 L 4.89 19 C 4.501474 18.860754 4.092674 18.786427 3.68 18.780001 C 1.708344 18.780001 0.11 20.378344 0.11 22.35 C 0.11 24.321657 1.708344 25.92 3.68 25.92 C 5.651656 25.92 7.25 24.321657 7.25 22.35 C 7.245393 22.168621 7.225321 21.987967 7.19 21.809999 L 19.799999 18 C 20.852022 20.620562 23.687908 22.050716 26.420532 21.338774 C 29.153156 20.626831 30.930683 17.994722 30.570267 15.193974 C 30.20985 12.393225 27.823843 10.296906 25 10.299999 Z M 13.91 1.369999 C 14.579172 1.370049 15.182049 1.774258 15.43622 2.39328 C 15.690393 3.012299 15.545523 3.723537 15.069469 4.193817 C 14.593416 4.664101 13.880466 4.800289 13.264591 4.538586 C 12.648714 4.276886 12.251888 3.669121 12.26 3 C 12.262644 2.565041 12.437971 2.148952 12.747408 1.843266 C 13.056845 1.537579 13.475042 1.36734 13.91 1.369999 Z M 3.68 24.889999 C 2.260628 24.889999 1.11 23.739372 1.11 22.32 C 1.11 20.900629 2.260628 19.75 3.68 19.75 C 5.099372 19.75 6.25 20.900629 6.25 22.32 C 6.244518 23.737095 5.097095 24.884518 3.68 24.889999 Z M 6.91 20.82 C 6.653733 20.270416 6.26133 19.795401 5.77 19.440001 L 13.139999 5.529999 C 13.388231 5.613564 13.648094 5.657433 13.91 5.66 C 14.370531 5.655872 14.822035 5.531796 15.219999 5.299999 L 21 12 C 19.982103 13.047237 19.41184 14.449583 19.41 15.91 C 19.406754 16.275316 19.436878 16.640163 19.5 17 Z M 25 20.51 C 22.453968 20.51 20.389999 18.446033 20.389999 15.9 C 20.389999 13.353968 22.453968 11.290001 25 11.290001 C 27.546032 11.290001 29.610001 13.353968 29.610001 15.9 C 29.6045 18.44375 27.543751 20.504499 25 20.51 Z"/>
    </g>
</svg>
