<?xml version="1.0" encoding="UTF-8"?>
<!-- Generated by Pixelmator Pro 3.5.6 -->
<svg width="86" height="12" viewBox="0 0 86 12" xmlns="http://www.w3.org/2000/svg">
    <g id="Group">
        <path id="Path" fill="#000000" stroke="#231f20" stroke-width="2" stroke-linecap="round" stroke-linejoin="round" visibility="hidden" d="M 45.455002 81.650002 C 45.455002 84.24353 43.352528 86.345993 40.758999 86.345993 C 38.16547 86.345993 36.063 84.24353 36.063 81.650002 C 36.063 79.056473 38.16547 76.954002 40.758999 76.954002 C 43.352528 76.954002 45.455002 79.056473 45.455002 81.650002 Z"/>
        <path id="path1" fill="#000000" stroke="#231f20" stroke-width="2" stroke-linecap="round" stroke-linejoin="round" visibility="hidden" d="M 8.553 81.650002 C 8.553 84.24353 6.450529 86.345993 3.857 86.345993 C 1.263471 86.345993 -0.839 84.24353 -0.839 81.650002 C -0.839 79.056473 1.263471 76.954002 3.857 76.954002 C 6.450529 76.954002 8.553 79.056473 8.553 81.650002 Z"/>
        <path id="path2" fill="#000000" stroke="#221f1f" stroke-width="2" stroke-linecap="round" stroke-linejoin="round" visibility="hidden" d="M 25.282001 76.832001 L 30.091 81.661003 L 25.261002 86.468994"/>
        <path id="path3" fill="#000000" stroke="#231f20" stroke-width="2" stroke-linecap="round" stroke-linejoin="round" visibility="hidden" d="M 30.091 81.650002 L 9.054001 81.650002"/>
        <path id="path4" fill="#000000" stroke="#231f20" stroke-width="2" stroke-linecap="round" stroke-linejoin="round" visibility="hidden" d="M 81.857002 81.650002 C 81.857002 84.24353 79.754532 86.345993 77.161003 86.345993 C 74.567474 86.345993 72.464996 84.24353 72.464996 81.650002 C 72.464996 79.056473 74.567474 76.954002 77.161003 76.954002 C 79.754532 76.954002 81.857002 79.056473 81.857002 81.650002 Z"/>
        <path id="path5" fill="#000000" stroke="#221f1f" stroke-width="2" stroke-linecap="round" stroke-linejoin="round" visibility="hidden" d="M 61.683998 76.832001 L 66.492996 81.661003 L 61.663002 86.468994"/>
        <path id="path6" fill="#000000" stroke="#231f20" stroke-width="2" stroke-linecap="round" stroke-linejoin="round" visibility="hidden" d="M 66.492996 81.650002 L 45.456001 81.650002"/>
    </g>
    <g id="g1">
        <path id="path7" fill="#000000" stroke="none" d="M 33.257 5.270996 L 28.481998 0.475998 C 28.091999 0.084 27.459 0.082001 27.067001 0.473 C 26.675999 0.862999 26.674 1.496002 27.063999 1.887001 L 30.164001 5 L 11.950001 5 C 11.475 2.334999 9.146 0.304001 6.347 0.304001 C 3.206 0.304001 0.652 2.860001 0.652 6.000999 C 0.652 9.140999 3.207 11.695 6.347 11.695 C 9.146 11.695 11.476 9.664001 11.950001 7 L 30.169998 7 L 27.046001 10.109001 C 26.653999 10.498001 26.652 11.130997 27.042 11.522995 C 27.237 11.719002 27.493999 11.818001 27.750999 11.818001 C 28.006001 11.818001 28.262001 11.720001 28.456001 11.527 L 33.285999 6.719002 C 33.473999 6.530998 33.580002 6.278 33.581001 6.012001 C 33.581001 6.009995 33.580002 6.007996 33.580002 6.005005 C 33.580002 6.002998 33.581001 6.000999 33.581001 5.999001 C 33.581001 5.709999 33.452999 5.453995 33.257 5.270996 Z M 6.348 9.695 C 4.31 9.695 2.653 8.037994 2.653 6.000999 C 2.653 3.962006 4.31 2.304001 6.348 2.304001 C 8.386 2.304001 10.044001 3.962997 10.044001 6.000999 C 10.044001 8.037994 8.386 9.695 6.348 9.695 Z"/>
        <path id="path8" fill="#000000" stroke="none" d="M 79.651001 0.304001 C 76.510002 0.304001 73.956001 2.860001 73.956001 6.000999 C 73.956001 9.140999 76.511002 11.695 79.651001 11.695 C 82.791 11.695 85.347 9.139999 85.347 6.000999 C 85.348 2.859001 82.792 0.304001 79.651001 0.304001 Z M 79.651001 9.695 C 77.612999 9.695 75.956001 8.037994 75.956001 6.000999 C 75.956001 3.962006 77.612999 2.304001 79.651001 2.304001 C 81.689003 2.304001 83.347 3.962997 83.347 6.000999 C 83.348 8.037994 81.689003 9.695 79.651001 9.695 Z"/>
        <path id="path9" fill="#000000" stroke="none" d="M 69.658997 5.270996 L 64.883003 0.475998 C 64.490997 0.084 63.860001 0.082001 63.468002 0.473 C 63.077003 0.862999 63.074997 1.496002 63.464996 1.887001 L 66.565002 5 L 48.853001 5 C 48.377998 2.334999 46.049 0.304001 43.249001 0.304001 C 40.108002 0.304001 37.554001 2.860001 37.554001 6.000999 C 37.554001 9.140999 40.109001 11.695 43.249001 11.695 C 46.049 11.695 48.379002 9.664001 48.853001 7 L 66.572998 7 L 63.448997 10.109001 C 63.056999 10.498001 63.055 11.130997 63.445 11.522995 C 63.639999 11.719002 63.897003 11.818001 64.153999 11.818001 C 64.408997 11.818001 64.665001 11.720001 64.859001 11.527 L 69.689003 6.719002 C 69.876999 6.530998 69.983002 6.278 69.984001 6.012001 C 69.984001 6.009995 69.983002 6.007996 69.983002 6.005997 C 69.983002 6.003998 69.984001 6.001999 69.984001 6 C 69.983002 5.709999 69.855003 5.453995 69.658997 5.270996 Z M 43.249001 9.695 C 41.210999 9.695 39.554001 8.037994 39.554001 6.000999 C 39.554001 3.962006 41.210999 2.304001 43.249001 2.304001 C 45.287998 2.304001 46.945999 3.962997 46.945999 6.000999 C 46.945999 8.037994 45.287998 9.695 43.249001 9.695 Z"/>
    </g>
</svg>
