<?xml version="1.0" encoding="UTF-8"?>
<!-- Generated by Pixelmator Pro 3.5.6 -->
<svg width="58" height="58" viewBox="0 0 58 58" xmlns="http://www.w3.org/2000/svg">
    <g id="Group">
        <path id="Path" fill="#000000" stroke="none" d="M 51.799999 24.82 L 6.2 24.82 C 2.785895 24.825459 0.016489 27.58593 0 31 L 0 51.799999 C 0.005506 55.221882 2.778118 57.994495 6.2 58 L 51.799999 58 C 55.221882 57.994495 57.994495 55.221882 58 51.799999 L 58 31 C 57.983513 27.58593 55.214104 24.825459 51.799999 24.82 Z M 56 51.82 C 55.988991 54.131783 54.111809 56.000027 51.799999 56 L 6.2 56 C 3.880404 56 2 54.119595 2 51.799999 L 2 31 C 2 28.680405 3.880404 26.799999 6.2 26.799999 L 51.799999 26.799999 C 54.119595 26.799999 56 28.680405 56 31 Z"/>
        <path id="path1" fill="#000000" stroke="none" d="M 5.57 18.549999 L 52.43 18.549999 C 52.982285 18.549999 53.43 18.102287 53.43 17.549999 C 53.43 16.997715 52.982285 16.549999 52.43 16.549999 L 5.57 16.549999 C 5.017715 16.549999 4.57 16.997715 4.57 17.549999 C 4.57 18.102287 5.017715 18.549999 5.57 18.549999 Z"/>
        <path id="path2" fill="#000000" stroke="none" d="M 10.39 10.270004 L 47.610001 10.270004 C 48.162285 10.270004 48.610001 9.822281 48.610001 9.270004 C 48.610001 8.717712 48.162285 8.270004 47.610001 8.270004 L 10.39 8.270004 C 9.837715 8.270004 9.39 8.717712 9.39 9.270004 C 9.39 9.822281 9.837715 10.270004 10.39 10.270004 Z"/>
        <path id="path3" fill="#000000" stroke="none" d="M 15.58 2 L 42.419998 2 C 42.972286 2 43.419998 1.552284 43.419998 1 C 43.419998 0.447716 42.972286 0 42.419998 0 L 15.58 0 C 15.027716 0 14.58 0.447716 14.58 1 C 14.58 1.552284 15.027716 2 15.58 2 Z"/>
    </g>
</svg>
