<?xml version="1.0" encoding="UTF-8"?>
<!-- Generated by Pixelmator Pro 3.5.6 -->
<svg width="74" height="88" viewBox="0 0 74 88" xmlns="http://www.w3.org/2000/svg">
    <g id="Group">
        <path id="Path" fill="#000000" fill-rule="evenodd" stroke="none" d="M 28.300125 0.001953 C 27.506119 -0.000122 26.751221 0.34906 26.235085 0.957153 L 17.365833 10.884583 C 16.43972 11.922363 16.43972 13.49707 17.365833 14.534851 L 27.115242 25.45166 C 28.115913 26.57074 29.826981 26.661377 30.938526 25.654114 C 32.050072 24.646912 32.141865 22.922668 31.143627 21.801331 L 25.5243 15.490112 L 53.045517 15.490112 C 64.058472 15.490112 68.583626 21.999329 68.583626 28.419678 C 68.583626 34.839966 64.058472 41.383362 53.045517 41.383362 L 20.95414 41.383362 C 7.655046 41.383362 0.011424 50.50824 8.6e-05 59.737125 C -0.011254 68.966064 7.622093 78.056763 20.886463 78.056763 L 48.611069 78.056763 L 43.804218 83.447021 C 42.807465 84.568481 42.899891 86.291504 44.010796 87.298096 C 45.121704 88.30481 46.831604 88.214966 47.832603 87.09729 L 56.701859 77.1698 C 57.627907 76.13208 57.627907 74.557373 56.701859 73.519653 L 46.952446 62.602848 C 46.40704 61.979313 45.609447 61.640263 44.785713 61.681705 C 43.737034 61.734135 42.812893 62.392643 42.414238 63.371525 C 42.015587 64.350403 42.21426 65.473328 42.924061 66.253052 L 48.611069 72.598389 L 20.886463 72.598389 C 9.931267 72.598389 5.408236 66.116211 5.416386 59.737125 C 5.424185 53.358032 9.956779 46.841736 20.95414 46.841736 L 53.045517 46.841736 C 66.367996 46.841736 73.999924 37.684692 73.999924 28.419678 C 73.999924 19.154602 66.367996 10.031677 53.045517 10.031677 L 25.388943 10.031677 L 30.26347 4.607483 C 31.006588 3.81604 31.211487 2.65509 30.784721 1.653992 C 30.357952 0.652893 29.381283 0.003479 28.300125 0.001953 Z"/>
    </g>
</svg>
