<?xml version="1.0" encoding="UTF-8"?>
<!-- Generated by Pixelmator Pro 3.5.6 -->
<svg width="66" height="28" viewBox="0 0 66 28" xmlns="http://www.w3.org/2000/svg">
    <path id="Path" fill="#000000" fill-rule="evenodd" stroke="none" d="M 0 5.005524 C 0 2.242065 2.242073 0 5.003487 0 L 60.996513 0 C 63.761894 0 66 2.236816 66 5.005524 L 66 22.994476 C 66 25.757935 63.757927 28 60.996513 28 L 5.003487 28 C 2.238106 28 0 25.763184 0 22.994476 L 0 5.005524 Z M 2 5.005524 L 2 22.994476 C 2 24.658356 3.342419 26 5.003487 26 L 60.996513 26 C 62.653358 26 64 24.653351 64 22.994476 L 64 5.005524 C 64 3.341644 62.657578 2 60.996513 2 L 5.003487 2 C 3.346642 2 2 3.346649 2 5.005524 Z M 55.414215 14 L 57.707108 16.292908 C 58.097633 16.683411 58.097633 17.316589 57.707108 17.707092 C 57.316582 18.097626 56.683418 18.097626 56.292892 17.707092 L 54 15.414215 L 51.707108 17.707092 C 51.316582 18.097626 50.683418 18.097626 50.292892 17.707092 C 49.902367 17.316589 49.902367 16.683411 50.292892 16.292908 L 52.585785 14 L 50.292892 11.707092 C 49.902367 11.316589 49.902367 10.683411 50.292892 10.292908 C 50.683418 9.902374 51.316582 9.902374 51.707108 10.292908 L 54 12.585785 L 56.292892 10.292908 C 56.683418 9.902374 57.316582 9.902374 57.707108 10.292908 C 58.097633 10.683411 58.097633 11.316589 57.707108 11.707092 L 55.414215 14 Z"/>
</svg>
