<?xml version="1.0" encoding="UTF-8"?>
<!-- Generated by Pixelmator Pro 3.5.6 -->
<svg width="406" height="330" viewBox="0 0 406 330" xmlns="http://www.w3.org/2000/svg">
    <g id="Group">
        <g id="g1">
            <g id="g2">
                <path id="Path" fill="#000000" stroke="none" d="M 377.600006 319.299988 C 342.5 319.299988 307.299988 319.299988 272.200012 319.299988 C 211.899994 319.299988 151.600006 319.299988 91.399994 319.299988 C 73 319.299988 54.699997 319.299988 36.300003 319.299988 C 33.199997 319.299988 30.099998 319.5 27 319.299988 C 17.300003 318.600006 10.299999 310.5 10.099998 301 C 10.099998 299.899994 10.099998 298.799988 10.099998 297.600006 C 10.099998 249.200012 10.099998 200.799988 10.099998 152.399994 C 10.099998 123.799988 10.099998 95.299988 10.099998 66.700012 C 10.099998 54.100006 9.700001 41.399994 10.099998 28.799988 C 10.400002 17 19.800003 10.5 30.699997 10.5 C 35.900002 10.5 41.099998 10.5 46.400002 10.5 C 68.599998 10.5 90.899994 10.5 113.100006 10.5 C 173.899994 10.5 234.799988 10.5 295.600006 10.5 C 317.299988 10.5 339 10.5 360.700012 10.5 C 365.799988 10.5 370.899994 10.5 375.899994 10.5 C 386.700012 10.5 395.700012 17.400024 396 28.799988 C 397 70.600006 396 112.600006 396 154.399994 C 396 202.399994 396 250.299988 396 298.299988 C 395.899994 309.299988 389.700012 318.899994 377.600006 319.299988 C 371.200012 319.5 371.200012 329.5 377.600006 329.299988 C 393.899994 328.799988 405.799988 316.100006 405.899994 299.899994 C 405.899994 294.299988 405.899994 288.700012 405.899994 283.100006 C 405.899994 257.600006 405.899994 232.200012 405.899994 206.700012 C 405.899994 151.399994 405.899994 96.100006 405.899994 40.799988 C 405.899994 36.799988 406 32.799988 405.899994 28.799988 C 405.5 12.700012 393 0.700012 377.100006 0.5 C 364.100006 0.299988 351 0.5 337.899994 0.5 C 278.700012 0.5 219.5 0.5 160.399994 0.5 C 117 0.5 73.699997 0.400024 30.300003 0.5 C 18.5 0.5 7.5 6 2.599998 17.200012 C -0.200001 23.400024 0.099998 29.600006 0.099998 36.100006 C 0.099998 57.700012 0.099998 79.299988 0.099998 100.899994 C 0.099998 159.399994 0.099998 217.899994 0.099998 276.399994 C 0.099998 283.5 0.099998 290.600006 0.099998 297.700012 C 0.099998 308.700012 3.599998 318.899994 13.400002 325.100006 C 24.199997 331.899994 41.400002 329.399994 53.599998 329.399994 C 109.800003 329.399994 165.899994 329.399994 222.100006 329.399994 C 271.399994 329.399994 320.600006 329.399994 369.899994 329.399994 C 372.5 329.399994 375.200012 329.399994 377.799988 329.399994 C 384.100006 329.299988 384.100006 319.299988 377.600006 319.299988 Z"/>
            </g>
        </g>
        <g id="g3">
            <g id="g4">
                <g id="g5">
                    <path id="path1" fill="#000000" stroke="none" d="M 86.699997 235.5 C 110.800003 215.700012 135 195.899994 159.100006 176.100006 C 162.5 173.299988 166 170.5 169.399994 167.700012 C 171.399994 166.100006 171.300003 162.200012 169.399994 160.600006 C 145.300003 140.799988 121.100006 121 97 101.200012 C 93.600006 98.399994 90.100006 95.600006 86.699997 92.799988 C 81.800003 88.700012 74.599998 95.799988 79.599998 99.899994 C 103.699997 119.700012 127.899994 139.5 152 159.299988 C 155.399994 162.100006 158.899994 164.899994 162.300003 167.700012 C 162.300003 165.299988 162.300003 163 162.300003 160.600006 C 138.199997 180.399994 114 200.200012 89.899994 220 C 86.5 222.799988 83 225.600006 79.599998 228.399994 C 74.599998 232.5 81.699997 239.5 86.699997 235.5 L 86.699997 235.5 Z"/>
                </g>
            </g>
            <g id="g6">
                <g id="g7">
                    <path id="path2" fill="#000000" stroke="none" d="M 195.199997 237.200012 C 232.299988 237.200012 269.399994 237.200012 306.5 237.200012 C 311.700012 237.200012 317 237.200012 322.200012 237.200012 C 328.600006 237.200012 328.600006 227.200012 322.200012 227.200012 C 285.100006 227.200012 248 227.200012 210.899994 227.200012 C 205.699997 227.200012 200.399994 227.200012 195.199997 227.200012 C 188.699997 227.200012 188.699997 237.200012 195.199997 237.200012 L 195.199997 237.200012 Z"/>
                </g>
            </g>
        </g>
    </g>
</svg>
